<ttFont>
    <TTGlyph name="A" xMin="71" yMin="0" xMax="540" yMax="723">
      <contour>
        <pt x="340" y="628" on="1"/>
        <pt x="247" y="628" on="1"/>
        <pt x="231" y="628" on="0"/>
        <pt x="231" y="620" on="1"/>
        <pt x="231" y="0" on="1"/>
        <pt x="126" y="0" on="1"/>
        <pt x="92" y="0" on="0"/>
        <pt x="71" y="22" on="0"/>
        <pt x="71" y="57" on="1"/>
        <pt x="71" y="666" on="1"/>
        <pt x="71" y="701" on="0"/>
        <pt x="92" y="723" on="0"/>
        <pt x="126" y="723" on="1"/>
        <pt x="340" y="723" on="1"/>
      </contour>
      <contour>
        <pt x="380" y="723" on="1"/>
        <pt x="485" y="723" on="1"/>
        <pt x="519" y="723" on="0"/>
        <pt x="540" y="701" on="0"/>
        <pt x="540" y="666" on="1"/>
        <pt x="540" y="58" on="1"/>
        <pt x="540" y="23" on="0"/>
        <pt x="518" y="0" on="0"/>
        <pt x="485" y="0" on="1"/>
        <pt x="380" y="0" on="1"/>
        <pt x="380" y="335" on="1"/>
        <pt x="271" y="335" on="1"/>
        <pt x="271" y="430" on="1"/>
        <pt x="380" y="430" on="1"/>
      </contour>
    </TTGlyph>
    <TTGlyph name="AE" xMin="71" yMin="0" xMax="863" yMax="723">
      <contour>
        <pt x="863" y="140" on="1"/>
        <pt x="863" y="55" on="1"/>
        <pt x="863" y="21" on="0"/>
        <pt x="841" y="0" on="0"/>
        <pt x="806" y="0" on="1"/>
        <pt x="594" y="0" on="1"/>
        <pt x="594" y="140" on="1"/>
      </contour>
      <contour>
        <pt x="803" y="435" on="1"/>
        <pt x="803" y="375" on="1"/>
        <pt x="803" y="339" on="0"/>
        <pt x="789" y="320" on="0"/>
        <pt x="756" y="320" on="1"/>
        <pt x="594" y="320" on="1"/>
        <pt x="594" y="435" on="1"/>
      </contour>
      <contour>
        <pt x="853" y="723" on="1"/>
        <pt x="853" y="638" on="1"/>
        <pt x="853" y="604" on="0"/>
        <pt x="831" y="583" on="0"/>
        <pt x="796" y="583" on="1"/>
        <pt x="594" y="583" on="1"/>
        <pt x="594" y="723" on="1"/>
      </contour>
      <contour>
        <pt x="340" y="628" on="1"/>
        <pt x="247" y="628" on="1"/>
        <pt x="231" y="628" on="0"/>
        <pt x="231" y="620" on="1"/>
        <pt x="231" y="0" on="1"/>
        <pt x="126" y="0" on="1"/>
        <pt x="92" y="0" on="0"/>
        <pt x="71" y="22" on="0"/>
        <pt x="71" y="57" on="1"/>
        <pt x="71" y="666" on="1"/>
        <pt x="71" y="701" on="0"/>
        <pt x="92" y="723" on="0"/>
        <pt x="126" y="723" on="1"/>
        <pt x="340" y="723" on="1"/>
      </contour>
      <contour>
        <pt x="380" y="723" on="1"/>
        <pt x="485" y="723" on="1"/>
        <pt x="519" y="723" on="0"/>
        <pt x="540" y="701" on="0"/>
        <pt x="540" y="666" on="1"/>
        <pt x="540" y="58" on="1"/>
        <pt x="540" y="23" on="0"/>
        <pt x="518" y="0" on="0"/>
        <pt x="485" y="0" on="1"/>
        <pt x="380" y="0" on="1"/>
        <pt x="380" y="335" on="1"/>
        <pt x="271" y="335" on="1"/>
        <pt x="271" y="430" on="1"/>
        <pt x="380" y="430" on="1"/>
      </contour>
    </TTGlyph>
    <TTGlyph name="Aacute" xMin="71" yMin="0" xMax="540" yMax="946">
      <contour>
        <pt x="340" y="628" on="1"/>
        <pt x="247" y="628" on="1"/>
        <pt x="231" y="628" on="0"/>
        <pt x="231" y="620" on="1"/>
        <pt x="231" y="0" on="1"/>
        <pt x="126" y="0" on="1"/>
        <pt x="92" y="0" on="0"/>
        <pt x="71" y="22" on="0"/>
        <pt x="71" y="57" on="1"/>
        <pt x="71" y="666" on="1"/>
        <pt x="71" y="701" on="0"/>
        <pt x="92" y="723" on="0"/>
        <pt x="126" y="723" on="1"/>
        <pt x="340" y="723" on="1"/>
      </contour>
      <contour>
        <pt x="380" y="723" on="1"/>
        <pt x="485" y="723" on="1"/>
        <pt x="519" y="723" on="0"/>
        <pt x="540" y="701" on="0"/>
        <pt x="540" y="666" on="1"/>
        <pt x="540" y="58" on="1"/>
        <pt x="540" y="23" on="0"/>
        <pt x="518" y="0" on="0"/>
        <pt x="485" y="0" on="1"/>
        <pt x="380" y="0" on="1"/>
        <pt x="380" y="335" on="1"/>
        <pt x="271" y="335" on="1"/>
        <pt x="271" y="430" on="1"/>
        <pt x="380" y="430" on="1"/>
      </contour>
      <contour>
        <pt x="266" y="753" on="1"/>
        <pt x="266" y="889" on="1"/>
        <pt x="266" y="934" on="0"/>
        <pt x="276" y="946" on="0"/>
        <pt x="314" y="946" on="1"/>
        <pt x="430" y="946" on="1"/>
        <pt x="338" y="753" on="1"/>
      </contour>
    </TTGlyph>
    <TTGlyph name="Acircumflex" xMin="71" yMin="0" xMax="540" yMax="936">
      <contour>
        <pt x="340" y="628" on="1"/>
        <pt x="247" y="628" on="1"/>
        <pt x="231" y="628" on="0"/>
        <pt x="231" y="620" on="1"/>
        <pt x="231" y="0" on="1"/>
        <pt x="126" y="0" on="1"/>
        <pt x="92" y="0" on="0"/>
        <pt x="71" y="22" on="0"/>
        <pt x="71" y="57" on="1"/>
        <pt x="71" y="666" on="1"/>
        <pt x="71" y="701" on="0"/>
        <pt x="92" y="723" on="0"/>
        <pt x="126" y="723" on="1"/>
        <pt x="340" y="723" on="1"/>
      </contour>
      <contour>
        <pt x="380" y="723" on="1"/>
        <pt x="485" y="723" on="1"/>
        <pt x="519" y="723" on="0"/>
        <pt x="540" y="701" on="0"/>
        <pt x="540" y="666" on="1"/>
        <pt x="540" y="58" on="1"/>
        <pt x="540" y="23" on="0"/>
        <pt x="518" y="0" on="0"/>
        <pt x="485" y="0" on="1"/>
        <pt x="380" y="0" on="1"/>
        <pt x="380" y="335" on="1"/>
        <pt x="271" y="335" on="1"/>
        <pt x="271" y="430" on="1"/>
        <pt x="380" y="430" on="1"/>
      </contour>
      <contour>
        <pt x="250" y="936" on="1"/>
        <pt x="358" y="936" on="1"/>
        <pt x="368" y="936" on="0"/>
        <pt x="378" y="934" on="0"/>
        <pt x="386" y="933" on="0"/>
        <pt x="393" y="924" on="0"/>
        <pt x="396" y="918" on="0"/>
        <pt x="406" y="897" on="0"/>
        <pt x="410" y="889" on="1"/>
        <pt x="474" y="763" on="1"/>
        <pt x="363" y="763" on="1"/>
        <pt x="306" y="883" on="1"/>
        <pt x="249" y="763" on="1"/>
        <pt x="137" y="763" on="1"/>
        <pt x="213" y="904" on="1"/>
        <pt x="227" y="931" on="0"/>
        <pt x="232" y="933" on="1"/>
        <pt x="238" y="936" on="0"/>
      </contour>
    </TTGlyph>
    <TTGlyph name="Adieresis" xMin="71" yMin="0" xMax="540" yMax="922">
      <contour>
        <pt x="340" y="628" on="1"/>
        <pt x="247" y="628" on="1"/>
        <pt x="231" y="628" on="0"/>
        <pt x="231" y="620" on="1"/>
        <pt x="231" y="0" on="1"/>
        <pt x="126" y="0" on="1"/>
        <pt x="92" y="0" on="0"/>
        <pt x="71" y="22" on="0"/>
        <pt x="71" y="57" on="1"/>
        <pt x="71" y="666" on="1"/>
        <pt x="71" y="701" on="0"/>
        <pt x="92" y="723" on="0"/>
        <pt x="126" y="723" on="1"/>
        <pt x="340" y="723" on="1"/>
      </contour>
      <contour>
        <pt x="380" y="723" on="1"/>
        <pt x="485" y="723" on="1"/>
        <pt x="519" y="723" on="0"/>
        <pt x="540" y="701" on="0"/>
        <pt x="540" y="666" on="1"/>
        <pt x="540" y="58" on="1"/>
        <pt x="540" y="23" on="0"/>
        <pt x="518" y="0" on="0"/>
        <pt x="485" y="0" on="1"/>
        <pt x="380" y="0" on="1"/>
        <pt x="380" y="335" on="1"/>
        <pt x="271" y="335" on="1"/>
        <pt x="271" y="430" on="1"/>
        <pt x="380" y="430" on="1"/>
      </contour>
      <contour>
        <pt x="367" y="922" on="1"/>
        <pt x="484" y="922" on="1"/>
        <pt x="495" y="920" on="0"/>
        <pt x="495" y="904" on="1"/>
        <pt x="495" y="901" on="0"/>
        <pt x="495" y="900" on="1"/>
        <pt x="495" y="795" on="1"/>
        <pt x="495" y="789" on="0"/>
        <pt x="491" y="785" on="0"/>
        <pt x="484" y="784" on="1"/>
        <pt x="367" y="784" on="1"/>
        <pt x="360" y="785" on="0"/>
        <pt x="356" y="789" on="0"/>
        <pt x="356" y="795" on="1"/>
        <pt x="356" y="913" on="1"/>
        <pt x="356" y="915" on="0"/>
        <pt x="358" y="917" on="0"/>
        <pt x="359" y="918" on="1"/>
        <pt x="361" y="922" on="0"/>
      </contour>
      <contour>
        <pt x="257" y="900" on="1"/>
        <pt x="257" y="809" on="1"/>
        <pt x="257" y="806" on="0"/>
        <pt x="257" y="794" on="0"/>
        <pt x="256" y="791" on="1"/>
        <pt x="255" y="784" on="0"/>
        <pt x="246" y="784" on="1"/>
        <pt x="128" y="784" on="1"/>
        <pt x="118" y="785" on="0"/>
        <pt x="118" y="795" on="1"/>
        <pt x="118" y="909" on="1"/>
        <pt x="118" y="920" on="0"/>
        <pt x="128" y="922" on="1"/>
        <pt x="246" y="922" on="1"/>
        <pt x="257" y="920" on="0"/>
        <pt x="257" y="903" on="1"/>
        <pt x="257" y="901" on="0"/>
      </contour>
    </TTGlyph>
    <TTGlyph name="Agrave" xMin="71" yMin="0" xMax="540" yMax="946">
      <contour>
        <pt x="340" y="628" on="1"/>
        <pt x="247" y="628" on="1"/>
        <pt x="231" y="628" on="0"/>
        <pt x="231" y="620" on="1"/>
        <pt x="231" y="0" on="1"/>
        <pt x="126" y="0" on="1"/>
        <pt x="92" y="0" on="0"/>
        <pt x="71" y="22" on="0"/>
        <pt x="71" y="57" on="1"/>
        <pt x="71" y="666" on="1"/>
        <pt x="71" y="701" on="0"/>
        <pt x="92" y="723" on="0"/>
        <pt x="126" y="723" on="1"/>
        <pt x="340" y="723" on="1"/>
      </contour>
      <contour>
        <pt x="380" y="723" on="1"/>
        <pt x="485" y="723" on="1"/>
        <pt x="519" y="723" on="0"/>
        <pt x="540" y="701" on="0"/>
        <pt x="540" y="666" on="1"/>
        <pt x="540" y="58" on="1"/>
        <pt x="540" y="23" on="0"/>
        <pt x="518" y="0" on="0"/>
        <pt x="485" y="0" on="1"/>
        <pt x="380" y="0" on="1"/>
        <pt x="380" y="335" on="1"/>
        <pt x="271" y="335" on="1"/>
        <pt x="271" y="430" on="1"/>
        <pt x="380" y="430" on="1"/>
      </contour>
      <contour>
        <pt x="295" y="946" on="1"/>
        <pt x="333" y="946" on="0"/>
        <pt x="343" y="934" on="0"/>
        <pt x="343" y="889" on="1"/>
        <pt x="343" y="753" on="1"/>
        <pt x="271" y="753" on="1"/>
        <pt x="179" y="946" on="1"/>
      </contour>
    </TTGlyph>
    <TTGlyph name="Aring" xMin="71" yMin="0" xMax="540" yMax="983">
      <contour>
        <pt x="340" y="628" on="1"/>
        <pt x="247" y="628" on="1"/>
        <pt x="231" y="628" on="0"/>
        <pt x="231" y="620" on="1"/>
        <pt x="231" y="0" on="1"/>
        <pt x="126" y="0" on="1"/>
        <pt x="92" y="0" on="0"/>
        <pt x="71" y="22" on="0"/>
        <pt x="71" y="57" on="1"/>
        <pt x="71" y="666" on="1"/>
        <pt x="71" y="701" on="0"/>
        <pt x="92" y="723" on="0"/>
        <pt x="126" y="723" on="1"/>
        <pt x="340" y="723" on="1"/>
      </contour>
      <contour>
        <pt x="380" y="723" on="1"/>
        <pt x="485" y="723" on="1"/>
        <pt x="519" y="723" on="0"/>
        <pt x="540" y="701" on="0"/>
        <pt x="540" y="666" on="1"/>
        <pt x="540" y="58" on="1"/>
        <pt x="540" y="23" on="0"/>
        <pt x="518" y="0" on="0"/>
        <pt x="485" y="0" on="1"/>
        <pt x="380" y="0" on="1"/>
        <pt x="380" y="335" on="1"/>
        <pt x="271" y="335" on="1"/>
        <pt x="271" y="430" on="1"/>
        <pt x="380" y="430" on="1"/>
      </contour>
      <contour>
        <pt x="189" y="915" on="0"/>
        <pt x="257" y="983" on="0"/>
        <pt x="353" y="983" on="0"/>
        <pt x="420" y="915" on="0"/>
        <pt x="420" y="820" on="0"/>
        <pt x="353" y="751" on="0"/>
        <pt x="257" y="751" on="0"/>
        <pt x="189" y="820" on="0"/>
      </contour>
      <contour>
        <pt x="358" y="889" on="0"/>
        <pt x="327" y="919" on="0"/>
        <pt x="284" y="919" on="0"/>
        <pt x="254" y="890" on="0"/>
        <pt x="254" y="846" on="0"/>
        <pt x="284" y="816" on="0"/>
        <pt x="327" y="816" on="0"/>
        <pt x="358" y="846" on="0"/>
      </contour>
    </TTGlyph>
    <TTGlyph name="Atilde" xMin="71" yMin="0" xMax="540" yMax="906">
      <contour>
        <pt x="340" y="628" on="1"/>
        <pt x="247" y="628" on="1"/>
        <pt x="231" y="628" on="0"/>
        <pt x="231" y="620" on="1"/>
        <pt x="231" y="0" on="1"/>
        <pt x="126" y="0" on="1"/>
        <pt x="92" y="0" on="0"/>
        <pt x="71" y="22" on="0"/>
        <pt x="71" y="57" on="1"/>
        <pt x="71" y="666" on="1"/>
        <pt x="71" y="701" on="0"/>
        <pt x="92" y="723" on="0"/>
        <pt x="126" y="723" on="1"/>
        <pt x="340" y="723" on="1"/>
      </contour>
      <contour>
        <pt x="380" y="723" on="1"/>
        <pt x="485" y="723" on="1"/>
        <pt x="519" y="723" on="0"/>
        <pt x="540" y="701" on="0"/>
        <pt x="540" y="666" on="1"/>
        <pt x="540" y="58" on="1"/>
        <pt x="540" y="23" on="0"/>
        <pt x="518" y="0" on="0"/>
        <pt x="485" y="0" on="1"/>
        <pt x="380" y="0" on="1"/>
        <pt x="380" y="335" on="1"/>
        <pt x="271" y="335" on="1"/>
        <pt x="271" y="430" on="1"/>
        <pt x="380" y="430" on="1"/>
      </contour>
      <contour>
        <pt x="412" y="906" on="1"/>
        <pt x="459" y="906" on="1"/>
        <pt x="462" y="903" on="1"/>
        <pt x="462" y="840" on="1"/>
        <pt x="462" y="816" on="0"/>
        <pt x="433" y="788" on="0"/>
        <pt x="406" y="788" on="1"/>
        <pt x="399" y="788" on="1"/>
        <pt x="227" y="813" on="1"/>
        <pt x="222" y="813" on="1"/>
        <pt x="209" y="813" on="0"/>
        <pt x="209" y="798" on="1"/>
        <pt x="209" y="794" on="1"/>
        <pt x="209" y="786" on="0"/>
        <pt x="205" y="786" on="1"/>
        <pt x="152" y="786" on="1"/>
        <pt x="149" y="792" on="1"/>
        <pt x="149" y="854" on="1"/>
        <pt x="149" y="876" on="0"/>
        <pt x="178" y="906" on="0"/>
        <pt x="204" y="906" on="1"/>
        <pt x="212" y="906" on="1"/>
        <pt x="384" y="879" on="1"/>
        <pt x="388" y="878" on="1"/>
        <pt x="402" y="878" on="0"/>
        <pt x="402" y="897" on="1"/>
        <pt x="402" y="900" on="1"/>
        <pt x="402" y="906" on="0"/>
      </contour>
    </TTGlyph>
    <TTGlyph name="B" xMin="71" yMin="0" xMax="556" yMax="723">
      <contour>
        <pt x="340" y="628" on="1"/>
        <pt x="247" y="628" on="1"/>
        <pt x="231" y="628" on="0"/>
        <pt x="231" y="620" on="1"/>
        <pt x="231" y="0" on="1"/>
        <pt x="126" y="0" on="1"/>
        <pt x="92" y="0" on="0"/>
        <pt x="71" y="21" on="0"/>
        <pt x="71" y="55" on="1"/>
        <pt x="71" y="666" on="1"/>
        <pt x="71" y="701" on="0"/>
        <pt x="92" y="723" on="0"/>
        <pt x="126" y="723" on="1"/>
        <pt x="340" y="723" on="1"/>
      </contour>
      <contour>
        <pt x="396" y="314" on="1"/>
        <pt x="491" y="314" on="1"/>
        <pt x="532" y="314" on="0"/>
        <pt x="556" y="277" on="0"/>
        <pt x="556" y="237" on="1"/>
        <pt x="556" y="89" on="1"/>
        <pt x="556" y="23" on="0"/>
        <pt x="521" y="8" on="1"/>
        <pt x="504" y="0" on="0"/>
        <pt x="478" y="0" on="1"/>
        <pt x="271" y="0" on="1"/>
        <pt x="271" y="94" on="1"/>
        <pt x="355" y="94" on="1"/>
        <pt x="396" y="94" on="0"/>
        <pt x="396" y="123" on="1"/>
      </contour>
      <contour>
        <pt x="383" y="723" on="1"/>
        <pt x="478" y="723" on="1"/>
        <pt x="518" y="723" on="0"/>
        <pt x="541" y="687" on="0"/>
        <pt x="541" y="646" on="1"/>
        <pt x="541" y="454" on="1"/>
        <pt x="541" y="396" on="0"/>
        <pt x="500" y="344" on="0"/>
        <pt x="435" y="344" on="1"/>
        <pt x="271" y="344" on="1"/>
        <pt x="271" y="439" on="1"/>
        <pt x="345" y="439" on="1"/>
        <pt x="370" y="439" on="0"/>
        <pt x="383" y="463" on="0"/>
        <pt x="383" y="488" on="1"/>
      </contour>
    </TTGlyph>
    <TTGlyph name="C" xMin="63" yMin="0" xMax="558" yMax="723">
      <contour>
        <pt x="243" y="0" on="1"/>
        <pt x="231" y="0" on="1"/>
        <pt x="191" y="0" on="0"/>
        <pt x="138" y="12" on="0"/>
        <pt x="99" y="49" on="0"/>
        <pt x="78" y="95" on="0"/>
        <pt x="72" y="141" on="1"/>
        <pt x="63" y="210" on="0"/>
        <pt x="63" y="443" on="0"/>
        <pt x="66" y="539" on="0"/>
        <pt x="78" y="630" on="0"/>
        <pt x="99" y="675" on="0"/>
        <pt x="138" y="712" on="0"/>
        <pt x="191" y="723" on="0"/>
        <pt x="231" y="723" on="1"/>
        <pt x="243" y="723" on="1"/>
      </contour>
      <contour>
        <pt x="283" y="723" on="1"/>
        <pt x="410" y="723" on="1"/>
        <pt x="483" y="723" on="0"/>
        <pt x="558" y="673" on="0"/>
        <pt x="558" y="611" on="1"/>
        <pt x="558" y="521" on="1"/>
        <pt x="558" y="500" on="0"/>
        <pt x="544" y="500" on="1"/>
        <pt x="418" y="500" on="1"/>
        <pt x="404" y="500" on="0"/>
        <pt x="398" y="508" on="0"/>
        <pt x="398" y="521" on="1"/>
        <pt x="398" y="599" on="1"/>
        <pt x="398" y="615" on="0"/>
        <pt x="389" y="628" on="0"/>
        <pt x="371" y="628" on="1"/>
        <pt x="283" y="628" on="1"/>
      </contour>
      <contour>
        <pt x="418" y="223" on="1"/>
        <pt x="544" y="223" on="1"/>
        <pt x="558" y="223" on="0"/>
        <pt x="558" y="202" on="1"/>
        <pt x="558" y="112" on="1"/>
        <pt x="558" y="50" on="0"/>
        <pt x="483" y="0" on="0"/>
        <pt x="410" y="0" on="1"/>
        <pt x="283" y="0" on="1"/>
        <pt x="283" y="95" on="1"/>
        <pt x="371" y="95" on="1"/>
        <pt x="389" y="95" on="0"/>
        <pt x="398" y="108" on="0"/>
        <pt x="398" y="124" on="1"/>
        <pt x="398" y="202" on="1"/>
        <pt x="398" y="215" on="0"/>
        <pt x="404" y="223" on="0"/>
      </contour>
    </TTGlyph>
    <TTGlyph name="Ccedilla" xMin="63" yMin="-183" xMax="558" yMax="723">
      <contour>
        <pt x="243" y="0" on="1"/>
        <pt x="231" y="0" on="1"/>
        <pt x="191" y="0" on="0"/>
        <pt x="138" y="12" on="0"/>
        <pt x="99" y="49" on="0"/>
        <pt x="78" y="95" on="0"/>
        <pt x="72" y="141" on="1"/>
        <pt x="63" y="210" on="0"/>
        <pt x="63" y="443" on="0"/>
        <pt x="66" y="539" on="0"/>
        <pt x="78" y="630" on="0"/>
        <pt x="99" y="675" on="0"/>
        <pt x="138" y="712" on="0"/>
        <pt x="191" y="723" on="0"/>
        <pt x="231" y="723" on="1"/>
        <pt x="243" y="723" on="1"/>
      </contour>
      <contour>
        <pt x="283" y="723" on="1"/>
        <pt x="410" y="723" on="1"/>
        <pt x="483" y="723" on="0"/>
        <pt x="558" y="673" on="0"/>
        <pt x="558" y="611" on="1"/>
        <pt x="558" y="521" on="1"/>
        <pt x="558" y="500" on="0"/>
        <pt x="544" y="500" on="1"/>
        <pt x="418" y="500" on="1"/>
        <pt x="404" y="500" on="0"/>
        <pt x="398" y="508" on="0"/>
        <pt x="398" y="521" on="1"/>
        <pt x="398" y="599" on="1"/>
        <pt x="398" y="615" on="0"/>
        <pt x="389" y="628" on="0"/>
        <pt x="371" y="628" on="1"/>
        <pt x="283" y="628" on="1"/>
      </contour>
      <contour>
        <pt x="418" y="223" on="1"/>
        <pt x="544" y="223" on="1"/>
        <pt x="558" y="223" on="0"/>
        <pt x="558" y="202" on="1"/>
        <pt x="558" y="112" on="1"/>
        <pt x="558" y="50" on="0"/>
        <pt x="483" y="0" on="0"/>
        <pt x="410" y="0" on="1"/>
        <pt x="283" y="0" on="1"/>
        <pt x="283" y="95" on="1"/>
        <pt x="371" y="95" on="1"/>
        <pt x="389" y="95" on="0"/>
        <pt x="398" y="108" on="0"/>
        <pt x="398" y="124" on="1"/>
        <pt x="398" y="202" on="1"/>
        <pt x="398" y="215" on="0"/>
        <pt x="404" y="223" on="0"/>
      </contour>
      <contour>
        <pt x="244" y="-79" on="1"/>
        <pt x="285" y="-80" on="1"/>
        <pt x="298" y="-80" on="0"/>
        <pt x="302" y="-79" on="1"/>
        <pt x="314" y="-76" on="0"/>
        <pt x="314" y="-51" on="1"/>
        <pt x="314" y="33" on="1"/>
        <pt x="389" y="33" on="1"/>
        <pt x="389" y="-103" on="1"/>
        <pt x="389" y="-151" on="0"/>
        <pt x="354" y="-183" on="0"/>
        <pt x="293" y="-183" on="1"/>
        <pt x="233" y="-183" on="1"/>
        <pt x="233" y="-89" on="1"/>
        <pt x="233" y="-82" on="0"/>
        <pt x="236" y="-79" on="0"/>
      </contour>
    </TTGlyph>
    <TTGlyph name="D" xMin="71" yMin="-1" xMax="548" yMax="723">
      <contour>
        <pt x="546" y="363" on="1"/>
        <pt x="547" y="194" on="1"/>
        <pt x="547" y="75" on="0"/>
        <pt x="487" y="0" on="0"/>
        <pt x="408" y="0" on="1"/>
        <pt x="261" y="0" on="1"/>
        <pt x="261" y="95" on="1"/>
        <pt x="335" y="95" on="1"/>
        <pt x="360" y="95" on="0"/>
        <pt x="376" y="107" on="0"/>
        <pt x="376" y="124" on="1"/>
        <pt x="376" y="598" on="1"/>
        <pt x="376" y="616" on="0"/>
        <pt x="360" y="628" on="0"/>
        <pt x="335" y="628" on="1"/>
        <pt x="261" y="628" on="1"/>
        <pt x="261" y="723" on="1"/>
        <pt x="418" y="723" on="1"/>
        <pt x="491" y="723" on="0"/>
        <pt x="548" y="656" on="0"/>
        <pt x="548" y="559" on="1"/>
      </contour>
      <contour>
        <pt x="231" y="-1" on="1"/>
        <pt x="126" y="-1" on="1"/>
        <pt x="93" y="-1" on="0"/>
        <pt x="71" y="22" on="0"/>
        <pt x="71" y="56" on="1"/>
        <pt x="71" y="666" on="1"/>
        <pt x="71" y="700" on="0"/>
        <pt x="93" y="723" on="0"/>
        <pt x="126" y="723" on="1"/>
        <pt x="231" y="723" on="1"/>
      </contour>
    </TTGlyph>
    <TTGlyph name="E" xMin="71" yMin="0" xMax="540" yMax="723">
      <contour>
        <pt x="231" y="0" on="1"/>
        <pt x="126" y="0" on="1"/>
        <pt x="92" y="0" on="0"/>
        <pt x="71" y="22" on="0"/>
        <pt x="71" y="57" on="1"/>
        <pt x="71" y="666" on="1"/>
        <pt x="71" y="701" on="0"/>
        <pt x="92" y="723" on="0"/>
        <pt x="126" y="723" on="1"/>
        <pt x="231" y="723" on="1"/>
      </contour>
      <contour>
        <pt x="540" y="140" on="1"/>
        <pt x="540" y="55" on="1"/>
        <pt x="540" y="21" on="0"/>
        <pt x="518" y="0" on="0"/>
        <pt x="483" y="0" on="1"/>
        <pt x="271" y="0" on="1"/>
        <pt x="271" y="140" on="1"/>
      </contour>
      <contour>
        <pt x="480" y="435" on="1"/>
        <pt x="480" y="375" on="1"/>
        <pt x="480" y="339" on="0"/>
        <pt x="466" y="320" on="0"/>
        <pt x="433" y="320" on="1"/>
        <pt x="271" y="320" on="1"/>
        <pt x="271" y="435" on="1"/>
      </contour>
      <contour>
        <pt x="530" y="723" on="1"/>
        <pt x="530" y="638" on="1"/>
        <pt x="530" y="604" on="0"/>
        <pt x="508" y="583" on="0"/>
        <pt x="473" y="583" on="1"/>
        <pt x="271" y="583" on="1"/>
        <pt x="271" y="723" on="1"/>
      </contour>
    </TTGlyph>
    <TTGlyph name="Eacute" xMin="71" yMin="0" xMax="540" yMax="946">
      <contour>
        <pt x="231" y="0" on="1"/>
        <pt x="126" y="0" on="1"/>
        <pt x="92" y="0" on="0"/>
        <pt x="71" y="22" on="0"/>
        <pt x="71" y="57" on="1"/>
        <pt x="71" y="666" on="1"/>
        <pt x="71" y="701" on="0"/>
        <pt x="92" y="723" on="0"/>
        <pt x="126" y="723" on="1"/>
        <pt x="231" y="723" on="1"/>
      </contour>
      <contour>
        <pt x="540" y="140" on="1"/>
        <pt x="540" y="55" on="1"/>
        <pt x="540" y="21" on="0"/>
        <pt x="518" y="0" on="0"/>
        <pt x="483" y="0" on="1"/>
        <pt x="271" y="0" on="1"/>
        <pt x="271" y="140" on="1"/>
      </contour>
      <contour>
        <pt x="480" y="435" on="1"/>
        <pt x="480" y="375" on="1"/>
        <pt x="480" y="339" on="0"/>
        <pt x="466" y="320" on="0"/>
        <pt x="433" y="320" on="1"/>
        <pt x="271" y="320" on="1"/>
        <pt x="271" y="435" on="1"/>
      </contour>
      <contour>
        <pt x="530" y="723" on="1"/>
        <pt x="530" y="638" on="1"/>
        <pt x="530" y="604" on="0"/>
        <pt x="508" y="583" on="0"/>
        <pt x="473" y="583" on="1"/>
        <pt x="271" y="583" on="1"/>
        <pt x="271" y="723" on="1"/>
      </contour>
      <contour>
        <pt x="278" y="753" on="1"/>
        <pt x="278" y="889" on="1"/>
        <pt x="278" y="934" on="0"/>
        <pt x="288" y="946" on="0"/>
        <pt x="326" y="946" on="1"/>
        <pt x="442" y="946" on="1"/>
        <pt x="350" y="753" on="1"/>
      </contour>
    </TTGlyph>
    <TTGlyph name="Ecircumflex" xMin="71" yMin="0" xMax="540" yMax="936">
      <contour>
        <pt x="231" y="0" on="1"/>
        <pt x="126" y="0" on="1"/>
        <pt x="92" y="0" on="0"/>
        <pt x="71" y="22" on="0"/>
        <pt x="71" y="57" on="1"/>
        <pt x="71" y="666" on="1"/>
        <pt x="71" y="701" on="0"/>
        <pt x="92" y="723" on="0"/>
        <pt x="126" y="723" on="1"/>
        <pt x="231" y="723" on="1"/>
      </contour>
      <contour>
        <pt x="540" y="140" on="1"/>
        <pt x="540" y="55" on="1"/>
        <pt x="540" y="21" on="0"/>
        <pt x="518" y="0" on="0"/>
        <pt x="483" y="0" on="1"/>
        <pt x="271" y="0" on="1"/>
        <pt x="271" y="140" on="1"/>
      </contour>
      <contour>
        <pt x="480" y="435" on="1"/>
        <pt x="480" y="375" on="1"/>
        <pt x="480" y="339" on="0"/>
        <pt x="466" y="320" on="0"/>
        <pt x="433" y="320" on="1"/>
        <pt x="271" y="320" on="1"/>
        <pt x="271" y="435" on="1"/>
      </contour>
      <contour>
        <pt x="530" y="723" on="1"/>
        <pt x="530" y="638" on="1"/>
        <pt x="530" y="604" on="0"/>
        <pt x="508" y="583" on="0"/>
        <pt x="473" y="583" on="1"/>
        <pt x="271" y="583" on="1"/>
        <pt x="271" y="723" on="1"/>
      </contour>
      <contour>
        <pt x="262" y="936" on="1"/>
        <pt x="370" y="936" on="1"/>
        <pt x="380" y="936" on="0"/>
        <pt x="390" y="934" on="0"/>
        <pt x="398" y="933" on="0"/>
        <pt x="405" y="924" on="0"/>
        <pt x="408" y="918" on="0"/>
        <pt x="418" y="897" on="0"/>
        <pt x="422" y="889" on="1"/>
        <pt x="486" y="763" on="1"/>
        <pt x="375" y="763" on="1"/>
        <pt x="318" y="883" on="1"/>
        <pt x="261" y="763" on="1"/>
        <pt x="149" y="763" on="1"/>
        <pt x="225" y="904" on="1"/>
        <pt x="239" y="931" on="0"/>
        <pt x="244" y="933" on="1"/>
        <pt x="250" y="936" on="0"/>
      </contour>
    </TTGlyph>
    <TTGlyph name="Edieresis" xMin="71" yMin="0" xMax="540" yMax="922">
      <contour>
        <pt x="231" y="0" on="1"/>
        <pt x="126" y="0" on="1"/>
        <pt x="92" y="0" on="0"/>
        <pt x="71" y="22" on="0"/>
        <pt x="71" y="57" on="1"/>
        <pt x="71" y="666" on="1"/>
        <pt x="71" y="701" on="0"/>
        <pt x="92" y="723" on="0"/>
        <pt x="126" y="723" on="1"/>
        <pt x="231" y="723" on="1"/>
      </contour>
      <contour>
        <pt x="540" y="140" on="1"/>
        <pt x="540" y="55" on="1"/>
        <pt x="540" y="21" on="0"/>
        <pt x="518" y="0" on="0"/>
        <pt x="483" y="0" on="1"/>
        <pt x="271" y="0" on="1"/>
        <pt x="271" y="140" on="1"/>
      </contour>
      <contour>
        <pt x="480" y="435" on="1"/>
        <pt x="480" y="375" on="1"/>
        <pt x="480" y="339" on="0"/>
        <pt x="466" y="320" on="0"/>
        <pt x="433" y="320" on="1"/>
        <pt x="271" y="320" on="1"/>
        <pt x="271" y="435" on="1"/>
      </contour>
      <contour>
        <pt x="530" y="723" on="1"/>
        <pt x="530" y="638" on="1"/>
        <pt x="530" y="604" on="0"/>
        <pt x="508" y="583" on="0"/>
        <pt x="473" y="583" on="1"/>
        <pt x="271" y="583" on="1"/>
        <pt x="271" y="723" on="1"/>
      </contour>
      <contour>
        <pt x="379" y="922" on="1"/>
        <pt x="496" y="922" on="1"/>
        <pt x="507" y="920" on="0"/>
        <pt x="507" y="904" on="1"/>
        <pt x="507" y="901" on="0"/>
        <pt x="507" y="900" on="1"/>
        <pt x="507" y="795" on="1"/>
        <pt x="507" y="789" on="0"/>
        <pt x="503" y="785" on="0"/>
        <pt x="496" y="784" on="1"/>
        <pt x="379" y="784" on="1"/>
        <pt x="372" y="785" on="0"/>
        <pt x="368" y="789" on="0"/>
        <pt x="368" y="795" on="1"/>
        <pt x="368" y="913" on="1"/>
        <pt x="368" y="915" on="0"/>
        <pt x="370" y="917" on="0"/>
        <pt x="371" y="918" on="1"/>
        <pt x="373" y="922" on="0"/>
      </contour>
      <contour>
        <pt x="269" y="900" on="1"/>
        <pt x="269" y="809" on="1"/>
        <pt x="269" y="806" on="0"/>
        <pt x="269" y="794" on="0"/>
        <pt x="268" y="791" on="1"/>
        <pt x="267" y="784" on="0"/>
        <pt x="258" y="784" on="1"/>
        <pt x="140" y="784" on="1"/>
        <pt x="130" y="785" on="0"/>
        <pt x="130" y="795" on="1"/>
        <pt x="130" y="909" on="1"/>
        <pt x="130" y="920" on="0"/>
        <pt x="140" y="922" on="1"/>
        <pt x="258" y="922" on="1"/>
        <pt x="269" y="920" on="0"/>
        <pt x="269" y="903" on="1"/>
        <pt x="269" y="901" on="0"/>
      </contour>
    </TTGlyph>
    <TTGlyph name="Egrave" xMin="71" yMin="0" xMax="540" yMax="946">
      <contour>
        <pt x="231" y="0" on="1"/>
        <pt x="126" y="0" on="1"/>
        <pt x="92" y="0" on="0"/>
        <pt x="71" y="22" on="0"/>
        <pt x="71" y="57" on="1"/>
        <pt x="71" y="666" on="1"/>
        <pt x="71" y="701" on="0"/>
        <pt x="92" y="723" on="0"/>
        <pt x="126" y="723" on="1"/>
        <pt x="231" y="723" on="1"/>
      </contour>
      <contour>
        <pt x="540" y="140" on="1"/>
        <pt x="540" y="55" on="1"/>
        <pt x="540" y="21" on="0"/>
        <pt x="518" y="0" on="0"/>
        <pt x="483" y="0" on="1"/>
        <pt x="271" y="0" on="1"/>
        <pt x="271" y="140" on="1"/>
      </contour>
      <contour>
        <pt x="480" y="435" on="1"/>
        <pt x="480" y="375" on="1"/>
        <pt x="480" y="339" on="0"/>
        <pt x="466" y="320" on="0"/>
        <pt x="433" y="320" on="1"/>
        <pt x="271" y="320" on="1"/>
        <pt x="271" y="435" on="1"/>
      </contour>
      <contour>
        <pt x="530" y="723" on="1"/>
        <pt x="530" y="638" on="1"/>
        <pt x="530" y="604" on="0"/>
        <pt x="508" y="583" on="0"/>
        <pt x="473" y="583" on="1"/>
        <pt x="271" y="583" on="1"/>
        <pt x="271" y="723" on="1"/>
      </contour>
      <contour>
        <pt x="307" y="946" on="1"/>
        <pt x="345" y="946" on="0"/>
        <pt x="355" y="934" on="0"/>
        <pt x="355" y="889" on="1"/>
        <pt x="355" y="753" on="1"/>
        <pt x="283" y="753" on="1"/>
        <pt x="191" y="946" on="1"/>
      </contour>
    </TTGlyph>
    <TTGlyph name="Eth" xMin="10" yMin="-1" xMax="554" yMax="723">
      <contour>
        <pt x="343" y="309" on="1"/>
        <pt x="10" y="309" on="1"/>
        <pt x="10" y="403" on="1"/>
        <pt x="343" y="403" on="1"/>
      </contour>
      <contour>
        <pt x="552" y="363" on="1"/>
        <pt x="553" y="194" on="1"/>
        <pt x="553" y="75" on="0"/>
        <pt x="493" y="0" on="0"/>
        <pt x="414" y="0" on="1"/>
        <pt x="267" y="0" on="1"/>
        <pt x="267" y="95" on="1"/>
        <pt x="341" y="95" on="1"/>
        <pt x="366" y="95" on="0"/>
        <pt x="382" y="107" on="0"/>
        <pt x="382" y="124" on="1"/>
        <pt x="382" y="598" on="1"/>
        <pt x="382" y="616" on="0"/>
        <pt x="366" y="628" on="0"/>
        <pt x="341" y="628" on="1"/>
        <pt x="267" y="628" on="1"/>
        <pt x="267" y="723" on="1"/>
        <pt x="424" y="723" on="1"/>
        <pt x="497" y="723" on="0"/>
        <pt x="554" y="656" on="0"/>
        <pt x="554" y="559" on="1"/>
      </contour>
      <contour>
        <pt x="237" y="-1" on="1"/>
        <pt x="132" y="-1" on="1"/>
        <pt x="99" y="-1" on="0"/>
        <pt x="77" y="22" on="0"/>
        <pt x="77" y="56" on="1"/>
        <pt x="77" y="666" on="1"/>
        <pt x="77" y="700" on="0"/>
        <pt x="99" y="723" on="0"/>
        <pt x="132" y="723" on="1"/>
        <pt x="237" y="723" on="1"/>
      </contour>
    </TTGlyph>
    <TTGlyph name="Euro" xMin="71" yMin="0" xMax="540" yMax="723">
      <contour>
        <pt x="231" y="0" on="1"/>
        <pt x="126" y="0" on="1"/>
        <pt x="92" y="0" on="0"/>
        <pt x="71" y="22" on="0"/>
        <pt x="71" y="57" on="1"/>
        <pt x="71" y="666" on="1"/>
        <pt x="71" y="701" on="0"/>
        <pt x="92" y="723" on="0"/>
        <pt x="126" y="723" on="1"/>
        <pt x="231" y="723" on="1"/>
      </contour>
      <contour>
        <pt x="540" y="140" on="1"/>
        <pt x="540" y="55" on="1"/>
        <pt x="540" y="21" on="0"/>
        <pt x="518" y="0" on="0"/>
        <pt x="483" y="0" on="1"/>
        <pt x="271" y="0" on="1"/>
        <pt x="271" y="140" on="1"/>
      </contour>
      <contour>
        <pt x="470" y="274" on="1"/>
        <pt x="271" y="274" on="1"/>
        <pt x="271" y="344" on="1"/>
        <pt x="470" y="344" on="1"/>
      </contour>
      <contour>
        <pt x="470" y="384" on="1"/>
        <pt x="271" y="384" on="1"/>
        <pt x="271" y="454" on="1"/>
        <pt x="470" y="454" on="1"/>
      </contour>
      <contour>
        <pt x="530" y="723" on="1"/>
        <pt x="530" y="638" on="1"/>
        <pt x="530" y="604" on="0"/>
        <pt x="508" y="583" on="0"/>
        <pt x="473" y="583" on="1"/>
        <pt x="271" y="583" on="1"/>
        <pt x="271" y="723" on="1"/>
      </contour>
    </TTGlyph>
    <TTGlyph name="F" xMin="71" yMin="0" xMax="520" yMax="723">
      <contour>
        <pt x="231" y="0" on="1"/>
        <pt x="126" y="0" on="1"/>
        <pt x="92" y="0" on="0"/>
        <pt x="71" y="22" on="0"/>
        <pt x="71" y="56" on="1"/>
        <pt x="71" y="665" on="1"/>
        <pt x="71" y="700" on="0"/>
        <pt x="93" y="723" on="0"/>
        <pt x="126" y="723" on="1"/>
        <pt x="231" y="723" on="1"/>
      </contour>
      <contour>
        <pt x="480" y="444" on="1"/>
        <pt x="480" y="384" on="1"/>
        <pt x="480" y="348" on="0"/>
        <pt x="466" y="329" on="0"/>
        <pt x="433" y="329" on="1"/>
        <pt x="271" y="329" on="1"/>
        <pt x="271" y="444" on="1"/>
      </contour>
      <contour>
        <pt x="520" y="723" on="1"/>
        <pt x="520" y="637" on="1"/>
        <pt x="520" y="603" on="0"/>
        <pt x="498" y="582" on="0"/>
        <pt x="463" y="582" on="1"/>
        <pt x="271" y="582" on="1"/>
        <pt x="271" y="723" on="1"/>
      </contour>
    </TTGlyph>
    <TTGlyph name="G" xMin="63" yMin="0" xMax="558" yMax="723">
      <contour>
        <pt x="243" y="723" on="1"/>
        <pt x="243" y="124" on="1"/>
        <pt x="243" y="109" on="0"/>
        <pt x="258" y="95" on="0"/>
        <pt x="284" y="95" on="1"/>
        <pt x="358" y="95" on="1"/>
        <pt x="358" y="0" on="1"/>
        <pt x="231" y="0" on="1"/>
        <pt x="191" y="0" on="0"/>
        <pt x="138" y="12" on="0"/>
        <pt x="99" y="49" on="0"/>
        <pt x="78" y="95" on="0"/>
        <pt x="72" y="141" on="1"/>
        <pt x="63" y="210" on="0"/>
        <pt x="63" y="443" on="0"/>
        <pt x="66" y="539" on="0"/>
        <pt x="78" y="630" on="0"/>
        <pt x="99" y="675" on="0"/>
        <pt x="138" y="712" on="0"/>
        <pt x="191" y="723" on="0"/>
        <pt x="231" y="723" on="1"/>
      </contour>
      <contour>
        <pt x="283" y="394" on="1"/>
        <pt x="459" y="394" on="1"/>
        <pt x="557" y="394" on="0"/>
        <pt x="557" y="304" on="1"/>
        <pt x="557" y="96" on="1"/>
        <pt x="557" y="34" on="0"/>
        <pt x="538" y="0" on="0"/>
        <pt x="493" y="0" on="1"/>
        <pt x="398" y="0" on="1"/>
        <pt x="398" y="270" on="1"/>
        <pt x="398" y="286" on="0"/>
        <pt x="389" y="299" on="0"/>
        <pt x="371" y="299" on="1"/>
        <pt x="283" y="299" on="1"/>
      </contour>
      <contour>
        <pt x="283" y="723" on="1"/>
        <pt x="410" y="723" on="1"/>
        <pt x="483" y="723" on="0"/>
        <pt x="558" y="673" on="0"/>
        <pt x="558" y="611" on="1"/>
        <pt x="558" y="521" on="1"/>
        <pt x="558" y="500" on="0"/>
        <pt x="544" y="500" on="1"/>
        <pt x="418" y="500" on="1"/>
        <pt x="404" y="500" on="0"/>
        <pt x="398" y="508" on="0"/>
        <pt x="398" y="521" on="1"/>
        <pt x="398" y="599" on="1"/>
        <pt x="398" y="615" on="0"/>
        <pt x="389" y="628" on="0"/>
        <pt x="371" y="628" on="1"/>
        <pt x="283" y="628" on="1"/>
      </contour>
    </TTGlyph>
    <TTGlyph name="H" xMin="71" yMin="0" xMax="541" yMax="723">
      <contour>
        <pt x="341" y="335" on="1"/>
        <pt x="231" y="335" on="1"/>
        <pt x="231" y="0" on="1"/>
        <pt x="126" y="0" on="1"/>
        <pt x="92" y="0" on="0"/>
        <pt x="71" y="22" on="0"/>
        <pt x="71" y="57" on="1"/>
        <pt x="71" y="723" on="1"/>
        <pt x="195" y="723" on="1"/>
        <pt x="211" y="723" on="0"/>
        <pt x="231" y="701" on="0"/>
        <pt x="231" y="683" on="1"/>
        <pt x="231" y="430" on="1"/>
        <pt x="341" y="430" on="1"/>
      </contour>
      <contour>
        <pt x="381" y="723" on="1"/>
        <pt x="486" y="723" on="1"/>
        <pt x="520" y="723" on="0"/>
        <pt x="541" y="701" on="0"/>
        <pt x="541" y="666" on="1"/>
        <pt x="541" y="0" on="1"/>
        <pt x="417" y="0" on="1"/>
        <pt x="401" y="0" on="0"/>
        <pt x="381" y="22" on="0"/>
        <pt x="381" y="40" on="1"/>
      </contour>
    </TTGlyph>
    <TTGlyph name="I" xMin="71" yMin="0" xMax="231" yMax="723">
      <contour>
        <pt x="231" y="0" on="1"/>
        <pt x="126" y="0" on="1"/>
        <pt x="92" y="0" on="0"/>
        <pt x="71" y="22" on="0"/>
        <pt x="71" y="57" on="1"/>
        <pt x="71" y="666" on="1"/>
        <pt x="71" y="701" on="0"/>
        <pt x="92" y="723" on="0"/>
        <pt x="126" y="723" on="1"/>
        <pt x="231" y="723" on="1"/>
      </contour>
    </TTGlyph>
    <TTGlyph name="IJ" xMin="64" yMin="-223" xMax="489" yMax="723">
      <contour>
        <pt x="329" y="723" on="1"/>
        <pt x="434" y="723" on="1"/>
        <pt x="468" y="723" on="0"/>
        <pt x="489" y="701" on="0"/>
        <pt x="489" y="666" on="1"/>
        <pt x="489" y="-166" on="1"/>
        <pt x="489" y="-201" on="0"/>
        <pt x="468" y="-223" on="0"/>
        <pt x="434" y="-223" on="1"/>
        <pt x="329" y="-223" on="1"/>
      </contour>
      <contour>
        <pt x="98" y="-51" on="1"/>
        <pt x="204" y="-51" on="1"/>
        <pt x="218" y="-51" on="0"/>
        <pt x="224" y="-59" on="0"/>
        <pt x="224" y="-72" on="1"/>
        <pt x="224" y="-99" on="1"/>
        <pt x="224" y="-115" on="0"/>
        <pt x="233" y="-128" on="0"/>
        <pt x="251" y="-128" on="1"/>
        <pt x="299" y="-128" on="1"/>
        <pt x="299" y="-223" on="1"/>
        <pt x="212" y="-223" on="1"/>
        <pt x="139" y="-223" on="0"/>
        <pt x="64" y="-176" on="0"/>
        <pt x="64" y="-121" on="1"/>
        <pt x="64" y="-82" on="1"/>
        <pt x="64" y="-63" on="0"/>
        <pt x="78" y="-51" on="0"/>
      </contour>
      <contour>
        <pt x="231" y="0" on="1"/>
        <pt x="126" y="0" on="1"/>
        <pt x="92" y="0" on="0"/>
        <pt x="71" y="22" on="0"/>
        <pt x="71" y="57" on="1"/>
        <pt x="71" y="666" on="1"/>
        <pt x="71" y="701" on="0"/>
        <pt x="92" y="723" on="0"/>
        <pt x="126" y="723" on="1"/>
        <pt x="231" y="723" on="1"/>
      </contour>
    </TTGlyph>
    <TTGlyph name="Iacute" xMin="71" yMin="0" xMax="275" yMax="946">
      <contour>
        <pt x="231" y="0" on="1"/>
        <pt x="126" y="0" on="1"/>
        <pt x="92" y="0" on="0"/>
        <pt x="71" y="22" on="0"/>
        <pt x="71" y="57" on="1"/>
        <pt x="71" y="666" on="1"/>
        <pt x="71" y="701" on="0"/>
        <pt x="92" y="723" on="0"/>
        <pt x="126" y="723" on="1"/>
        <pt x="231" y="723" on="1"/>
      </contour>
      <contour>
        <pt x="111" y="753" on="1"/>
        <pt x="111" y="889" on="1"/>
        <pt x="111" y="934" on="0"/>
        <pt x="121" y="946" on="0"/>
        <pt x="159" y="946" on="1"/>
        <pt x="275" y="946" on="1"/>
        <pt x="183" y="753" on="1"/>
      </contour>
    </TTGlyph>
    <TTGlyph name="Icircumflex" xMin="-18" yMin="0" xMax="319" yMax="936">
      <contour>
        <pt x="231" y="0" on="1"/>
        <pt x="126" y="0" on="1"/>
        <pt x="92" y="0" on="0"/>
        <pt x="71" y="22" on="0"/>
        <pt x="71" y="57" on="1"/>
        <pt x="71" y="666" on="1"/>
        <pt x="71" y="701" on="0"/>
        <pt x="92" y="723" on="0"/>
        <pt x="126" y="723" on="1"/>
        <pt x="231" y="723" on="1"/>
      </contour>
      <contour>
        <pt x="95" y="936" on="1"/>
        <pt x="203" y="936" on="1"/>
        <pt x="213" y="936" on="0"/>
        <pt x="223" y="934" on="0"/>
        <pt x="231" y="933" on="0"/>
        <pt x="238" y="924" on="0"/>
        <pt x="241" y="918" on="0"/>
        <pt x="251" y="897" on="0"/>
        <pt x="255" y="889" on="1"/>
        <pt x="319" y="763" on="1"/>
        <pt x="208" y="763" on="1"/>
        <pt x="151" y="883" on="1"/>
        <pt x="94" y="763" on="1"/>
        <pt x="-18" y="763" on="1"/>
        <pt x="58" y="904" on="1"/>
        <pt x="72" y="931" on="0"/>
        <pt x="77" y="933" on="1"/>
        <pt x="83" y="936" on="0"/>
      </contour>
    </TTGlyph>
    <TTGlyph name="Idieresis" xMin="-10" yMin="0" xMax="318" yMax="922">
      <contour>
        <pt x="189" y="922" on="1"/>
        <pt x="306" y="922" on="1"/>
        <pt x="317" y="920" on="0"/>
        <pt x="317" y="904" on="1"/>
        <pt x="317" y="901" on="0"/>
        <pt x="317" y="900" on="1"/>
        <pt x="317" y="795" on="1"/>
        <pt x="317" y="789" on="0"/>
        <pt x="313" y="785" on="0"/>
        <pt x="306" y="784" on="1"/>
        <pt x="189" y="784" on="1"/>
        <pt x="182" y="785" on="0"/>
        <pt x="178" y="789" on="0"/>
        <pt x="178" y="795" on="1"/>
        <pt x="178" y="913" on="1"/>
        <pt x="178" y="915" on="0"/>
        <pt x="180" y="917" on="0"/>
        <pt x="181" y="918" on="1"/>
        <pt x="183" y="922" on="0"/>
      </contour>
      <contour>
        <pt x="129" y="900" on="1"/>
        <pt x="129" y="809" on="1"/>
        <pt x="129" y="806" on="0"/>
        <pt x="129" y="794" on="0"/>
        <pt x="128" y="791" on="1"/>
        <pt x="127" y="784" on="0"/>
        <pt x="118" y="784" on="1"/>
        <pt x="0" y="784" on="1"/>
        <pt x="-10" y="785" on="0"/>
        <pt x="-10" y="795" on="1"/>
        <pt x="-10" y="909" on="1"/>
        <pt x="-10" y="920" on="0"/>
        <pt x="0" y="922" on="1"/>
        <pt x="118" y="922" on="1"/>
        <pt x="129" y="920" on="0"/>
        <pt x="129" y="903" on="1"/>
        <pt x="129" y="901" on="0"/>
      </contour>
      <contour>
        <pt x="231" y="0" on="1"/>
        <pt x="126" y="0" on="1"/>
        <pt x="92" y="0" on="0"/>
        <pt x="71" y="22" on="0"/>
        <pt x="71" y="57" on="1"/>
        <pt x="71" y="666" on="1"/>
        <pt x="71" y="701" on="0"/>
        <pt x="92" y="723" on="0"/>
        <pt x="126" y="723" on="1"/>
        <pt x="231" y="723" on="1"/>
      </contour>
    </TTGlyph>
    <TTGlyph name="Igrave" xMin="24" yMin="0" xMax="231" yMax="946">
      <contour>
        <pt x="231" y="0" on="1"/>
        <pt x="126" y="0" on="1"/>
        <pt x="92" y="0" on="0"/>
        <pt x="71" y="22" on="0"/>
        <pt x="71" y="57" on="1"/>
        <pt x="71" y="666" on="1"/>
        <pt x="71" y="701" on="0"/>
        <pt x="92" y="723" on="0"/>
        <pt x="126" y="723" on="1"/>
        <pt x="231" y="723" on="1"/>
      </contour>
      <contour>
        <pt x="140" y="946" on="1"/>
        <pt x="178" y="946" on="0"/>
        <pt x="188" y="934" on="0"/>
        <pt x="188" y="889" on="1"/>
        <pt x="188" y="753" on="1"/>
        <pt x="116" y="753" on="1"/>
        <pt x="24" y="946" on="1"/>
      </contour>
    </TTGlyph>
    <TTGlyph name="J" xMin="19" yMin="0" xMax="404" yMax="723">
      <contour>
        <pt x="244" y="723" on="1"/>
        <pt x="349" y="723" on="1"/>
        <pt x="383" y="723" on="0"/>
        <pt x="404" y="701" on="0"/>
        <pt x="404" y="666" on="1"/>
        <pt x="404" y="57" on="1"/>
        <pt x="404" y="22" on="0"/>
        <pt x="383" y="0" on="0"/>
        <pt x="349" y="0" on="1"/>
        <pt x="244" y="0" on="1"/>
      </contour>
      <contour>
        <pt x="33" y="223" on="1"/>
        <pt x="159" y="223" on="1"/>
        <pt x="173" y="223" on="0"/>
        <pt x="179" y="215" on="0"/>
        <pt x="179" y="202" on="1"/>
        <pt x="179" y="124" on="1"/>
        <pt x="179" y="108" on="0"/>
        <pt x="188" y="95" on="0"/>
        <pt x="206" y="95" on="1"/>
        <pt x="214" y="95" on="1"/>
        <pt x="214" y="0" on="1"/>
        <pt x="167" y="0" on="1"/>
        <pt x="94" y="0" on="0"/>
        <pt x="19" y="50" on="0"/>
        <pt x="19" y="112" on="1"/>
        <pt x="19" y="202" on="1"/>
        <pt x="19" y="223" on="0"/>
      </contour>
    </TTGlyph>
    <TTGlyph name="K" xMin="71" yMin="0" xMax="509" yMax="723">
      <contour>
        <pt x="71" y="723" on="1"/>
        <pt x="176" y="723" on="1"/>
        <pt x="210" y="723" on="0"/>
        <pt x="231" y="701" on="0"/>
        <pt x="231" y="666" on="1"/>
        <pt x="231" y="0" on="1"/>
        <pt x="126" y="0" on="1"/>
        <pt x="92" y="0" on="0"/>
        <pt x="71" y="22" on="0"/>
        <pt x="71" y="57" on="1"/>
      </contour>
      <contour>
        <pt x="339" y="299" on="1"/>
        <pt x="453" y="299" on="1"/>
        <pt x="483" y="299" on="0"/>
        <pt x="509" y="266" on="0"/>
        <pt x="509" y="229" on="1"/>
        <pt x="509" y="0" on="1"/>
        <pt x="375" y="0" on="1"/>
        <pt x="359" y="0" on="0"/>
        <pt x="339" y="22" on="0"/>
        <pt x="339" y="40" on="1"/>
      </contour>
      <contour>
        <pt x="342" y="723" on="1"/>
        <pt x="457" y="723" on="1"/>
        <pt x="486" y="723" on="0"/>
        <pt x="502" y="701" on="0"/>
        <pt x="502" y="666" on="1"/>
        <pt x="502" y="454" on="1"/>
        <pt x="502" y="394" on="0"/>
        <pt x="459" y="335" on="0"/>
        <pt x="394" y="335" on="1"/>
        <pt x="271" y="335" on="1"/>
        <pt x="271" y="430" on="1"/>
        <pt x="315" y="430" on="1"/>
        <pt x="333" y="430" on="0"/>
        <pt x="342" y="443" on="0"/>
        <pt x="342" y="459" on="1"/>
      </contour>
    </TTGlyph>
    <TTGlyph name="L" xMin="71" yMin="0" xMax="536" yMax="723">
      <contour>
        <pt x="385" y="218" on="1"/>
        <pt x="525" y="218" on="1"/>
        <pt x="536" y="218" on="0"/>
        <pt x="536" y="204" on="1"/>
        <pt x="536" y="28" on="1"/>
        <pt x="536" y="0" on="0"/>
        <pt x="508" y="0" on="1"/>
        <pt x="266" y="0" on="1"/>
        <pt x="266" y="95" on="1"/>
        <pt x="359" y="95" on="1"/>
        <pt x="375" y="95" on="0"/>
        <pt x="376" y="102" on="0"/>
        <pt x="376" y="107" on="1"/>
        <pt x="376" y="207" on="1"/>
        <pt x="376" y="215" on="0"/>
        <pt x="380" y="218" on="0"/>
      </contour>
      <contour>
        <pt x="231" y="0" on="1"/>
        <pt x="126" y="0" on="1"/>
        <pt x="92" y="0" on="0"/>
        <pt x="71" y="22" on="0"/>
        <pt x="71" y="57" on="1"/>
        <pt x="71" y="666" on="1"/>
        <pt x="71" y="701" on="0"/>
        <pt x="92" y="723" on="0"/>
        <pt x="126" y="723" on="1"/>
        <pt x="231" y="723" on="1"/>
      </contour>
    </TTGlyph>
    <TTGlyph name="Ldot" xMin="71" yMin="0" xMax="536" yMax="723">
      <contour>
        <pt x="385" y="218" on="1"/>
        <pt x="525" y="218" on="1"/>
        <pt x="536" y="218" on="0"/>
        <pt x="536" y="204" on="1"/>
        <pt x="536" y="28" on="1"/>
        <pt x="536" y="0" on="0"/>
        <pt x="508" y="0" on="1"/>
        <pt x="266" y="0" on="1"/>
        <pt x="266" y="95" on="1"/>
        <pt x="359" y="95" on="1"/>
        <pt x="375" y="95" on="0"/>
        <pt x="376" y="102" on="0"/>
        <pt x="376" y="107" on="1"/>
        <pt x="376" y="207" on="1"/>
        <pt x="376" y="215" on="0"/>
        <pt x="380" y="218" on="0"/>
      </contour>
      <contour>
        <pt x="532" y="299" on="1"/>
        <pt x="532" y="287" on="0"/>
        <pt x="518" y="287" on="1"/>
        <pt x="454" y="287" on="0"/>
        <pt x="382" y="287" on="0"/>
        <pt x="377" y="291" on="0"/>
        <pt x="376" y="299" on="1"/>
        <pt x="376" y="431" on="1"/>
        <pt x="377" y="440" on="0"/>
        <pt x="382" y="444" on="0"/>
        <pt x="390" y="444" on="1"/>
        <pt x="455" y="444" on="0"/>
        <pt x="523" y="444" on="0"/>
        <pt x="524" y="444" on="1"/>
        <pt x="529" y="441" on="0"/>
        <pt x="530" y="438" on="0"/>
        <pt x="532" y="434" on="0"/>
        <pt x="532" y="431" on="1"/>
      </contour>
      <contour>
        <pt x="231" y="0" on="1"/>
        <pt x="126" y="0" on="1"/>
        <pt x="92" y="0" on="0"/>
        <pt x="71" y="22" on="0"/>
        <pt x="71" y="57" on="1"/>
        <pt x="71" y="666" on="1"/>
        <pt x="71" y="701" on="0"/>
        <pt x="92" y="723" on="0"/>
        <pt x="126" y="723" on="1"/>
        <pt x="231" y="723" on="1"/>
      </contour>
    </TTGlyph>
    <TTGlyph name="Lslash" xMin="22" yMin="0" xMax="610" yMax="723">
      <contour>
        <pt x="459" y="218" on="1"/>
        <pt x="599" y="218" on="1"/>
        <pt x="610" y="218" on="0"/>
        <pt x="610" y="204" on="1"/>
        <pt x="610" y="28" on="1"/>
        <pt x="610" y="0" on="0"/>
        <pt x="582" y="0" on="1"/>
        <pt x="340" y="0" on="1"/>
        <pt x="340" y="95" on="1"/>
        <pt x="433" y="95" on="1"/>
        <pt x="449" y="95" on="0"/>
        <pt x="450" y="102" on="0"/>
        <pt x="450" y="107" on="1"/>
        <pt x="450" y="207" on="1"/>
        <pt x="450" y="215" on="0"/>
        <pt x="454" y="218" on="0"/>
      </contour>
      <contour>
        <pt x="113" y="199" on="1"/>
        <pt x="22" y="100" on="1"/>
        <pt x="22" y="228" on="1"/>
        <pt x="113" y="333" on="1"/>
      </contour>
      <contour>
        <pt x="417" y="445" on="1"/>
        <pt x="326" y="353" on="1"/>
        <pt x="326" y="481" on="1"/>
        <pt x="417" y="579" on="1"/>
      </contour>
      <contour>
        <pt x="305" y="0" on="1"/>
        <pt x="200" y="0" on="1"/>
        <pt x="166" y="0" on="0"/>
        <pt x="145" y="22" on="0"/>
        <pt x="145" y="57" on="1"/>
        <pt x="145" y="666" on="1"/>
        <pt x="145" y="701" on="0"/>
        <pt x="166" y="723" on="0"/>
        <pt x="200" y="723" on="1"/>
        <pt x="305" y="723" on="1"/>
      </contour>
    </TTGlyph>
    <TTGlyph name="M" xMin="71" yMin="0" xMax="892" yMax="723">
      <contour>
        <pt x="594" y="723" on="1"/>
        <pt x="744" y="723" on="1"/>
        <pt x="817" y="723" on="0"/>
        <pt x="892" y="673" on="0"/>
        <pt x="892" y="611" on="1"/>
        <pt x="892" y="57" on="1"/>
        <pt x="892" y="22" on="0"/>
        <pt x="871" y="0" on="0"/>
        <pt x="837" y="0" on="1"/>
        <pt x="732" y="0" on="1"/>
        <pt x="732" y="599" on="1"/>
        <pt x="732" y="615" on="0"/>
        <pt x="723" y="628" on="0"/>
        <pt x="705" y="628" on="1"/>
        <pt x="594" y="628" on="1"/>
      </contour>
      <contour>
        <pt x="231" y="0" on="1"/>
        <pt x="126" y="0" on="1"/>
        <pt x="92" y="0" on="0"/>
        <pt x="71" y="22" on="0"/>
        <pt x="71" y="57" on="1"/>
        <pt x="71" y="683" on="1"/>
        <pt x="71" y="701" on="0"/>
        <pt x="91" y="723" on="0"/>
        <pt x="107" y="723" on="1"/>
        <pt x="231" y="723" on="1"/>
      </contour>
      <contour>
        <pt x="272" y="723" on="1"/>
        <pt x="528" y="723" on="1"/>
        <pt x="544" y="723" on="0"/>
        <pt x="564" y="701" on="0"/>
        <pt x="564" y="683" on="1"/>
        <pt x="564" y="73" on="1"/>
        <pt x="460" y="73" on="1"/>
        <pt x="430" y="73" on="0"/>
        <pt x="404" y="106" on="0"/>
        <pt x="404" y="143" on="1"/>
        <pt x="404" y="599" on="1"/>
        <pt x="404" y="615" on="0"/>
        <pt x="395" y="628" on="0"/>
        <pt x="377" y="628" on="1"/>
        <pt x="272" y="628" on="1"/>
      </contour>
    </TTGlyph>
    <TTGlyph name="N" xMin="72" yMin="0" xMax="620" yMax="723">
      <contour>
        <pt x="620" y="723" on="1"/>
        <pt x="620" y="57" on="1"/>
        <pt x="620" y="22" on="0"/>
        <pt x="599" y="0" on="0"/>
        <pt x="565" y="0" on="1"/>
        <pt x="423" y="0" on="1"/>
        <pt x="364" y="0" on="0"/>
        <pt x="327" y="36" on="0"/>
        <pt x="313" y="111" on="1"/>
        <pt x="285" y="259" on="0"/>
        <pt x="232" y="589" on="1"/>
        <pt x="228" y="614" on="0"/>
        <pt x="213" y="628" on="0"/>
        <pt x="195" y="629" on="1"/>
        <pt x="72" y="629" on="1"/>
        <pt x="72" y="723" on="1"/>
        <pt x="289" y="723" on="1"/>
        <pt x="314" y="723" on="0"/>
        <pt x="344" y="711" on="0"/>
        <pt x="363" y="672" on="0"/>
        <pt x="370" y="636" on="0"/>
        <pt x="374" y="612" on="1"/>
        <pt x="379" y="583" on="0"/>
        <pt x="388" y="527" on="1"/>
        <pt x="405" y="414" on="0"/>
        <pt x="441" y="208" on="1"/>
        <pt x="455" y="120" on="0"/>
        <pt x="466" y="99" on="0"/>
        <pt x="480" y="97" on="1"/>
        <pt x="480" y="683" on="1"/>
        <pt x="480" y="701" on="0"/>
        <pt x="500" y="723" on="0"/>
        <pt x="516" y="723" on="1"/>
      </contour>
      <contour>
        <pt x="72" y="594" on="1"/>
        <pt x="176" y="594" on="1"/>
        <pt x="192" y="594" on="0"/>
        <pt x="212" y="572" on="0"/>
        <pt x="212" y="554" on="1"/>
        <pt x="212" y="57" on="1"/>
        <pt x="212" y="23" on="0"/>
        <pt x="194" y="0" on="0"/>
        <pt x="167" y="0" on="1"/>
        <pt x="72" y="0" on="1"/>
      </contour>
    </TTGlyph>
    <TTGlyph name="Ntilde" xMin="72" yMin="0" xMax="620" yMax="906">
      <contour>
        <pt x="620" y="723" on="1"/>
        <pt x="620" y="57" on="1"/>
        <pt x="620" y="22" on="0"/>
        <pt x="599" y="0" on="0"/>
        <pt x="565" y="0" on="1"/>
        <pt x="423" y="0" on="1"/>
        <pt x="364" y="0" on="0"/>
        <pt x="327" y="36" on="0"/>
        <pt x="313" y="111" on="1"/>
        <pt x="285" y="259" on="0"/>
        <pt x="232" y="589" on="1"/>
        <pt x="228" y="614" on="0"/>
        <pt x="213" y="628" on="0"/>
        <pt x="195" y="629" on="1"/>
        <pt x="72" y="629" on="1"/>
        <pt x="72" y="723" on="1"/>
        <pt x="289" y="723" on="1"/>
        <pt x="314" y="723" on="0"/>
        <pt x="344" y="711" on="0"/>
        <pt x="363" y="672" on="0"/>
        <pt x="370" y="636" on="0"/>
        <pt x="374" y="612" on="1"/>
        <pt x="379" y="583" on="0"/>
        <pt x="388" y="527" on="1"/>
        <pt x="405" y="414" on="0"/>
        <pt x="441" y="208" on="1"/>
        <pt x="455" y="120" on="0"/>
        <pt x="466" y="99" on="0"/>
        <pt x="480" y="97" on="1"/>
        <pt x="480" y="683" on="1"/>
        <pt x="480" y="701" on="0"/>
        <pt x="500" y="723" on="0"/>
        <pt x="516" y="723" on="1"/>
      </contour>
      <contour>
        <pt x="72" y="594" on="1"/>
        <pt x="176" y="594" on="1"/>
        <pt x="192" y="594" on="0"/>
        <pt x="212" y="572" on="0"/>
        <pt x="212" y="554" on="1"/>
        <pt x="212" y="57" on="1"/>
        <pt x="212" y="23" on="0"/>
        <pt x="194" y="0" on="0"/>
        <pt x="167" y="0" on="1"/>
        <pt x="72" y="0" on="1"/>
      </contour>
      <contour>
        <pt x="462" y="906" on="1"/>
        <pt x="509" y="906" on="1"/>
        <pt x="512" y="903" on="1"/>
        <pt x="512" y="840" on="1"/>
        <pt x="512" y="816" on="0"/>
        <pt x="483" y="788" on="0"/>
        <pt x="456" y="788" on="1"/>
        <pt x="449" y="788" on="1"/>
        <pt x="277" y="813" on="1"/>
        <pt x="272" y="813" on="1"/>
        <pt x="259" y="813" on="0"/>
        <pt x="259" y="798" on="1"/>
        <pt x="259" y="794" on="1"/>
        <pt x="259" y="786" on="0"/>
        <pt x="255" y="786" on="1"/>
        <pt x="202" y="786" on="1"/>
        <pt x="199" y="792" on="1"/>
        <pt x="199" y="854" on="1"/>
        <pt x="199" y="876" on="0"/>
        <pt x="228" y="906" on="0"/>
        <pt x="254" y="906" on="1"/>
        <pt x="262" y="906" on="1"/>
        <pt x="434" y="879" on="1"/>
        <pt x="435" y="879" on="0"/>
        <pt x="438" y="878" on="1"/>
        <pt x="452" y="878" on="0"/>
        <pt x="452" y="897" on="1"/>
        <pt x="452" y="900" on="1"/>
        <pt x="452" y="906" on="0"/>
      </contour>
    </TTGlyph>
    <TTGlyph name="O" xMin="63" yMin="-1" xMax="578" yMax="723">
      <contour>
        <pt x="243" y="723" on="1"/>
        <pt x="243" y="124" on="1"/>
        <pt x="243" y="109" on="0"/>
        <pt x="258" y="95" on="0"/>
        <pt x="284" y="95" on="1"/>
        <pt x="358" y="95" on="1"/>
        <pt x="358" y="0" on="1"/>
        <pt x="231" y="0" on="1"/>
        <pt x="191" y="0" on="0"/>
        <pt x="138" y="12" on="0"/>
        <pt x="99" y="49" on="0"/>
        <pt x="78" y="95" on="0"/>
        <pt x="72" y="141" on="1"/>
        <pt x="63" y="210" on="0"/>
        <pt x="63" y="443" on="0"/>
        <pt x="66" y="539" on="0"/>
        <pt x="78" y="630" on="0"/>
        <pt x="99" y="675" on="0"/>
        <pt x="138" y="712" on="0"/>
        <pt x="191" y="723" on="0"/>
        <pt x="231" y="723" on="1"/>
      </contour>
      <contour>
        <pt x="283" y="722" on="1"/>
        <pt x="410" y="722" on="1"/>
        <pt x="450" y="722" on="0"/>
        <pt x="503" y="710" on="0"/>
        <pt x="542" y="673" on="0"/>
        <pt x="563" y="627" on="0"/>
        <pt x="569" y="581" on="1"/>
        <pt x="578" y="512" on="0"/>
        <pt x="578" y="279" on="0"/>
        <pt x="575" y="183" on="0"/>
        <pt x="563" y="92" on="0"/>
        <pt x="542" y="47" on="0"/>
        <pt x="503" y="10" on="0"/>
        <pt x="450" y="-1" on="0"/>
        <pt x="410" y="-1" on="1"/>
        <pt x="398" y="-1" on="1"/>
        <pt x="398" y="598" on="1"/>
        <pt x="398" y="613" on="0"/>
        <pt x="383" y="627" on="0"/>
        <pt x="357" y="627" on="1"/>
        <pt x="283" y="627" on="1"/>
      </contour>
    </TTGlyph>
    <TTGlyph name="OE" xMin="63" yMin="-1" xMax="878" yMax="723">
      <contour>
        <pt x="283" y="722" on="1"/>
        <pt x="519" y="722" on="1"/>
        <pt x="544" y="722" on="0"/>
        <pt x="570" y="698" on="0"/>
        <pt x="570" y="667" on="1"/>
        <pt x="570" y="76" on="0"/>
        <pt x="562" y="36" on="1"/>
        <pt x="557" y="5" on="0"/>
        <pt x="524" y="0" on="1"/>
        <pt x="513" y="-1" on="0"/>
        <pt x="499" y="-1" on="1"/>
        <pt x="448" y="-1" on="0"/>
        <pt x="398" y="-1" on="1"/>
        <pt x="398" y="598" on="1"/>
        <pt x="398" y="613" on="0"/>
        <pt x="383" y="627" on="0"/>
        <pt x="357" y="627" on="1"/>
        <pt x="283" y="627" on="1"/>
      </contour>
      <contour>
        <pt x="243" y="723" on="1"/>
        <pt x="243" y="124" on="1"/>
        <pt x="243" y="109" on="0"/>
        <pt x="258" y="95" on="0"/>
        <pt x="284" y="95" on="1"/>
        <pt x="358" y="95" on="1"/>
        <pt x="358" y="0" on="1"/>
        <pt x="231" y="0" on="1"/>
        <pt x="191" y="0" on="0"/>
        <pt x="138" y="12" on="0"/>
        <pt x="99" y="49" on="0"/>
        <pt x="78" y="95" on="0"/>
        <pt x="72" y="141" on="1"/>
        <pt x="63" y="210" on="0"/>
        <pt x="63" y="443" on="0"/>
        <pt x="66" y="539" on="0"/>
        <pt x="78" y="630" on="0"/>
        <pt x="99" y="675" on="0"/>
        <pt x="138" y="712" on="0"/>
        <pt x="191" y="723" on="0"/>
        <pt x="231" y="723" on="1"/>
      </contour>
      <contour>
        <pt x="878" y="140" on="1"/>
        <pt x="878" y="55" on="1"/>
        <pt x="879" y="22" on="0"/>
        <pt x="855" y="0" on="0"/>
        <pt x="821" y="0" on="1"/>
        <pt x="609" y="0" on="1"/>
        <pt x="609" y="140" on="1"/>
      </contour>
      <contour>
        <pt x="868" y="723" on="1"/>
        <pt x="868" y="638" on="1"/>
        <pt x="868" y="604" on="0"/>
        <pt x="846" y="583" on="0"/>
        <pt x="811" y="583" on="1"/>
        <pt x="609" y="583" on="1"/>
        <pt x="609" y="723" on="1"/>
      </contour>
      <contour>
        <pt x="818" y="435" on="1"/>
        <pt x="818" y="375" on="1"/>
        <pt x="818" y="339" on="0"/>
        <pt x="804" y="320" on="0"/>
        <pt x="771" y="320" on="1"/>
        <pt x="609" y="320" on="1"/>
        <pt x="609" y="435" on="1"/>
      </contour>
    </TTGlyph>
    <TTGlyph name="Oacute" xMin="63" yMin="-1" xMax="578" yMax="946">
      <contour>
        <pt x="243" y="723" on="1"/>
        <pt x="243" y="124" on="1"/>
        <pt x="243" y="109" on="0"/>
        <pt x="258" y="95" on="0"/>
        <pt x="284" y="95" on="1"/>
        <pt x="358" y="95" on="1"/>
        <pt x="358" y="0" on="1"/>
        <pt x="231" y="0" on="1"/>
        <pt x="191" y="0" on="0"/>
        <pt x="138" y="12" on="0"/>
        <pt x="99" y="49" on="0"/>
        <pt x="78" y="95" on="0"/>
        <pt x="72" y="141" on="1"/>
        <pt x="63" y="210" on="0"/>
        <pt x="63" y="443" on="0"/>
        <pt x="66" y="539" on="0"/>
        <pt x="78" y="630" on="0"/>
        <pt x="99" y="675" on="0"/>
        <pt x="138" y="712" on="0"/>
        <pt x="191" y="723" on="0"/>
        <pt x="231" y="723" on="1"/>
      </contour>
      <contour>
        <pt x="283" y="722" on="1"/>
        <pt x="410" y="722" on="1"/>
        <pt x="450" y="722" on="0"/>
        <pt x="503" y="710" on="0"/>
        <pt x="542" y="673" on="0"/>
        <pt x="563" y="627" on="0"/>
        <pt x="569" y="581" on="1"/>
        <pt x="578" y="512" on="0"/>
        <pt x="578" y="279" on="0"/>
        <pt x="575" y="183" on="0"/>
        <pt x="563" y="92" on="0"/>
        <pt x="542" y="47" on="0"/>
        <pt x="503" y="10" on="0"/>
        <pt x="450" y="-1" on="0"/>
        <pt x="410" y="-1" on="1"/>
        <pt x="398" y="-1" on="1"/>
        <pt x="398" y="598" on="1"/>
        <pt x="398" y="613" on="0"/>
        <pt x="383" y="627" on="0"/>
        <pt x="357" y="627" on="1"/>
        <pt x="283" y="627" on="1"/>
      </contour>
      <contour>
        <pt x="284" y="753" on="1"/>
        <pt x="284" y="889" on="1"/>
        <pt x="284" y="934" on="0"/>
        <pt x="294" y="946" on="0"/>
        <pt x="332" y="946" on="1"/>
        <pt x="448" y="946" on="1"/>
        <pt x="356" y="753" on="1"/>
      </contour>
    </TTGlyph>
    <TTGlyph name="Ocircumflex" xMin="63" yMin="-1" xMax="578" yMax="936">
      <contour>
        <pt x="243" y="723" on="1"/>
        <pt x="243" y="124" on="1"/>
        <pt x="243" y="109" on="0"/>
        <pt x="258" y="95" on="0"/>
        <pt x="284" y="95" on="1"/>
        <pt x="358" y="95" on="1"/>
        <pt x="358" y="0" on="1"/>
        <pt x="231" y="0" on="1"/>
        <pt x="191" y="0" on="0"/>
        <pt x="138" y="12" on="0"/>
        <pt x="99" y="49" on="0"/>
        <pt x="78" y="95" on="0"/>
        <pt x="72" y="141" on="1"/>
        <pt x="63" y="210" on="0"/>
        <pt x="63" y="443" on="0"/>
        <pt x="66" y="539" on="0"/>
        <pt x="78" y="630" on="0"/>
        <pt x="99" y="675" on="0"/>
        <pt x="138" y="712" on="0"/>
        <pt x="191" y="723" on="0"/>
        <pt x="231" y="723" on="1"/>
      </contour>
      <contour>
        <pt x="283" y="722" on="1"/>
        <pt x="410" y="722" on="1"/>
        <pt x="450" y="722" on="0"/>
        <pt x="503" y="710" on="0"/>
        <pt x="542" y="673" on="0"/>
        <pt x="563" y="627" on="0"/>
        <pt x="569" y="581" on="1"/>
        <pt x="578" y="512" on="0"/>
        <pt x="578" y="279" on="0"/>
        <pt x="575" y="183" on="0"/>
        <pt x="563" y="92" on="0"/>
        <pt x="542" y="47" on="0"/>
        <pt x="503" y="10" on="0"/>
        <pt x="450" y="-1" on="0"/>
        <pt x="410" y="-1" on="1"/>
        <pt x="398" y="-1" on="1"/>
        <pt x="398" y="598" on="1"/>
        <pt x="398" y="613" on="0"/>
        <pt x="383" y="627" on="0"/>
        <pt x="357" y="627" on="1"/>
        <pt x="283" y="627" on="1"/>
      </contour>
      <contour>
        <pt x="268" y="936" on="1"/>
        <pt x="376" y="936" on="1"/>
        <pt x="386" y="936" on="0"/>
        <pt x="396" y="934" on="0"/>
        <pt x="404" y="933" on="0"/>
        <pt x="411" y="924" on="0"/>
        <pt x="414" y="918" on="0"/>
        <pt x="424" y="897" on="0"/>
        <pt x="428" y="889" on="1"/>
        <pt x="492" y="763" on="1"/>
        <pt x="381" y="763" on="1"/>
        <pt x="324" y="883" on="1"/>
        <pt x="267" y="763" on="1"/>
        <pt x="155" y="763" on="1"/>
        <pt x="231" y="904" on="1"/>
        <pt x="245" y="931" on="0"/>
        <pt x="250" y="933" on="1"/>
        <pt x="256" y="936" on="0"/>
      </contour>
    </TTGlyph>
    <TTGlyph name="Odieresis" xMin="63" yMin="-1" xMax="578" yMax="922">
      <contour>
        <pt x="243" y="723" on="1"/>
        <pt x="243" y="124" on="1"/>
        <pt x="243" y="109" on="0"/>
        <pt x="258" y="95" on="0"/>
        <pt x="284" y="95" on="1"/>
        <pt x="358" y="95" on="1"/>
        <pt x="358" y="0" on="1"/>
        <pt x="231" y="0" on="1"/>
        <pt x="191" y="0" on="0"/>
        <pt x="138" y="12" on="0"/>
        <pt x="99" y="49" on="0"/>
        <pt x="78" y="95" on="0"/>
        <pt x="72" y="141" on="1"/>
        <pt x="63" y="210" on="0"/>
        <pt x="63" y="443" on="0"/>
        <pt x="66" y="539" on="0"/>
        <pt x="78" y="630" on="0"/>
        <pt x="99" y="675" on="0"/>
        <pt x="138" y="712" on="0"/>
        <pt x="191" y="723" on="0"/>
        <pt x="231" y="723" on="1"/>
      </contour>
      <contour>
        <pt x="283" y="722" on="1"/>
        <pt x="410" y="722" on="1"/>
        <pt x="450" y="722" on="0"/>
        <pt x="503" y="710" on="0"/>
        <pt x="542" y="673" on="0"/>
        <pt x="563" y="627" on="0"/>
        <pt x="569" y="581" on="1"/>
        <pt x="578" y="512" on="0"/>
        <pt x="578" y="279" on="0"/>
        <pt x="575" y="183" on="0"/>
        <pt x="563" y="92" on="0"/>
        <pt x="542" y="47" on="0"/>
        <pt x="503" y="10" on="0"/>
        <pt x="450" y="-1" on="0"/>
        <pt x="410" y="-1" on="1"/>
        <pt x="398" y="-1" on="1"/>
        <pt x="398" y="598" on="1"/>
        <pt x="398" y="613" on="0"/>
        <pt x="383" y="627" on="0"/>
        <pt x="357" y="627" on="1"/>
        <pt x="283" y="627" on="1"/>
      </contour>
      <contour>
        <pt x="385" y="922" on="1"/>
        <pt x="502" y="922" on="1"/>
        <pt x="513" y="920" on="0"/>
        <pt x="513" y="904" on="1"/>
        <pt x="513" y="901" on="0"/>
        <pt x="513" y="900" on="1"/>
        <pt x="513" y="795" on="1"/>
        <pt x="513" y="789" on="0"/>
        <pt x="509" y="785" on="0"/>
        <pt x="502" y="784" on="1"/>
        <pt x="385" y="784" on="1"/>
        <pt x="378" y="785" on="0"/>
        <pt x="374" y="789" on="0"/>
        <pt x="374" y="795" on="1"/>
        <pt x="374" y="913" on="1"/>
        <pt x="374" y="915" on="0"/>
        <pt x="376" y="917" on="0"/>
        <pt x="377" y="918" on="1"/>
        <pt x="379" y="922" on="0"/>
      </contour>
      <contour>
        <pt x="275" y="900" on="1"/>
        <pt x="275" y="809" on="1"/>
        <pt x="275" y="806" on="0"/>
        <pt x="275" y="794" on="0"/>
        <pt x="274" y="791" on="1"/>
        <pt x="273" y="784" on="0"/>
        <pt x="264" y="784" on="1"/>
        <pt x="146" y="784" on="1"/>
        <pt x="136" y="785" on="0"/>
        <pt x="136" y="795" on="1"/>
        <pt x="136" y="909" on="1"/>
        <pt x="136" y="920" on="0"/>
        <pt x="146" y="922" on="1"/>
        <pt x="264" y="922" on="1"/>
        <pt x="275" y="920" on="0"/>
        <pt x="275" y="903" on="1"/>
        <pt x="275" y="901" on="0"/>
      </contour>
    </TTGlyph>
    <TTGlyph name="Ograve" xMin="63" yMin="-1" xMax="578" yMax="946">
      <contour>
        <pt x="243" y="723" on="1"/>
        <pt x="243" y="124" on="1"/>
        <pt x="243" y="109" on="0"/>
        <pt x="258" y="95" on="0"/>
        <pt x="284" y="95" on="1"/>
        <pt x="358" y="95" on="1"/>
        <pt x="358" y="0" on="1"/>
        <pt x="231" y="0" on="1"/>
        <pt x="191" y="0" on="0"/>
        <pt x="138" y="12" on="0"/>
        <pt x="99" y="49" on="0"/>
        <pt x="78" y="95" on="0"/>
        <pt x="72" y="141" on="1"/>
        <pt x="63" y="210" on="0"/>
        <pt x="63" y="443" on="0"/>
        <pt x="66" y="539" on="0"/>
        <pt x="78" y="630" on="0"/>
        <pt x="99" y="675" on="0"/>
        <pt x="138" y="712" on="0"/>
        <pt x="191" y="723" on="0"/>
        <pt x="231" y="723" on="1"/>
      </contour>
      <contour>
        <pt x="283" y="722" on="1"/>
        <pt x="410" y="722" on="1"/>
        <pt x="450" y="722" on="0"/>
        <pt x="503" y="710" on="0"/>
        <pt x="542" y="673" on="0"/>
        <pt x="563" y="627" on="0"/>
        <pt x="569" y="581" on="1"/>
        <pt x="578" y="512" on="0"/>
        <pt x="578" y="279" on="0"/>
        <pt x="575" y="183" on="0"/>
        <pt x="563" y="92" on="0"/>
        <pt x="542" y="47" on="0"/>
        <pt x="503" y="10" on="0"/>
        <pt x="450" y="-1" on="0"/>
        <pt x="410" y="-1" on="1"/>
        <pt x="398" y="-1" on="1"/>
        <pt x="398" y="598" on="1"/>
        <pt x="398" y="613" on="0"/>
        <pt x="383" y="627" on="0"/>
        <pt x="357" y="627" on="1"/>
        <pt x="283" y="627" on="1"/>
      </contour>
      <contour>
        <pt x="313" y="946" on="1"/>
        <pt x="351" y="946" on="0"/>
        <pt x="361" y="934" on="0"/>
        <pt x="361" y="889" on="1"/>
        <pt x="361" y="753" on="1"/>
        <pt x="289" y="753" on="1"/>
        <pt x="197" y="946" on="1"/>
      </contour>
    </TTGlyph>
    <TTGlyph name="Oslash" xMin="12" yMin="-223" xMax="608" yMax="893">
      <contour>
        <pt x="358" y="390" on="1"/>
        <pt x="92" y="-223" on="1"/>
        <pt x="12" y="-223" on="1"/>
        <pt x="358" y="559" on="1"/>
      </contour>
      <contour>
        <pt x="413" y="470" on="1"/>
        <pt x="608" y="893" on="1"/>
        <pt x="528" y="893" on="1"/>
        <pt x="400" y="612" on="1"/>
        <pt x="400" y="477" on="1"/>
      </contour>
      <contour>
        <pt x="244" y="724" on="1"/>
        <pt x="244" y="125" on="1"/>
        <pt x="244" y="110" on="0"/>
        <pt x="259" y="96" on="0"/>
        <pt x="285" y="96" on="1"/>
        <pt x="359" y="96" on="1"/>
        <pt x="359" y="1" on="1"/>
        <pt x="232" y="1" on="1"/>
        <pt x="192" y="1" on="0"/>
        <pt x="139" y="13" on="0"/>
        <pt x="100" y="50" on="0"/>
        <pt x="79" y="96" on="0"/>
        <pt x="73" y="142" on="1"/>
        <pt x="64" y="211" on="0"/>
        <pt x="64" y="444" on="0"/>
        <pt x="67" y="540" on="0"/>
        <pt x="79" y="631" on="0"/>
        <pt x="100" y="676" on="0"/>
        <pt x="139" y="713" on="0"/>
        <pt x="192" y="724" on="0"/>
        <pt x="232" y="724" on="1"/>
      </contour>
      <contour>
        <pt x="284" y="723" on="1"/>
        <pt x="411" y="723" on="1"/>
        <pt x="451" y="723" on="0"/>
        <pt x="504" y="711" on="0"/>
        <pt x="543" y="674" on="0"/>
        <pt x="564" y="628" on="0"/>
        <pt x="570" y="582" on="1"/>
        <pt x="579" y="513" on="0"/>
        <pt x="579" y="280" on="0"/>
        <pt x="576" y="184" on="0"/>
        <pt x="564" y="93" on="0"/>
        <pt x="543" y="48" on="0"/>
        <pt x="504" y="11" on="0"/>
        <pt x="451" y="0" on="0"/>
        <pt x="411" y="0" on="1"/>
        <pt x="399" y="0" on="1"/>
        <pt x="399" y="599" on="1"/>
        <pt x="399" y="614" on="0"/>
        <pt x="384" y="628" on="0"/>
        <pt x="358" y="628" on="1"/>
        <pt x="284" y="628" on="1"/>
      </contour>
    </TTGlyph>
    <TTGlyph name="Otilde" xMin="63" yMin="-1" xMax="578" yMax="906">
      <contour>
        <pt x="243" y="723" on="1"/>
        <pt x="243" y="124" on="1"/>
        <pt x="243" y="109" on="0"/>
        <pt x="258" y="95" on="0"/>
        <pt x="284" y="95" on="1"/>
        <pt x="358" y="95" on="1"/>
        <pt x="358" y="0" on="1"/>
        <pt x="231" y="0" on="1"/>
        <pt x="191" y="0" on="0"/>
        <pt x="138" y="12" on="0"/>
        <pt x="99" y="49" on="0"/>
        <pt x="78" y="95" on="0"/>
        <pt x="72" y="141" on="1"/>
        <pt x="63" y="210" on="0"/>
        <pt x="63" y="443" on="0"/>
        <pt x="66" y="539" on="0"/>
        <pt x="78" y="630" on="0"/>
        <pt x="99" y="675" on="0"/>
        <pt x="138" y="712" on="0"/>
        <pt x="191" y="723" on="0"/>
        <pt x="231" y="723" on="1"/>
      </contour>
      <contour>
        <pt x="283" y="722" on="1"/>
        <pt x="410" y="722" on="1"/>
        <pt x="450" y="722" on="0"/>
        <pt x="503" y="710" on="0"/>
        <pt x="542" y="673" on="0"/>
        <pt x="563" y="627" on="0"/>
        <pt x="569" y="581" on="1"/>
        <pt x="578" y="512" on="0"/>
        <pt x="578" y="279" on="0"/>
        <pt x="575" y="183" on="0"/>
        <pt x="563" y="92" on="0"/>
        <pt x="542" y="47" on="0"/>
        <pt x="503" y="10" on="0"/>
        <pt x="450" y="-1" on="0"/>
        <pt x="410" y="-1" on="1"/>
        <pt x="398" y="-1" on="1"/>
        <pt x="398" y="598" on="1"/>
        <pt x="398" y="613" on="0"/>
        <pt x="383" y="627" on="0"/>
        <pt x="357" y="627" on="1"/>
        <pt x="283" y="627" on="1"/>
      </contour>
      <contour>
        <pt x="430" y="906" on="1"/>
        <pt x="477" y="906" on="1"/>
        <pt x="480" y="903" on="1"/>
        <pt x="480" y="840" on="1"/>
        <pt x="480" y="816" on="0"/>
        <pt x="451" y="788" on="0"/>
        <pt x="424" y="788" on="1"/>
        <pt x="417" y="788" on="1"/>
        <pt x="245" y="813" on="1"/>
        <pt x="240" y="813" on="1"/>
        <pt x="227" y="813" on="0"/>
        <pt x="227" y="798" on="1"/>
        <pt x="227" y="794" on="1"/>
        <pt x="227" y="786" on="0"/>
        <pt x="223" y="786" on="1"/>
        <pt x="170" y="786" on="1"/>
        <pt x="167" y="792" on="1"/>
        <pt x="167" y="854" on="1"/>
        <pt x="167" y="876" on="0"/>
        <pt x="196" y="906" on="0"/>
        <pt x="222" y="906" on="1"/>
        <pt x="230" y="906" on="1"/>
        <pt x="402" y="879" on="1"/>
        <pt x="406" y="878" on="1"/>
        <pt x="420" y="878" on="0"/>
        <pt x="420" y="897" on="1"/>
        <pt x="420" y="900" on="1"/>
        <pt x="420" y="906" on="0"/>
      </contour>
    </TTGlyph>
    <TTGlyph name="P" xMin="71" yMin="0" xMax="556" yMax="723">
      <contour>
        <pt x="231" y="0" on="1"/>
        <pt x="126" y="0" on="1"/>
        <pt x="92" y="0" on="0"/>
        <pt x="71" y="22" on="0"/>
        <pt x="71" y="57" on="1"/>
        <pt x="71" y="683" on="1"/>
        <pt x="71" y="701" on="0"/>
        <pt x="91" y="723" on="0"/>
        <pt x="107" y="723" on="1"/>
        <pt x="231" y="723" on="1"/>
      </contour>
      <contour>
        <pt x="271" y="723" on="1"/>
        <pt x="398" y="723" on="1"/>
        <pt x="493" y="723" on="0"/>
        <pt x="556" y="634" on="0"/>
        <pt x="556" y="500" on="1"/>
        <pt x="556" y="411" on="0"/>
        <pt x="517" y="311" on="0"/>
        <pt x="453" y="278" on="0"/>
        <pt x="398" y="278" on="1"/>
        <pt x="271" y="278" on="1"/>
        <pt x="271" y="373" on="1"/>
        <pt x="345" y="373" on="1"/>
        <pt x="371" y="373" on="0"/>
        <pt x="386" y="387" on="0"/>
        <pt x="386" y="402" on="1"/>
        <pt x="386" y="598" on="1"/>
        <pt x="386" y="614" on="0"/>
        <pt x="371" y="628" on="0"/>
        <pt x="345" y="628" on="1"/>
        <pt x="271" y="628" on="1"/>
      </contour>
    </TTGlyph>
    <TTGlyph name="Q" xMin="63" yMin="-151" xMax="600" yMax="723">
      <contour>
        <pt x="243" y="723" on="1"/>
        <pt x="243" y="124" on="1"/>
        <pt x="243" y="109" on="0"/>
        <pt x="258" y="95" on="0"/>
        <pt x="284" y="95" on="1"/>
        <pt x="358" y="95" on="1"/>
        <pt x="358" y="0" on="1"/>
        <pt x="231" y="0" on="1"/>
        <pt x="191" y="0" on="0"/>
        <pt x="138" y="12" on="0"/>
        <pt x="99" y="49" on="0"/>
        <pt x="78" y="95" on="0"/>
        <pt x="72" y="141" on="1"/>
        <pt x="63" y="210" on="0"/>
        <pt x="63" y="443" on="0"/>
        <pt x="66" y="539" on="0"/>
        <pt x="78" y="630" on="0"/>
        <pt x="99" y="675" on="0"/>
        <pt x="138" y="712" on="0"/>
        <pt x="191" y="723" on="0"/>
        <pt x="231" y="723" on="1"/>
      </contour>
      <contour>
        <pt x="283" y="722" on="1"/>
        <pt x="410" y="722" on="1"/>
        <pt x="450" y="722" on="0"/>
        <pt x="503" y="710" on="0"/>
        <pt x="542" y="673" on="0"/>
        <pt x="563" y="627" on="0"/>
        <pt x="569" y="581" on="1"/>
        <pt x="578" y="512" on="0"/>
        <pt x="578" y="279" on="0"/>
        <pt x="575" y="183" on="0"/>
        <pt x="563" y="92" on="0"/>
        <pt x="542" y="47" on="0"/>
        <pt x="503" y="10" on="0"/>
        <pt x="450" y="-1" on="0"/>
        <pt x="410" y="-1" on="1"/>
        <pt x="398" y="-1" on="1"/>
        <pt x="398" y="598" on="1"/>
        <pt x="398" y="613" on="0"/>
        <pt x="383" y="627" on="0"/>
        <pt x="357" y="627" on="1"/>
        <pt x="283" y="627" on="1"/>
      </contour>
      <contour>
        <pt x="600" y="-36" on="1"/>
        <pt x="600" y="-121" on="1"/>
        <pt x="600" y="-151" on="0"/>
        <pt x="575" y="-151" on="1"/>
        <pt x="424" y="-151" on="1"/>
        <pt x="399" y="-151" on="0"/>
        <pt x="399" y="-121" on="1"/>
        <pt x="399" y="-36" on="1"/>
      </contour>
    </TTGlyph>
    <TTGlyph name="R" xMin="71" yMin="0" xMax="566" yMax="723">
      <contour>
        <pt x="231" y="0" on="1"/>
        <pt x="126" y="0" on="1"/>
        <pt x="92" y="0" on="0"/>
        <pt x="71" y="22" on="0"/>
        <pt x="71" y="57" on="1"/>
        <pt x="71" y="683" on="1"/>
        <pt x="71" y="701" on="0"/>
        <pt x="91" y="723" on="0"/>
        <pt x="107" y="723" on="1"/>
        <pt x="231" y="723" on="1"/>
      </contour>
      <contour>
        <pt x="271" y="723" on="1"/>
        <pt x="398" y="723" on="1"/>
        <pt x="456" y="723" on="0"/>
        <pt x="523" y="705" on="0"/>
        <pt x="557" y="652" on="0"/>
        <pt x="566" y="587" on="0"/>
        <pt x="566" y="469" on="0"/>
        <pt x="557" y="407" on="0"/>
        <pt x="524" y="353" on="0"/>
        <pt x="455" y="331" on="0"/>
        <pt x="398" y="331" on="1"/>
        <pt x="271" y="331" on="1"/>
        <pt x="271" y="426" on="1"/>
        <pt x="345" y="426" on="1"/>
        <pt x="371" y="426" on="0"/>
        <pt x="386" y="440" on="0"/>
        <pt x="386" y="455" on="1"/>
        <pt x="386" y="598" on="1"/>
        <pt x="386" y="614" on="0"/>
        <pt x="371" y="628" on="0"/>
        <pt x="345" y="628" on="1"/>
        <pt x="271" y="628" on="1"/>
      </contour>
      <contour>
        <pt x="367" y="300" on="1"/>
        <pt x="491" y="300" on="1"/>
        <pt x="521" y="300" on="0"/>
        <pt x="547" y="267" on="0"/>
        <pt x="547" y="230" on="1"/>
        <pt x="547" y="0" on="1"/>
        <pt x="403" y="0" on="1"/>
        <pt x="387" y="0" on="0"/>
        <pt x="367" y="22" on="0"/>
        <pt x="367" y="40" on="1"/>
      </contour>
    </TTGlyph>
    <TTGlyph name="S" xMin="56" yMin="0" xMax="571" yMax="723">
      <contour>
        <pt x="236" y="722" on="1"/>
        <pt x="236" y="435" on="1"/>
        <pt x="236" y="419" on="0"/>
        <pt x="251" y="405" on="0"/>
        <pt x="277" y="405" on="1"/>
        <pt x="351" y="405" on="1"/>
        <pt x="351" y="310" on="1"/>
        <pt x="224" y="310" on="1"/>
        <pt x="167" y="310" on="0"/>
        <pt x="98" y="334" on="0"/>
        <pt x="65" y="395" on="0"/>
        <pt x="56" y="465" on="0"/>
        <pt x="56" y="584" on="0"/>
        <pt x="65" y="646" on="0"/>
        <pt x="98" y="700" on="0"/>
        <pt x="167" y="722" on="0"/>
        <pt x="224" y="722" on="1"/>
      </contour>
      <contour>
        <pt x="391" y="405" on="1"/>
        <pt x="403" y="405" on="1"/>
        <pt x="446" y="405" on="0"/>
        <pt x="493" y="402" on="0"/>
        <pt x="537" y="387" on="0"/>
        <pt x="554" y="367" on="0"/>
        <pt x="569" y="318" on="0"/>
        <pt x="571" y="262" on="0"/>
        <pt x="571" y="158" on="0"/>
        <pt x="569" y="97" on="0"/>
        <pt x="554" y="42" on="0"/>
        <pt x="537" y="20" on="0"/>
        <pt x="493" y="3" on="0"/>
        <pt x="446" y="0" on="0"/>
        <pt x="403" y="0" on="1"/>
        <pt x="391" y="0" on="1"/>
      </contour>
      <contour>
        <pt x="70" y="223" on="1"/>
        <pt x="196" y="223" on="1"/>
        <pt x="210" y="223" on="0"/>
        <pt x="216" y="215" on="0"/>
        <pt x="216" y="202" on="1"/>
        <pt x="216" y="124" on="1"/>
        <pt x="216" y="108" on="0"/>
        <pt x="225" y="95" on="0"/>
        <pt x="243" y="95" on="1"/>
        <pt x="351" y="95" on="1"/>
        <pt x="351" y="0" on="1"/>
        <pt x="204" y="0" on="1"/>
        <pt x="131" y="0" on="0"/>
        <pt x="56" y="50" on="0"/>
        <pt x="56" y="112" on="1"/>
        <pt x="56" y="202" on="1"/>
        <pt x="56" y="223" on="0"/>
      </contour>
      <contour>
        <pt x="276" y="723" on="1"/>
        <pt x="403" y="723" on="1"/>
        <pt x="476" y="723" on="0"/>
        <pt x="551" y="673" on="0"/>
        <pt x="551" y="611" on="1"/>
        <pt x="551" y="521" on="1"/>
        <pt x="551" y="500" on="0"/>
        <pt x="537" y="500" on="1"/>
        <pt x="411" y="500" on="1"/>
        <pt x="397" y="500" on="0"/>
        <pt x="391" y="508" on="0"/>
        <pt x="391" y="521" on="1"/>
        <pt x="391" y="599" on="1"/>
        <pt x="391" y="615" on="0"/>
        <pt x="382" y="628" on="0"/>
        <pt x="364" y="628" on="1"/>
        <pt x="276" y="628" on="1"/>
      </contour>
    </TTGlyph>
    <TTGlyph name="Scaron" xMin="56" yMin="0" xMax="571" yMax="890">
      <contour>
        <pt x="236" y="722" on="1"/>
        <pt x="236" y="435" on="1"/>
        <pt x="236" y="419" on="0"/>
        <pt x="251" y="405" on="0"/>
        <pt x="277" y="405" on="1"/>
        <pt x="351" y="405" on="1"/>
        <pt x="351" y="310" on="1"/>
        <pt x="224" y="310" on="1"/>
        <pt x="167" y="310" on="0"/>
        <pt x="98" y="334" on="0"/>
        <pt x="65" y="395" on="0"/>
        <pt x="56" y="465" on="0"/>
        <pt x="56" y="584" on="0"/>
        <pt x="65" y="646" on="0"/>
        <pt x="98" y="700" on="0"/>
        <pt x="167" y="722" on="0"/>
        <pt x="224" y="722" on="1"/>
      </contour>
      <contour>
        <pt x="391" y="405" on="1"/>
        <pt x="403" y="405" on="1"/>
        <pt x="446" y="405" on="0"/>
        <pt x="493" y="402" on="0"/>
        <pt x="537" y="387" on="0"/>
        <pt x="554" y="367" on="0"/>
        <pt x="569" y="318" on="0"/>
        <pt x="571" y="262" on="0"/>
        <pt x="571" y="158" on="0"/>
        <pt x="569" y="97" on="0"/>
        <pt x="554" y="42" on="0"/>
        <pt x="537" y="20" on="0"/>
        <pt x="493" y="3" on="0"/>
        <pt x="446" y="0" on="0"/>
        <pt x="403" y="0" on="1"/>
        <pt x="391" y="0" on="1"/>
      </contour>
      <contour>
        <pt x="70" y="223" on="1"/>
        <pt x="196" y="223" on="1"/>
        <pt x="210" y="223" on="0"/>
        <pt x="216" y="215" on="0"/>
        <pt x="216" y="202" on="1"/>
        <pt x="216" y="124" on="1"/>
        <pt x="216" y="108" on="0"/>
        <pt x="225" y="95" on="0"/>
        <pt x="243" y="95" on="1"/>
        <pt x="351" y="95" on="1"/>
        <pt x="351" y="0" on="1"/>
        <pt x="204" y="0" on="1"/>
        <pt x="131" y="0" on="0"/>
        <pt x="56" y="50" on="0"/>
        <pt x="56" y="112" on="1"/>
        <pt x="56" y="202" on="1"/>
        <pt x="56" y="223" on="0"/>
      </contour>
      <contour>
        <pt x="276" y="723" on="1"/>
        <pt x="403" y="723" on="1"/>
        <pt x="476" y="723" on="0"/>
        <pt x="551" y="673" on="0"/>
        <pt x="551" y="611" on="1"/>
        <pt x="551" y="521" on="1"/>
        <pt x="551" y="500" on="0"/>
        <pt x="537" y="500" on="1"/>
        <pt x="411" y="500" on="1"/>
        <pt x="397" y="500" on="0"/>
        <pt x="391" y="508" on="0"/>
        <pt x="391" y="521" on="1"/>
        <pt x="391" y="599" on="1"/>
        <pt x="391" y="615" on="0"/>
        <pt x="382" y="628" on="0"/>
        <pt x="364" y="628" on="1"/>
        <pt x="276" y="628" on="1"/>
      </contour>
      <contour>
        <pt x="348" y="741" on="1"/>
        <pt x="284" y="741" on="1"/>
        <pt x="265" y="741" on="0"/>
        <pt x="245" y="753" on="0"/>
        <pt x="232" y="771" on="1"/>
        <pt x="144" y="890" on="1"/>
        <pt x="255" y="890" on="1"/>
        <pt x="316" y="792" on="1"/>
        <pt x="377" y="890" on="1"/>
        <pt x="479" y="890" on="1"/>
        <pt x="411" y="784" on="1"/>
        <pt x="390" y="751" on="0"/>
        <pt x="374" y="741" on="0"/>
      </contour>
    </TTGlyph>
    <TTGlyph name="T" xMin="25" yMin="0" xMax="603" yMax="723">
      <contour>
        <pt x="25" y="723" on="1"/>
        <pt x="338" y="723" on="1"/>
        <pt x="354" y="723" on="0"/>
        <pt x="374" y="701" on="0"/>
        <pt x="374" y="683" on="1"/>
        <pt x="374" y="0" on="1"/>
        <pt x="269" y="0" on="1"/>
        <pt x="235" y="0" on="0"/>
        <pt x="214" y="22" on="0"/>
        <pt x="214" y="57" on="1"/>
        <pt x="214" y="598" on="1"/>
        <pt x="54" y="598" on="1"/>
        <pt x="25" y="598" on="0"/>
        <pt x="25" y="646" on="1"/>
      </contour>
      <contour>
        <pt x="414" y="723" on="1"/>
        <pt x="574" y="723" on="1"/>
        <pt x="603" y="723" on="0"/>
        <pt x="603" y="675" on="1"/>
        <pt x="603" y="598" on="1"/>
        <pt x="414" y="598" on="1"/>
      </contour>
    </TTGlyph>
    <TTGlyph name="Thorn" xMin="71" yMin="0" xMax="556" yMax="723">
      <contour>
        <pt x="231" y="0" on="1"/>
        <pt x="126" y="0" on="1"/>
        <pt x="92" y="0" on="0"/>
        <pt x="71" y="22" on="0"/>
        <pt x="71" y="57" on="1"/>
        <pt x="71" y="683" on="1"/>
        <pt x="71" y="701" on="0"/>
        <pt x="91" y="723" on="0"/>
        <pt x="107" y="723" on="1"/>
        <pt x="231" y="723" on="1"/>
      </contour>
      <contour>
        <pt x="271" y="594" on="1"/>
        <pt x="398" y="594" on="1"/>
        <pt x="493" y="594" on="0"/>
        <pt x="556" y="505" on="0"/>
        <pt x="556" y="371" on="1"/>
        <pt x="556" y="282" on="0"/>
        <pt x="517" y="182" on="0"/>
        <pt x="453" y="149" on="0"/>
        <pt x="398" y="149" on="1"/>
        <pt x="271" y="149" on="1"/>
        <pt x="271" y="244" on="1"/>
        <pt x="345" y="244" on="1"/>
        <pt x="371" y="244" on="0"/>
        <pt x="386" y="258" on="0"/>
        <pt x="386" y="273" on="1"/>
        <pt x="386" y="469" on="1"/>
        <pt x="386" y="485" on="0"/>
        <pt x="371" y="499" on="0"/>
        <pt x="345" y="499" on="1"/>
        <pt x="271" y="499" on="1"/>
      </contour>
    </TTGlyph>
    <TTGlyph name="U" xMin="70" yMin="0" xMax="600" yMax="723">
      <contour>
        <pt x="230" y="723" on="1"/>
        <pt x="230" y="124" on="1"/>
        <pt x="230" y="108" on="0"/>
        <pt x="239" y="95" on="0"/>
        <pt x="257" y="95" on="1"/>
        <pt x="365" y="95" on="1"/>
        <pt x="365" y="0" on="1"/>
        <pt x="218" y="0" on="1"/>
        <pt x="145" y="0" on="0"/>
        <pt x="70" y="50" on="0"/>
        <pt x="70" y="112" on="1"/>
        <pt x="70" y="666" on="1"/>
        <pt x="70" y="701" on="0"/>
        <pt x="91" y="723" on="0"/>
        <pt x="125" y="723" on="1"/>
      </contour>
      <contour>
        <pt x="395" y="723" on="1"/>
        <pt x="500" y="723" on="1"/>
        <pt x="534" y="723" on="0"/>
        <pt x="555" y="701" on="0"/>
        <pt x="555" y="666" on="1"/>
        <pt x="555" y="124" on="1"/>
        <pt x="555" y="108" on="0"/>
        <pt x="564" y="95" on="0"/>
        <pt x="582" y="95" on="1"/>
        <pt x="600" y="95" on="1"/>
        <pt x="600" y="0" on="1"/>
        <pt x="543" y="0" on="1"/>
        <pt x="470" y="0" on="0"/>
        <pt x="395" y="50" on="0"/>
        <pt x="395" y="112" on="1"/>
      </contour>
    </TTGlyph>
    <TTGlyph name="Uacute" xMin="70" yMin="0" xMax="600" yMax="946">
      <contour>
        <pt x="230" y="723" on="1"/>
        <pt x="230" y="124" on="1"/>
        <pt x="230" y="108" on="0"/>
        <pt x="239" y="95" on="0"/>
        <pt x="257" y="95" on="1"/>
        <pt x="365" y="95" on="1"/>
        <pt x="365" y="0" on="1"/>
        <pt x="218" y="0" on="1"/>
        <pt x="145" y="0" on="0"/>
        <pt x="70" y="50" on="0"/>
        <pt x="70" y="112" on="1"/>
        <pt x="70" y="666" on="1"/>
        <pt x="70" y="701" on="0"/>
        <pt x="91" y="723" on="0"/>
        <pt x="125" y="723" on="1"/>
      </contour>
      <contour>
        <pt x="395" y="723" on="1"/>
        <pt x="500" y="723" on="1"/>
        <pt x="534" y="723" on="0"/>
        <pt x="555" y="701" on="0"/>
        <pt x="555" y="666" on="1"/>
        <pt x="555" y="124" on="1"/>
        <pt x="555" y="108" on="0"/>
        <pt x="564" y="95" on="0"/>
        <pt x="582" y="95" on="1"/>
        <pt x="600" y="95" on="1"/>
        <pt x="600" y="0" on="1"/>
        <pt x="543" y="0" on="1"/>
        <pt x="470" y="0" on="0"/>
        <pt x="395" y="50" on="0"/>
        <pt x="395" y="112" on="1"/>
      </contour>
      <contour>
        <pt x="273" y="753" on="1"/>
        <pt x="273" y="889" on="1"/>
        <pt x="273" y="934" on="0"/>
        <pt x="283" y="946" on="0"/>
        <pt x="321" y="946" on="1"/>
        <pt x="437" y="946" on="1"/>
        <pt x="345" y="753" on="1"/>
      </contour>
    </TTGlyph>
    <TTGlyph name="Ucircumflex" xMin="70" yMin="0" xMax="600" yMax="936">
      <contour>
        <pt x="230" y="723" on="1"/>
        <pt x="230" y="124" on="1"/>
        <pt x="230" y="108" on="0"/>
        <pt x="239" y="95" on="0"/>
        <pt x="257" y="95" on="1"/>
        <pt x="365" y="95" on="1"/>
        <pt x="365" y="0" on="1"/>
        <pt x="218" y="0" on="1"/>
        <pt x="145" y="0" on="0"/>
        <pt x="70" y="50" on="0"/>
        <pt x="70" y="112" on="1"/>
        <pt x="70" y="666" on="1"/>
        <pt x="70" y="701" on="0"/>
        <pt x="91" y="723" on="0"/>
        <pt x="125" y="723" on="1"/>
      </contour>
      <contour>
        <pt x="395" y="723" on="1"/>
        <pt x="500" y="723" on="1"/>
        <pt x="534" y="723" on="0"/>
        <pt x="555" y="701" on="0"/>
        <pt x="555" y="666" on="1"/>
        <pt x="555" y="124" on="1"/>
        <pt x="555" y="108" on="0"/>
        <pt x="564" y="95" on="0"/>
        <pt x="582" y="95" on="1"/>
        <pt x="600" y="95" on="1"/>
        <pt x="600" y="0" on="1"/>
        <pt x="543" y="0" on="1"/>
        <pt x="470" y="0" on="0"/>
        <pt x="395" y="50" on="0"/>
        <pt x="395" y="112" on="1"/>
      </contour>
      <contour>
        <pt x="257" y="936" on="1"/>
        <pt x="365" y="936" on="1"/>
        <pt x="375" y="936" on="0"/>
        <pt x="385" y="934" on="0"/>
        <pt x="393" y="933" on="0"/>
        <pt x="400" y="924" on="0"/>
        <pt x="403" y="918" on="0"/>
        <pt x="413" y="897" on="0"/>
        <pt x="417" y="889" on="1"/>
        <pt x="481" y="763" on="1"/>
        <pt x="370" y="763" on="1"/>
        <pt x="313" y="883" on="1"/>
        <pt x="256" y="763" on="1"/>
        <pt x="144" y="763" on="1"/>
        <pt x="220" y="904" on="1"/>
        <pt x="234" y="931" on="0"/>
        <pt x="239" y="933" on="1"/>
        <pt x="245" y="936" on="0"/>
      </contour>
    </TTGlyph>
    <TTGlyph name="Udieresis" xMin="70" yMin="0" xMax="600" yMax="922">
      <contour>
        <pt x="230" y="723" on="1"/>
        <pt x="230" y="124" on="1"/>
        <pt x="230" y="108" on="0"/>
        <pt x="239" y="95" on="0"/>
        <pt x="257" y="95" on="1"/>
        <pt x="365" y="95" on="1"/>
        <pt x="365" y="0" on="1"/>
        <pt x="218" y="0" on="1"/>
        <pt x="145" y="0" on="0"/>
        <pt x="70" y="50" on="0"/>
        <pt x="70" y="112" on="1"/>
        <pt x="70" y="666" on="1"/>
        <pt x="70" y="701" on="0"/>
        <pt x="91" y="723" on="0"/>
        <pt x="125" y="723" on="1"/>
      </contour>
      <contour>
        <pt x="395" y="723" on="1"/>
        <pt x="500" y="723" on="1"/>
        <pt x="534" y="723" on="0"/>
        <pt x="555" y="701" on="0"/>
        <pt x="555" y="666" on="1"/>
        <pt x="555" y="124" on="1"/>
        <pt x="555" y="108" on="0"/>
        <pt x="564" y="95" on="0"/>
        <pt x="582" y="95" on="1"/>
        <pt x="600" y="95" on="1"/>
        <pt x="600" y="0" on="1"/>
        <pt x="543" y="0" on="1"/>
        <pt x="470" y="0" on="0"/>
        <pt x="395" y="50" on="0"/>
        <pt x="395" y="112" on="1"/>
      </contour>
      <contour>
        <pt x="374" y="922" on="1"/>
        <pt x="491" y="922" on="1"/>
        <pt x="502" y="920" on="0"/>
        <pt x="502" y="904" on="1"/>
        <pt x="502" y="901" on="0"/>
        <pt x="502" y="900" on="1"/>
        <pt x="502" y="795" on="1"/>
        <pt x="502" y="789" on="0"/>
        <pt x="498" y="785" on="0"/>
        <pt x="491" y="784" on="1"/>
        <pt x="374" y="784" on="1"/>
        <pt x="367" y="785" on="0"/>
        <pt x="363" y="789" on="0"/>
        <pt x="363" y="795" on="1"/>
        <pt x="363" y="913" on="1"/>
        <pt x="363" y="915" on="0"/>
        <pt x="365" y="917" on="0"/>
        <pt x="366" y="918" on="1"/>
        <pt x="368" y="922" on="0"/>
      </contour>
      <contour>
        <pt x="264" y="900" on="1"/>
        <pt x="264" y="809" on="1"/>
        <pt x="264" y="806" on="0"/>
        <pt x="264" y="794" on="0"/>
        <pt x="264" y="791" on="1"/>
        <pt x="262" y="784" on="0"/>
        <pt x="253" y="784" on="1"/>
        <pt x="135" y="784" on="1"/>
        <pt x="125" y="785" on="0"/>
        <pt x="125" y="795" on="1"/>
        <pt x="125" y="909" on="1"/>
        <pt x="125" y="920" on="0"/>
        <pt x="135" y="922" on="1"/>
        <pt x="253" y="922" on="1"/>
        <pt x="264" y="920" on="0"/>
        <pt x="264" y="903" on="1"/>
        <pt x="264" y="901" on="0"/>
      </contour>
    </TTGlyph>
    <TTGlyph name="Ugrave" xMin="70" yMin="0" xMax="600" yMax="946">
      <contour>
        <pt x="230" y="723" on="1"/>
        <pt x="230" y="124" on="1"/>
        <pt x="230" y="108" on="0"/>
        <pt x="239" y="95" on="0"/>
        <pt x="257" y="95" on="1"/>
        <pt x="365" y="95" on="1"/>
        <pt x="365" y="0" on="1"/>
        <pt x="218" y="0" on="1"/>
        <pt x="145" y="0" on="0"/>
        <pt x="70" y="50" on="0"/>
        <pt x="70" y="112" on="1"/>
        <pt x="70" y="666" on="1"/>
        <pt x="70" y="701" on="0"/>
        <pt x="91" y="723" on="0"/>
        <pt x="125" y="723" on="1"/>
      </contour>
      <contour>
        <pt x="395" y="723" on="1"/>
        <pt x="500" y="723" on="1"/>
        <pt x="534" y="723" on="0"/>
        <pt x="555" y="701" on="0"/>
        <pt x="555" y="666" on="1"/>
        <pt x="555" y="124" on="1"/>
        <pt x="555" y="108" on="0"/>
        <pt x="564" y="95" on="0"/>
        <pt x="582" y="95" on="1"/>
        <pt x="600" y="95" on="1"/>
        <pt x="600" y="0" on="1"/>
        <pt x="543" y="0" on="1"/>
        <pt x="470" y="0" on="0"/>
        <pt x="395" y="50" on="0"/>
        <pt x="395" y="112" on="1"/>
      </contour>
      <contour>
        <pt x="302" y="946" on="1"/>
        <pt x="340" y="946" on="0"/>
        <pt x="350" y="934" on="0"/>
        <pt x="350" y="889" on="1"/>
        <pt x="350" y="753" on="1"/>
        <pt x="278" y="753" on="1"/>
        <pt x="186" y="946" on="1"/>
      </contour>
    </TTGlyph>
    <TTGlyph name="V" xMin="30" yMin="0" xMax="593" yMax="723">
      <contour>
        <pt x="126" y="723" on="1"/>
        <pt x="160" y="723" on="0"/>
        <pt x="185" y="701" on="0"/>
        <pt x="190" y="666" on="1"/>
        <pt x="256" y="134" on="1"/>
        <pt x="259" y="110" on="0"/>
        <pt x="279" y="96" on="0"/>
        <pt x="301" y="95" on="1"/>
        <pt x="300" y="0" on="1"/>
        <pt x="256" y="0" on="1"/>
        <pt x="168" y="0" on="0"/>
        <pt x="140" y="43" on="1"/>
        <pt x="125" y="66" on="0"/>
        <pt x="113" y="111" on="0"/>
        <pt x="108" y="152" on="1"/>
        <pt x="30" y="723" on="1"/>
      </contour>
      <contour>
        <pt x="387" y="0" on="1"/>
        <pt x="325" y="0" on="1"/>
        <pt x="434" y="666" on="1"/>
        <pt x="438" y="700" on="0"/>
        <pt x="464" y="723" on="0"/>
        <pt x="498" y="723" on="1"/>
        <pt x="593" y="723" on="1"/>
        <pt x="493" y="132" on="1"/>
        <pt x="486" y="94" on="0"/>
        <pt x="477" y="58" on="0"/>
        <pt x="455" y="16" on="0"/>
        <pt x="417" y="0" on="0"/>
      </contour>
    </TTGlyph>
    <TTGlyph name="W" xMin="70" yMin="0" xMax="891" yMax="723">
      <contour>
        <pt x="230" y="723" on="1"/>
        <pt x="230" y="124" on="1"/>
        <pt x="230" y="108" on="0"/>
        <pt x="239" y="95" on="0"/>
        <pt x="257" y="95" on="1"/>
        <pt x="365" y="95" on="1"/>
        <pt x="365" y="0" on="1"/>
        <pt x="218" y="0" on="1"/>
        <pt x="145" y="0" on="0"/>
        <pt x="70" y="50" on="0"/>
        <pt x="70" y="112" on="1"/>
        <pt x="70" y="666" on="1"/>
        <pt x="70" y="701" on="0"/>
        <pt x="91" y="723" on="0"/>
        <pt x="125" y="723" on="1"/>
      </contour>
      <contour>
        <pt x="395" y="500" on="1"/>
        <pt x="499" y="500" on="1"/>
        <pt x="529" y="500" on="0"/>
        <pt x="555" y="467" on="0"/>
        <pt x="555" y="430" on="1"/>
        <pt x="555" y="124" on="1"/>
        <pt x="555" y="108" on="0"/>
        <pt x="564" y="95" on="0"/>
        <pt x="582" y="95" on="1"/>
        <pt x="690" y="95" on="1"/>
        <pt x="690" y="0" on="1"/>
        <pt x="431" y="0" on="1"/>
        <pt x="415" y="0" on="0"/>
        <pt x="395" y="22" on="0"/>
        <pt x="395" y="40" on="1"/>
      </contour>
      <contour>
        <pt x="730" y="723" on="1"/>
        <pt x="835" y="723" on="1"/>
        <pt x="869" y="723" on="0"/>
        <pt x="891" y="701" on="0"/>
        <pt x="891" y="666" on="1"/>
        <pt x="891" y="40" on="1"/>
        <pt x="891" y="22" on="0"/>
        <pt x="870" y="0" on="0"/>
        <pt x="854" y="0" on="1"/>
        <pt x="730" y="0" on="1"/>
      </contour>
    </TTGlyph>
    <TTGlyph name="Wacute" xMin="70" yMin="0" xMax="891" yMax="763">
      <contour>
        <pt x="230" y="723" on="1"/>
        <pt x="230" y="124" on="1"/>
        <pt x="230" y="108" on="0"/>
        <pt x="239" y="95" on="0"/>
        <pt x="257" y="95" on="1"/>
        <pt x="365" y="95" on="1"/>
        <pt x="365" y="0" on="1"/>
        <pt x="218" y="0" on="1"/>
        <pt x="145" y="0" on="0"/>
        <pt x="70" y="50" on="0"/>
        <pt x="70" y="112" on="1"/>
        <pt x="70" y="666" on="1"/>
        <pt x="70" y="701" on="0"/>
        <pt x="91" y="723" on="0"/>
        <pt x="125" y="723" on="1"/>
      </contour>
      <contour>
        <pt x="395" y="500" on="1"/>
        <pt x="499" y="500" on="1"/>
        <pt x="529" y="500" on="0"/>
        <pt x="555" y="467" on="0"/>
        <pt x="555" y="430" on="1"/>
        <pt x="555" y="124" on="1"/>
        <pt x="555" y="108" on="0"/>
        <pt x="564" y="95" on="0"/>
        <pt x="582" y="95" on="1"/>
        <pt x="690" y="95" on="1"/>
        <pt x="690" y="0" on="1"/>
        <pt x="431" y="0" on="1"/>
        <pt x="415" y="0" on="0"/>
        <pt x="395" y="22" on="0"/>
        <pt x="395" y="40" on="1"/>
      </contour>
      <contour>
        <pt x="730" y="723" on="1"/>
        <pt x="835" y="723" on="1"/>
        <pt x="869" y="723" on="0"/>
        <pt x="891" y="701" on="0"/>
        <pt x="891" y="666" on="1"/>
        <pt x="891" y="40" on="1"/>
        <pt x="891" y="22" on="0"/>
        <pt x="870" y="0" on="0"/>
        <pt x="854" y="0" on="1"/>
        <pt x="730" y="0" on="1"/>
      </contour>
      <contour>
        <pt x="420" y="570" on="1"/>
        <pt x="420" y="706" on="1"/>
        <pt x="420" y="751" on="0"/>
        <pt x="430" y="763" on="0"/>
        <pt x="468" y="763" on="1"/>
        <pt x="584" y="763" on="1"/>
        <pt x="492" y="570" on="1"/>
      </contour>
    </TTGlyph>
    <TTGlyph name="Wcircumflex" xMin="70" yMin="0" xMax="891" yMax="753">
      <contour>
        <pt x="230" y="723" on="1"/>
        <pt x="230" y="124" on="1"/>
        <pt x="230" y="108" on="0"/>
        <pt x="239" y="95" on="0"/>
        <pt x="257" y="95" on="1"/>
        <pt x="365" y="95" on="1"/>
        <pt x="365" y="0" on="1"/>
        <pt x="218" y="0" on="1"/>
        <pt x="145" y="0" on="0"/>
        <pt x="70" y="50" on="0"/>
        <pt x="70" y="112" on="1"/>
        <pt x="70" y="666" on="1"/>
        <pt x="70" y="701" on="0"/>
        <pt x="91" y="723" on="0"/>
        <pt x="125" y="723" on="1"/>
      </contour>
      <contour>
        <pt x="395" y="500" on="1"/>
        <pt x="499" y="500" on="1"/>
        <pt x="529" y="500" on="0"/>
        <pt x="555" y="467" on="0"/>
        <pt x="555" y="430" on="1"/>
        <pt x="555" y="124" on="1"/>
        <pt x="555" y="108" on="0"/>
        <pt x="564" y="95" on="0"/>
        <pt x="582" y="95" on="1"/>
        <pt x="690" y="95" on="1"/>
        <pt x="690" y="0" on="1"/>
        <pt x="431" y="0" on="1"/>
        <pt x="415" y="0" on="0"/>
        <pt x="395" y="22" on="0"/>
        <pt x="395" y="40" on="1"/>
      </contour>
      <contour>
        <pt x="730" y="723" on="1"/>
        <pt x="835" y="723" on="1"/>
        <pt x="869" y="723" on="0"/>
        <pt x="891" y="701" on="0"/>
        <pt x="891" y="666" on="1"/>
        <pt x="891" y="40" on="1"/>
        <pt x="891" y="22" on="0"/>
        <pt x="870" y="0" on="0"/>
        <pt x="854" y="0" on="1"/>
        <pt x="730" y="0" on="1"/>
      </contour>
      <contour>
        <pt x="404" y="753" on="1"/>
        <pt x="512" y="753" on="1"/>
        <pt x="522" y="753" on="0"/>
        <pt x="532" y="751" on="0"/>
        <pt x="540" y="750" on="0"/>
        <pt x="547" y="741" on="0"/>
        <pt x="550" y="735" on="0"/>
        <pt x="560" y="714" on="0"/>
        <pt x="564" y="706" on="1"/>
        <pt x="628" y="580" on="1"/>
        <pt x="517" y="580" on="1"/>
        <pt x="460" y="700" on="1"/>
        <pt x="403" y="580" on="1"/>
        <pt x="291" y="580" on="1"/>
        <pt x="367" y="721" on="1"/>
        <pt x="381" y="748" on="0"/>
        <pt x="386" y="750" on="1"/>
        <pt x="392" y="753" on="0"/>
      </contour>
    </TTGlyph>
    <TTGlyph name="Wdieresis" xMin="70" yMin="0" xMax="891" yMax="739">
      <contour>
        <pt x="230" y="723" on="1"/>
        <pt x="230" y="124" on="1"/>
        <pt x="230" y="108" on="0"/>
        <pt x="239" y="95" on="0"/>
        <pt x="257" y="95" on="1"/>
        <pt x="365" y="95" on="1"/>
        <pt x="365" y="0" on="1"/>
        <pt x="218" y="0" on="1"/>
        <pt x="145" y="0" on="0"/>
        <pt x="70" y="50" on="0"/>
        <pt x="70" y="112" on="1"/>
        <pt x="70" y="666" on="1"/>
        <pt x="70" y="701" on="0"/>
        <pt x="91" y="723" on="0"/>
        <pt x="125" y="723" on="1"/>
      </contour>
      <contour>
        <pt x="395" y="500" on="1"/>
        <pt x="499" y="500" on="1"/>
        <pt x="529" y="500" on="0"/>
        <pt x="555" y="467" on="0"/>
        <pt x="555" y="430" on="1"/>
        <pt x="555" y="124" on="1"/>
        <pt x="555" y="108" on="0"/>
        <pt x="564" y="95" on="0"/>
        <pt x="582" y="95" on="1"/>
        <pt x="690" y="95" on="1"/>
        <pt x="690" y="0" on="1"/>
        <pt x="431" y="0" on="1"/>
        <pt x="415" y="0" on="0"/>
        <pt x="395" y="22" on="0"/>
        <pt x="395" y="40" on="1"/>
      </contour>
      <contour>
        <pt x="730" y="723" on="1"/>
        <pt x="835" y="723" on="1"/>
        <pt x="869" y="723" on="0"/>
        <pt x="891" y="701" on="0"/>
        <pt x="891" y="666" on="1"/>
        <pt x="891" y="40" on="1"/>
        <pt x="891" y="22" on="0"/>
        <pt x="870" y="0" on="0"/>
        <pt x="854" y="0" on="1"/>
        <pt x="730" y="0" on="1"/>
      </contour>
      <contour>
        <pt x="521" y="739" on="1"/>
        <pt x="638" y="739" on="1"/>
        <pt x="649" y="737" on="0"/>
        <pt x="649" y="721" on="1"/>
        <pt x="649" y="718" on="0"/>
        <pt x="649" y="717" on="1"/>
        <pt x="649" y="612" on="1"/>
        <pt x="649" y="606" on="0"/>
        <pt x="645" y="602" on="0"/>
        <pt x="638" y="601" on="1"/>
        <pt x="521" y="601" on="1"/>
        <pt x="514" y="602" on="0"/>
        <pt x="510" y="606" on="0"/>
        <pt x="510" y="612" on="1"/>
        <pt x="510" y="730" on="1"/>
        <pt x="510" y="732" on="0"/>
        <pt x="512" y="734" on="0"/>
        <pt x="513" y="736" on="1"/>
        <pt x="515" y="739" on="0"/>
      </contour>
      <contour>
        <pt x="411" y="717" on="1"/>
        <pt x="411" y="626" on="1"/>
        <pt x="411" y="623" on="0"/>
        <pt x="411" y="611" on="0"/>
        <pt x="410" y="608" on="1"/>
        <pt x="409" y="601" on="0"/>
        <pt x="400" y="601" on="1"/>
        <pt x="282" y="601" on="1"/>
        <pt x="272" y="602" on="0"/>
        <pt x="272" y="612" on="1"/>
        <pt x="272" y="726" on="1"/>
        <pt x="272" y="737" on="0"/>
        <pt x="282" y="739" on="1"/>
        <pt x="400" y="739" on="1"/>
        <pt x="411" y="737" on="0"/>
        <pt x="411" y="720" on="1"/>
        <pt x="411" y="718" on="0"/>
      </contour>
    </TTGlyph>
    <TTGlyph name="Wgrave" xMin="70" yMin="0" xMax="891" yMax="763">
      <contour>
        <pt x="230" y="723" on="1"/>
        <pt x="230" y="124" on="1"/>
        <pt x="230" y="108" on="0"/>
        <pt x="239" y="95" on="0"/>
        <pt x="257" y="95" on="1"/>
        <pt x="365" y="95" on="1"/>
        <pt x="365" y="0" on="1"/>
        <pt x="218" y="0" on="1"/>
        <pt x="145" y="0" on="0"/>
        <pt x="70" y="50" on="0"/>
        <pt x="70" y="112" on="1"/>
        <pt x="70" y="666" on="1"/>
        <pt x="70" y="701" on="0"/>
        <pt x="91" y="723" on="0"/>
        <pt x="125" y="723" on="1"/>
      </contour>
      <contour>
        <pt x="395" y="500" on="1"/>
        <pt x="499" y="500" on="1"/>
        <pt x="529" y="500" on="0"/>
        <pt x="555" y="467" on="0"/>
        <pt x="555" y="430" on="1"/>
        <pt x="555" y="124" on="1"/>
        <pt x="555" y="108" on="0"/>
        <pt x="564" y="95" on="0"/>
        <pt x="582" y="95" on="1"/>
        <pt x="690" y="95" on="1"/>
        <pt x="690" y="0" on="1"/>
        <pt x="431" y="0" on="1"/>
        <pt x="415" y="0" on="0"/>
        <pt x="395" y="22" on="0"/>
        <pt x="395" y="40" on="1"/>
      </contour>
      <contour>
        <pt x="730" y="723" on="1"/>
        <pt x="835" y="723" on="1"/>
        <pt x="869" y="723" on="0"/>
        <pt x="891" y="701" on="0"/>
        <pt x="891" y="666" on="1"/>
        <pt x="891" y="40" on="1"/>
        <pt x="891" y="22" on="0"/>
        <pt x="870" y="0" on="0"/>
        <pt x="854" y="0" on="1"/>
        <pt x="730" y="0" on="1"/>
      </contour>
      <contour>
        <pt x="449" y="763" on="1"/>
        <pt x="487" y="763" on="0"/>
        <pt x="497" y="751" on="0"/>
        <pt x="497" y="706" on="1"/>
        <pt x="497" y="570" on="1"/>
        <pt x="425" y="570" on="1"/>
        <pt x="333" y="763" on="1"/>
      </contour>
    </TTGlyph>
    <TTGlyph name="X" xMin="59" yMin="0" xMax="574" yMax="724">
      <contour>
        <pt x="303" y="314" on="1"/>
        <pt x="267" y="314" on="1"/>
        <pt x="249" y="314" on="0"/>
        <pt x="239" y="301" on="0"/>
        <pt x="239" y="285" on="1"/>
        <pt x="239" y="0" on="1"/>
        <pt x="104" y="0" on="1"/>
        <pt x="78" y="0" on="0"/>
        <pt x="59" y="17" on="0"/>
        <pt x="59" y="37" on="1"/>
        <pt x="59" y="337" on="1"/>
        <pt x="59" y="374" on="0"/>
        <pt x="89" y="409" on="0"/>
        <pt x="127" y="409" on="1"/>
        <pt x="303" y="409" on="1"/>
      </contour>
      <contour>
        <pt x="541" y="0" on="1"/>
        <pt x="416" y="0" on="1"/>
        <pt x="382" y="0" on="0"/>
        <pt x="361" y="22" on="0"/>
        <pt x="361" y="57" on="1"/>
        <pt x="361" y="213" on="1"/>
        <pt x="361" y="248" on="0"/>
        <pt x="382" y="270" on="0"/>
        <pt x="416" y="270" on="1"/>
        <pt x="541" y="270" on="1"/>
      </contour>
      <contour>
        <pt x="255" y="455" on="1"/>
        <pt x="130" y="455" on="1"/>
        <pt x="96" y="455" on="0"/>
        <pt x="75" y="477" on="0"/>
        <pt x="75" y="512" on="1"/>
        <pt x="75" y="667" on="1"/>
        <pt x="75" y="702" on="0"/>
        <pt x="96" y="724" on="0"/>
        <pt x="130" y="724" on="1"/>
        <pt x="255" y="724" on="1"/>
      </contour>
      <contour>
        <pt x="394" y="723" on="1"/>
        <pt x="529" y="723" on="1"/>
        <pt x="558" y="723" on="0"/>
        <pt x="574" y="701" on="0"/>
        <pt x="574" y="666" on="1"/>
        <pt x="574" y="362" on="1"/>
        <pt x="574" y="337" on="0"/>
        <pt x="560" y="314" on="0"/>
        <pt x="536" y="314" on="1"/>
        <pt x="343" y="314" on="1"/>
        <pt x="343" y="409" on="1"/>
        <pt x="367" y="409" on="1"/>
        <pt x="385" y="409" on="0"/>
        <pt x="394" y="422" on="0"/>
        <pt x="394" y="438" on="1"/>
      </contour>
    </TTGlyph>
    <TTGlyph name="Y" xMin="44" yMin="0" xMax="519" yMax="723">
      <contour>
        <pt x="204" y="723" on="1"/>
        <pt x="204" y="438" on="1"/>
        <pt x="204" y="422" on="0"/>
        <pt x="214" y="409" on="0"/>
        <pt x="232" y="409" on="1"/>
        <pt x="268" y="409" on="1"/>
        <pt x="268" y="314" on="1"/>
        <pt x="112" y="314" on="1"/>
        <pt x="74" y="314" on="0"/>
        <pt x="44" y="349" on="0"/>
        <pt x="44" y="386" on="1"/>
        <pt x="44" y="676" on="1"/>
        <pt x="44" y="723" on="0"/>
        <pt x="99" y="723" on="1"/>
      </contour>
      <contour>
        <pt x="367" y="0" on="1"/>
        <pt x="242" y="0" on="1"/>
        <pt x="208" y="0" on="0"/>
        <pt x="187" y="22" on="0"/>
        <pt x="187" y="57" on="1"/>
        <pt x="187" y="217" on="1"/>
        <pt x="187" y="252" on="0"/>
        <pt x="208" y="274" on="0"/>
        <pt x="242" y="274" on="1"/>
        <pt x="367" y="274" on="1"/>
      </contour>
      <contour>
        <pt x="359" y="723" on="1"/>
        <pt x="464" y="723" on="1"/>
        <pt x="494" y="723" on="0"/>
        <pt x="519" y="699" on="0"/>
        <pt x="519" y="666" on="1"/>
        <pt x="519" y="384" on="1"/>
        <pt x="519" y="314" on="0"/>
        <pt x="461" y="314" on="1"/>
        <pt x="308" y="314" on="1"/>
        <pt x="308" y="409" on="1"/>
        <pt x="332" y="409" on="1"/>
        <pt x="350" y="409" on="0"/>
        <pt x="359" y="423" on="0"/>
        <pt x="359" y="438" on="1"/>
      </contour>
    </TTGlyph>
    <TTGlyph name="Yacute" xMin="44" yMin="0" xMax="519" yMax="946">
      <contour>
        <pt x="204" y="723" on="1"/>
        <pt x="204" y="438" on="1"/>
        <pt x="204" y="422" on="0"/>
        <pt x="214" y="409" on="0"/>
        <pt x="232" y="409" on="1"/>
        <pt x="268" y="409" on="1"/>
        <pt x="268" y="314" on="1"/>
        <pt x="112" y="314" on="1"/>
        <pt x="74" y="314" on="0"/>
        <pt x="44" y="349" on="0"/>
        <pt x="44" y="386" on="1"/>
        <pt x="44" y="676" on="1"/>
        <pt x="44" y="723" on="0"/>
        <pt x="99" y="723" on="1"/>
      </contour>
      <contour>
        <pt x="367" y="0" on="1"/>
        <pt x="242" y="0" on="1"/>
        <pt x="208" y="0" on="0"/>
        <pt x="187" y="22" on="0"/>
        <pt x="187" y="57" on="1"/>
        <pt x="187" y="217" on="1"/>
        <pt x="187" y="252" on="0"/>
        <pt x="208" y="274" on="0"/>
        <pt x="242" y="274" on="1"/>
        <pt x="367" y="274" on="1"/>
      </contour>
      <contour>
        <pt x="359" y="723" on="1"/>
        <pt x="464" y="723" on="1"/>
        <pt x="494" y="723" on="0"/>
        <pt x="519" y="699" on="0"/>
        <pt x="519" y="666" on="1"/>
        <pt x="519" y="384" on="1"/>
        <pt x="519" y="314" on="0"/>
        <pt x="461" y="314" on="1"/>
        <pt x="308" y="314" on="1"/>
        <pt x="308" y="409" on="1"/>
        <pt x="332" y="409" on="1"/>
        <pt x="350" y="409" on="0"/>
        <pt x="359" y="423" on="0"/>
        <pt x="359" y="438" on="1"/>
      </contour>
      <contour>
        <pt x="240" y="753" on="1"/>
        <pt x="240" y="889" on="1"/>
        <pt x="240" y="934" on="0"/>
        <pt x="250" y="946" on="0"/>
        <pt x="288" y="946" on="1"/>
        <pt x="404" y="946" on="1"/>
        <pt x="312" y="753" on="1"/>
      </contour>
    </TTGlyph>
    <TTGlyph name="Ycircumflex" xMin="44" yMin="0" xMax="519" yMax="936">
      <contour>
        <pt x="204" y="723" on="1"/>
        <pt x="204" y="438" on="1"/>
        <pt x="204" y="422" on="0"/>
        <pt x="214" y="409" on="0"/>
        <pt x="232" y="409" on="1"/>
        <pt x="268" y="409" on="1"/>
        <pt x="268" y="314" on="1"/>
        <pt x="112" y="314" on="1"/>
        <pt x="74" y="314" on="0"/>
        <pt x="44" y="349" on="0"/>
        <pt x="44" y="386" on="1"/>
        <pt x="44" y="676" on="1"/>
        <pt x="44" y="723" on="0"/>
        <pt x="99" y="723" on="1"/>
      </contour>
      <contour>
        <pt x="367" y="0" on="1"/>
        <pt x="242" y="0" on="1"/>
        <pt x="208" y="0" on="0"/>
        <pt x="187" y="22" on="0"/>
        <pt x="187" y="57" on="1"/>
        <pt x="187" y="217" on="1"/>
        <pt x="187" y="252" on="0"/>
        <pt x="208" y="274" on="0"/>
        <pt x="242" y="274" on="1"/>
        <pt x="367" y="274" on="1"/>
      </contour>
      <contour>
        <pt x="359" y="723" on="1"/>
        <pt x="464" y="723" on="1"/>
        <pt x="494" y="723" on="0"/>
        <pt x="519" y="699" on="0"/>
        <pt x="519" y="666" on="1"/>
        <pt x="519" y="384" on="1"/>
        <pt x="519" y="314" on="0"/>
        <pt x="461" y="314" on="1"/>
        <pt x="308" y="314" on="1"/>
        <pt x="308" y="409" on="1"/>
        <pt x="332" y="409" on="1"/>
        <pt x="350" y="409" on="0"/>
        <pt x="359" y="423" on="0"/>
        <pt x="359" y="438" on="1"/>
      </contour>
      <contour>
        <pt x="224" y="936" on="1"/>
        <pt x="332" y="936" on="1"/>
        <pt x="342" y="936" on="0"/>
        <pt x="352" y="934" on="0"/>
        <pt x="360" y="933" on="0"/>
        <pt x="367" y="924" on="0"/>
        <pt x="370" y="918" on="0"/>
        <pt x="380" y="897" on="0"/>
        <pt x="384" y="889" on="1"/>
        <pt x="448" y="763" on="1"/>
        <pt x="337" y="763" on="1"/>
        <pt x="280" y="883" on="1"/>
        <pt x="223" y="763" on="1"/>
        <pt x="111" y="763" on="1"/>
        <pt x="187" y="904" on="1"/>
        <pt x="201" y="931" on="0"/>
        <pt x="206" y="933" on="1"/>
        <pt x="212" y="936" on="0"/>
      </contour>
    </TTGlyph>
    <TTGlyph name="Ydieresis" xMin="44" yMin="0" xMax="519" yMax="922">
      <contour>
        <pt x="204" y="723" on="1"/>
        <pt x="204" y="438" on="1"/>
        <pt x="204" y="422" on="0"/>
        <pt x="214" y="409" on="0"/>
        <pt x="232" y="409" on="1"/>
        <pt x="268" y="409" on="1"/>
        <pt x="268" y="314" on="1"/>
        <pt x="112" y="314" on="1"/>
        <pt x="74" y="314" on="0"/>
        <pt x="44" y="349" on="0"/>
        <pt x="44" y="386" on="1"/>
        <pt x="44" y="676" on="1"/>
        <pt x="44" y="723" on="0"/>
        <pt x="99" y="723" on="1"/>
      </contour>
      <contour>
        <pt x="367" y="0" on="1"/>
        <pt x="242" y="0" on="1"/>
        <pt x="208" y="0" on="0"/>
        <pt x="187" y="22" on="0"/>
        <pt x="187" y="57" on="1"/>
        <pt x="187" y="217" on="1"/>
        <pt x="187" y="252" on="0"/>
        <pt x="208" y="274" on="0"/>
        <pt x="242" y="274" on="1"/>
        <pt x="367" y="274" on="1"/>
      </contour>
      <contour>
        <pt x="359" y="723" on="1"/>
        <pt x="464" y="723" on="1"/>
        <pt x="494" y="723" on="0"/>
        <pt x="519" y="699" on="0"/>
        <pt x="519" y="666" on="1"/>
        <pt x="519" y="384" on="1"/>
        <pt x="519" y="314" on="0"/>
        <pt x="461" y="314" on="1"/>
        <pt x="308" y="314" on="1"/>
        <pt x="308" y="409" on="1"/>
        <pt x="332" y="409" on="1"/>
        <pt x="350" y="409" on="0"/>
        <pt x="359" y="423" on="0"/>
        <pt x="359" y="438" on="1"/>
      </contour>
      <contour>
        <pt x="341" y="922" on="1"/>
        <pt x="458" y="922" on="1"/>
        <pt x="469" y="920" on="0"/>
        <pt x="469" y="904" on="1"/>
        <pt x="469" y="901" on="0"/>
        <pt x="469" y="900" on="1"/>
        <pt x="469" y="795" on="1"/>
        <pt x="469" y="789" on="0"/>
        <pt x="465" y="785" on="0"/>
        <pt x="458" y="784" on="1"/>
        <pt x="341" y="784" on="1"/>
        <pt x="334" y="785" on="0"/>
        <pt x="330" y="789" on="0"/>
        <pt x="330" y="795" on="1"/>
        <pt x="330" y="913" on="1"/>
        <pt x="330" y="915" on="0"/>
        <pt x="332" y="917" on="0"/>
        <pt x="333" y="918" on="1"/>
        <pt x="335" y="922" on="0"/>
      </contour>
      <contour>
        <pt x="231" y="900" on="1"/>
        <pt x="231" y="809" on="1"/>
        <pt x="231" y="806" on="0"/>
        <pt x="231" y="794" on="0"/>
        <pt x="230" y="791" on="1"/>
        <pt x="229" y="784" on="0"/>
        <pt x="220" y="784" on="1"/>
        <pt x="102" y="784" on="1"/>
        <pt x="92" y="785" on="0"/>
        <pt x="92" y="795" on="1"/>
        <pt x="92" y="909" on="1"/>
        <pt x="92" y="920" on="0"/>
        <pt x="102" y="922" on="1"/>
        <pt x="220" y="922" on="1"/>
        <pt x="231" y="920" on="0"/>
        <pt x="231" y="903" on="1"/>
        <pt x="231" y="901" on="0"/>
      </contour>
    </TTGlyph>
    <TTGlyph name="Ygrave" xMin="44" yMin="0" xMax="519" yMax="946">
      <contour>
        <pt x="204" y="723" on="1"/>
        <pt x="204" y="438" on="1"/>
        <pt x="204" y="422" on="0"/>
        <pt x="214" y="409" on="0"/>
        <pt x="232" y="409" on="1"/>
        <pt x="268" y="409" on="1"/>
        <pt x="268" y="314" on="1"/>
        <pt x="112" y="314" on="1"/>
        <pt x="74" y="314" on="0"/>
        <pt x="44" y="349" on="0"/>
        <pt x="44" y="386" on="1"/>
        <pt x="44" y="676" on="1"/>
        <pt x="44" y="723" on="0"/>
        <pt x="99" y="723" on="1"/>
      </contour>
      <contour>
        <pt x="367" y="0" on="1"/>
        <pt x="242" y="0" on="1"/>
        <pt x="208" y="0" on="0"/>
        <pt x="187" y="22" on="0"/>
        <pt x="187" y="57" on="1"/>
        <pt x="187" y="217" on="1"/>
        <pt x="187" y="252" on="0"/>
        <pt x="208" y="274" on="0"/>
        <pt x="242" y="274" on="1"/>
        <pt x="367" y="274" on="1"/>
      </contour>
      <contour>
        <pt x="359" y="723" on="1"/>
        <pt x="464" y="723" on="1"/>
        <pt x="494" y="723" on="0"/>
        <pt x="519" y="699" on="0"/>
        <pt x="519" y="666" on="1"/>
        <pt x="519" y="384" on="1"/>
        <pt x="519" y="314" on="0"/>
        <pt x="461" y="314" on="1"/>
        <pt x="308" y="314" on="1"/>
        <pt x="308" y="409" on="1"/>
        <pt x="332" y="409" on="1"/>
        <pt x="350" y="409" on="0"/>
        <pt x="359" y="423" on="0"/>
        <pt x="359" y="438" on="1"/>
      </contour>
      <contour>
        <pt x="269" y="946" on="1"/>
        <pt x="307" y="946" on="0"/>
        <pt x="317" y="934" on="0"/>
        <pt x="317" y="889" on="1"/>
        <pt x="317" y="753" on="1"/>
        <pt x="245" y="753" on="1"/>
        <pt x="153" y="946" on="1"/>
      </contour>
    </TTGlyph>
    <TTGlyph name="Z" xMin="63" yMin="0" xMax="580" yMax="723">
      <contour>
        <pt x="308" y="314" on="1"/>
        <pt x="272" y="314" on="1"/>
        <pt x="254" y="314" on="0"/>
        <pt x="244" y="301" on="0"/>
        <pt x="244" y="285" on="1"/>
        <pt x="244" y="0" on="1"/>
        <pt x="109" y="0" on="1"/>
        <pt x="83" y="0" on="0"/>
        <pt x="64" y="17" on="0"/>
        <pt x="64" y="37" on="1"/>
        <pt x="64" y="337" on="1"/>
        <pt x="64" y="374" on="0"/>
        <pt x="94" y="409" on="0"/>
        <pt x="132" y="409" on="1"/>
        <pt x="308" y="409" on="1"/>
      </contour>
      <contour>
        <pt x="580" y="193" on="1"/>
        <pt x="580" y="56" on="1"/>
        <pt x="580" y="9" on="0"/>
        <pt x="560" y="3" on="1"/>
        <pt x="550" y="0" on="0"/>
        <pt x="531" y="0" on="1"/>
        <pt x="286" y="0" on="1"/>
        <pt x="286" y="95" on="1"/>
        <pt x="369" y="95" on="1"/>
        <pt x="390" y="95" on="0"/>
        <pt x="400" y="108" on="0"/>
        <pt x="400" y="125" on="1"/>
        <pt x="400" y="193" on="1"/>
      </contour>
      <contour>
        <pt x="358" y="628" on="1"/>
        <pt x="274" y="628" on="1"/>
        <pt x="253" y="628" on="0"/>
        <pt x="243" y="615" on="0"/>
        <pt x="243" y="598" on="1"/>
        <pt x="243" y="530" on="1"/>
        <pt x="63" y="530" on="1"/>
        <pt x="63" y="656" on="1"/>
        <pt x="63" y="708" on="0"/>
        <pt x="84" y="718" on="1"/>
        <pt x="95" y="723" on="0"/>
        <pt x="112" y="723" on="1"/>
        <pt x="358" y="723" on="1"/>
      </contour>
      <contour>
        <pt x="399" y="723" on="1"/>
        <pt x="534" y="723" on="1"/>
        <pt x="563" y="723" on="0"/>
        <pt x="579" y="701" on="0"/>
        <pt x="579" y="666" on="1"/>
        <pt x="579" y="362" on="1"/>
        <pt x="579" y="337" on="0"/>
        <pt x="565" y="314" on="0"/>
        <pt x="541" y="314" on="1"/>
        <pt x="348" y="314" on="1"/>
        <pt x="348" y="409" on="1"/>
        <pt x="372" y="409" on="1"/>
        <pt x="390" y="409" on="0"/>
        <pt x="399" y="422" on="0"/>
        <pt x="399" y="438" on="1"/>
      </contour>
    </TTGlyph>
    <TTGlyph name="Zcaron" xMin="63" yMin="0" xMax="580" yMax="890">
      <contour>
        <pt x="308" y="314" on="1"/>
        <pt x="272" y="314" on="1"/>
        <pt x="254" y="314" on="0"/>
        <pt x="244" y="301" on="0"/>
        <pt x="244" y="285" on="1"/>
        <pt x="244" y="0" on="1"/>
        <pt x="109" y="0" on="1"/>
        <pt x="83" y="0" on="0"/>
        <pt x="64" y="17" on="0"/>
        <pt x="64" y="37" on="1"/>
        <pt x="64" y="337" on="1"/>
        <pt x="64" y="374" on="0"/>
        <pt x="94" y="409" on="0"/>
        <pt x="132" y="409" on="1"/>
        <pt x="308" y="409" on="1"/>
      </contour>
      <contour>
        <pt x="580" y="193" on="1"/>
        <pt x="580" y="56" on="1"/>
        <pt x="580" y="9" on="0"/>
        <pt x="560" y="3" on="1"/>
        <pt x="550" y="0" on="0"/>
        <pt x="531" y="0" on="1"/>
        <pt x="286" y="0" on="1"/>
        <pt x="286" y="95" on="1"/>
        <pt x="369" y="95" on="1"/>
        <pt x="390" y="95" on="0"/>
        <pt x="400" y="108" on="0"/>
        <pt x="400" y="125" on="1"/>
        <pt x="400" y="193" on="1"/>
      </contour>
      <contour>
        <pt x="358" y="628" on="1"/>
        <pt x="274" y="628" on="1"/>
        <pt x="253" y="628" on="0"/>
        <pt x="243" y="615" on="0"/>
        <pt x="243" y="598" on="1"/>
        <pt x="243" y="530" on="1"/>
        <pt x="63" y="530" on="1"/>
        <pt x="63" y="656" on="1"/>
        <pt x="63" y="708" on="0"/>
        <pt x="84" y="718" on="1"/>
        <pt x="95" y="723" on="0"/>
        <pt x="112" y="723" on="1"/>
        <pt x="358" y="723" on="1"/>
      </contour>
      <contour>
        <pt x="399" y="723" on="1"/>
        <pt x="534" y="723" on="1"/>
        <pt x="563" y="723" on="0"/>
        <pt x="579" y="701" on="0"/>
        <pt x="579" y="666" on="1"/>
        <pt x="579" y="362" on="1"/>
        <pt x="579" y="337" on="0"/>
        <pt x="565" y="314" on="0"/>
        <pt x="541" y="314" on="1"/>
        <pt x="348" y="314" on="1"/>
        <pt x="348" y="409" on="1"/>
        <pt x="372" y="409" on="1"/>
        <pt x="390" y="409" on="0"/>
        <pt x="399" y="422" on="0"/>
        <pt x="399" y="438" on="1"/>
      </contour>
      <contour>
        <pt x="356" y="741" on="1"/>
        <pt x="292" y="741" on="1"/>
        <pt x="273" y="741" on="0"/>
        <pt x="253" y="753" on="0"/>
        <pt x="240" y="771" on="1"/>
        <pt x="152" y="890" on="1"/>
        <pt x="263" y="890" on="1"/>
        <pt x="324" y="792" on="1"/>
        <pt x="385" y="890" on="1"/>
        <pt x="487" y="890" on="1"/>
        <pt x="419" y="784" on="1"/>
        <pt x="398" y="751" on="0"/>
        <pt x="382" y="741" on="0"/>
      </contour>
    </TTGlyph>
    <TTGlyph name="a" xMin="51" yMin="0" xMax="526" yMax="500">
      <contour>
        <pt x="301" y="425" on="1"/>
        <pt x="247" y="425" on="1"/>
        <pt x="216" y="425" on="0"/>
        <pt x="212" y="414" on="1"/>
        <pt x="206" y="401" on="0"/>
        <pt x="206" y="377" on="1"/>
        <pt x="206" y="123" on="1"/>
        <pt x="206" y="121" on="0"/>
        <pt x="206" y="101" on="0"/>
        <pt x="208" y="94" on="1"/>
        <pt x="212" y="75" on="0"/>
        <pt x="247" y="75" on="1"/>
        <pt x="301" y="75" on="1"/>
        <pt x="301" y="0" on="1"/>
        <pt x="204" y="0" on="1"/>
        <pt x="166" y="0" on="0"/>
        <pt x="118" y="7" on="0"/>
        <pt x="82" y="31" on="0"/>
        <pt x="64" y="60" on="0"/>
        <pt x="58" y="92" on="1"/>
        <pt x="51" y="137" on="0"/>
        <pt x="51" y="299" on="0"/>
        <pt x="53" y="356" on="0"/>
        <pt x="58" y="420" on="0"/>
        <pt x="71" y="450" on="0"/>
        <pt x="92" y="481" on="0"/>
        <pt x="109" y="487" on="1"/>
        <pt x="146" y="500" on="0"/>
        <pt x="204" y="500" on="1"/>
        <pt x="301" y="500" on="1"/>
      </contour>
      <contour>
        <pt x="526" y="7" on="1"/>
        <pt x="526" y="0" on="0"/>
        <pt x="522" y="0" on="1"/>
        <pt x="440" y="0" on="1"/>
        <pt x="384" y="0" on="0"/>
        <pt x="331" y="52" on="0"/>
        <pt x="331" y="111" on="1"/>
        <pt x="331" y="500" on="1"/>
        <pt x="372" y="500" on="1"/>
        <pt x="435" y="500" on="0"/>
        <pt x="481" y="441" on="0"/>
        <pt x="481" y="393" on="1"/>
        <pt x="481" y="113" on="1"/>
        <pt x="481" y="82" on="0"/>
        <pt x="494" y="78" on="1"/>
        <pt x="501" y="75" on="0"/>
        <pt x="513" y="75" on="1"/>
        <pt x="518" y="75" on="1"/>
        <pt x="526" y="75" on="0"/>
        <pt x="526" y="68" on="1"/>
      </contour>
    </TTGlyph>
    <TTGlyph name="aacute" xMin="51" yMin="0" xMax="526" yMax="723">
      <contour>
        <pt x="301" y="425" on="1"/>
        <pt x="247" y="425" on="1"/>
        <pt x="216" y="425" on="0"/>
        <pt x="212" y="414" on="1"/>
        <pt x="206" y="401" on="0"/>
        <pt x="206" y="377" on="1"/>
        <pt x="206" y="123" on="1"/>
        <pt x="206" y="121" on="0"/>
        <pt x="206" y="101" on="0"/>
        <pt x="208" y="94" on="1"/>
        <pt x="212" y="75" on="0"/>
        <pt x="247" y="75" on="1"/>
        <pt x="301" y="75" on="1"/>
        <pt x="301" y="0" on="1"/>
        <pt x="204" y="0" on="1"/>
        <pt x="166" y="0" on="0"/>
        <pt x="118" y="7" on="0"/>
        <pt x="82" y="31" on="0"/>
        <pt x="64" y="60" on="0"/>
        <pt x="58" y="92" on="1"/>
        <pt x="51" y="137" on="0"/>
        <pt x="51" y="299" on="0"/>
        <pt x="53" y="356" on="0"/>
        <pt x="58" y="420" on="0"/>
        <pt x="71" y="450" on="0"/>
        <pt x="92" y="481" on="0"/>
        <pt x="109" y="487" on="1"/>
        <pt x="146" y="500" on="0"/>
        <pt x="204" y="500" on="1"/>
        <pt x="301" y="500" on="1"/>
      </contour>
      <contour>
        <pt x="526" y="7" on="1"/>
        <pt x="526" y="0" on="0"/>
        <pt x="522" y="0" on="1"/>
        <pt x="440" y="0" on="1"/>
        <pt x="384" y="0" on="0"/>
        <pt x="331" y="52" on="0"/>
        <pt x="331" y="111" on="1"/>
        <pt x="331" y="500" on="1"/>
        <pt x="372" y="500" on="1"/>
        <pt x="435" y="500" on="0"/>
        <pt x="481" y="441" on="0"/>
        <pt x="481" y="393" on="1"/>
        <pt x="481" y="113" on="1"/>
        <pt x="481" y="82" on="0"/>
        <pt x="494" y="78" on="1"/>
        <pt x="501" y="75" on="0"/>
        <pt x="513" y="75" on="1"/>
        <pt x="518" y="75" on="1"/>
        <pt x="526" y="75" on="0"/>
        <pt x="526" y="68" on="1"/>
      </contour>
      <contour>
        <pt x="239" y="530" on="1"/>
        <pt x="239" y="666" on="1"/>
        <pt x="239" y="711" on="0"/>
        <pt x="249" y="723" on="0"/>
        <pt x="287" y="723" on="1"/>
        <pt x="403" y="723" on="1"/>
        <pt x="311" y="530" on="1"/>
      </contour>
    </TTGlyph>
    <TTGlyph name="acircumflex" xMin="51" yMin="0" xMax="526" yMax="713">
      <contour>
        <pt x="301" y="425" on="1"/>
        <pt x="247" y="425" on="1"/>
        <pt x="216" y="425" on="0"/>
        <pt x="212" y="414" on="1"/>
        <pt x="206" y="401" on="0"/>
        <pt x="206" y="377" on="1"/>
        <pt x="206" y="123" on="1"/>
        <pt x="206" y="121" on="0"/>
        <pt x="206" y="101" on="0"/>
        <pt x="208" y="94" on="1"/>
        <pt x="212" y="75" on="0"/>
        <pt x="247" y="75" on="1"/>
        <pt x="301" y="75" on="1"/>
        <pt x="301" y="0" on="1"/>
        <pt x="204" y="0" on="1"/>
        <pt x="166" y="0" on="0"/>
        <pt x="118" y="7" on="0"/>
        <pt x="82" y="31" on="0"/>
        <pt x="64" y="60" on="0"/>
        <pt x="58" y="92" on="1"/>
        <pt x="51" y="137" on="0"/>
        <pt x="51" y="299" on="0"/>
        <pt x="53" y="356" on="0"/>
        <pt x="58" y="420" on="0"/>
        <pt x="71" y="450" on="0"/>
        <pt x="92" y="481" on="0"/>
        <pt x="109" y="487" on="1"/>
        <pt x="146" y="500" on="0"/>
        <pt x="204" y="500" on="1"/>
        <pt x="301" y="500" on="1"/>
      </contour>
      <contour>
        <pt x="526" y="7" on="1"/>
        <pt x="526" y="0" on="0"/>
        <pt x="522" y="0" on="1"/>
        <pt x="440" y="0" on="1"/>
        <pt x="384" y="0" on="0"/>
        <pt x="331" y="52" on="0"/>
        <pt x="331" y="111" on="1"/>
        <pt x="331" y="500" on="1"/>
        <pt x="372" y="500" on="1"/>
        <pt x="435" y="500" on="0"/>
        <pt x="481" y="441" on="0"/>
        <pt x="481" y="393" on="1"/>
        <pt x="481" y="113" on="1"/>
        <pt x="481" y="82" on="0"/>
        <pt x="494" y="78" on="1"/>
        <pt x="501" y="75" on="0"/>
        <pt x="513" y="75" on="1"/>
        <pt x="518" y="75" on="1"/>
        <pt x="526" y="75" on="0"/>
        <pt x="526" y="68" on="1"/>
      </contour>
      <contour>
        <pt x="223" y="713" on="1"/>
        <pt x="331" y="713" on="1"/>
        <pt x="341" y="713" on="0"/>
        <pt x="351" y="711" on="0"/>
        <pt x="359" y="710" on="0"/>
        <pt x="366" y="701" on="0"/>
        <pt x="369" y="695" on="0"/>
        <pt x="379" y="674" on="0"/>
        <pt x="383" y="666" on="1"/>
        <pt x="447" y="540" on="1"/>
        <pt x="336" y="540" on="1"/>
        <pt x="279" y="660" on="1"/>
        <pt x="222" y="540" on="1"/>
        <pt x="110" y="540" on="1"/>
        <pt x="186" y="681" on="1"/>
        <pt x="200" y="708" on="0"/>
        <pt x="205" y="710" on="1"/>
        <pt x="211" y="713" on="0"/>
      </contour>
    </TTGlyph>
    <TTGlyph name="acute" xMin="40" yMin="753" xMax="204" yMax="946">
      <contour>
        <pt x="40" y="753" on="1"/>
        <pt x="40" y="889" on="1"/>
        <pt x="40" y="934" on="0"/>
        <pt x="50" y="946" on="0"/>
        <pt x="88" y="946" on="1"/>
        <pt x="204" y="946" on="1"/>
        <pt x="112" y="753" on="1"/>
      </contour>
    </TTGlyph>
    <TTGlyph name="adieresis" xMin="51" yMin="0" xMax="526" yMax="699">
      <contour>
        <pt x="301" y="425" on="1"/>
        <pt x="247" y="425" on="1"/>
        <pt x="216" y="425" on="0"/>
        <pt x="212" y="414" on="1"/>
        <pt x="206" y="401" on="0"/>
        <pt x="206" y="377" on="1"/>
        <pt x="206" y="123" on="1"/>
        <pt x="206" y="121" on="0"/>
        <pt x="206" y="101" on="0"/>
        <pt x="208" y="94" on="1"/>
        <pt x="212" y="75" on="0"/>
        <pt x="247" y="75" on="1"/>
        <pt x="301" y="75" on="1"/>
        <pt x="301" y="0" on="1"/>
        <pt x="204" y="0" on="1"/>
        <pt x="166" y="0" on="0"/>
        <pt x="118" y="7" on="0"/>
        <pt x="82" y="31" on="0"/>
        <pt x="64" y="60" on="0"/>
        <pt x="58" y="92" on="1"/>
        <pt x="51" y="137" on="0"/>
        <pt x="51" y="299" on="0"/>
        <pt x="53" y="356" on="0"/>
        <pt x="58" y="420" on="0"/>
        <pt x="71" y="450" on="0"/>
        <pt x="92" y="481" on="0"/>
        <pt x="109" y="487" on="1"/>
        <pt x="146" y="500" on="0"/>
        <pt x="204" y="500" on="1"/>
        <pt x="301" y="500" on="1"/>
      </contour>
      <contour>
        <pt x="526" y="7" on="1"/>
        <pt x="526" y="0" on="0"/>
        <pt x="522" y="0" on="1"/>
        <pt x="440" y="0" on="1"/>
        <pt x="384" y="0" on="0"/>
        <pt x="331" y="52" on="0"/>
        <pt x="331" y="111" on="1"/>
        <pt x="331" y="500" on="1"/>
        <pt x="372" y="500" on="1"/>
        <pt x="435" y="500" on="0"/>
        <pt x="481" y="441" on="0"/>
        <pt x="481" y="393" on="1"/>
        <pt x="481" y="113" on="1"/>
        <pt x="481" y="82" on="0"/>
        <pt x="494" y="78" on="1"/>
        <pt x="501" y="75" on="0"/>
        <pt x="513" y="75" on="1"/>
        <pt x="518" y="75" on="1"/>
        <pt x="526" y="75" on="0"/>
        <pt x="526" y="68" on="1"/>
      </contour>
      <contour>
        <pt x="340" y="699" on="1"/>
        <pt x="457" y="699" on="1"/>
        <pt x="468" y="697" on="0"/>
        <pt x="468" y="681" on="1"/>
        <pt x="468" y="678" on="0"/>
        <pt x="468" y="677" on="1"/>
        <pt x="468" y="572" on="1"/>
        <pt x="468" y="566" on="0"/>
        <pt x="464" y="562" on="0"/>
        <pt x="457" y="561" on="1"/>
        <pt x="340" y="561" on="1"/>
        <pt x="333" y="562" on="0"/>
        <pt x="329" y="566" on="0"/>
        <pt x="329" y="572" on="1"/>
        <pt x="329" y="690" on="1"/>
        <pt x="329" y="692" on="0"/>
        <pt x="331" y="694" on="0"/>
        <pt x="332" y="696" on="1"/>
        <pt x="334" y="699" on="0"/>
      </contour>
      <contour>
        <pt x="230" y="677" on="1"/>
        <pt x="230" y="586" on="1"/>
        <pt x="230" y="583" on="0"/>
        <pt x="230" y="571" on="0"/>
        <pt x="230" y="568" on="1"/>
        <pt x="228" y="561" on="0"/>
        <pt x="219" y="561" on="1"/>
        <pt x="101" y="561" on="1"/>
        <pt x="91" y="562" on="0"/>
        <pt x="91" y="572" on="1"/>
        <pt x="91" y="686" on="1"/>
        <pt x="91" y="697" on="0"/>
        <pt x="101" y="699" on="1"/>
        <pt x="219" y="699" on="1"/>
        <pt x="230" y="697" on="0"/>
        <pt x="230" y="680" on="1"/>
        <pt x="230" y="678" on="0"/>
      </contour>
    </TTGlyph>
    <TTGlyph name="ae" xMin="51" yMin="0" xMax="751" yMax="500">
      <contour>
        <pt x="301" y="425" on="1"/>
        <pt x="247" y="425" on="1"/>
        <pt x="216" y="425" on="0"/>
        <pt x="212" y="414" on="1"/>
        <pt x="206" y="401" on="0"/>
        <pt x="206" y="377" on="1"/>
        <pt x="206" y="123" on="1"/>
        <pt x="206" y="121" on="0"/>
        <pt x="206" y="101" on="0"/>
        <pt x="208" y="94" on="1"/>
        <pt x="212" y="75" on="0"/>
        <pt x="247" y="75" on="1"/>
        <pt x="301" y="75" on="1"/>
        <pt x="301" y="0" on="1"/>
        <pt x="204" y="0" on="1"/>
        <pt x="166" y="0" on="0"/>
        <pt x="118" y="7" on="0"/>
        <pt x="82" y="31" on="0"/>
        <pt x="64" y="60" on="0"/>
        <pt x="58" y="92" on="1"/>
        <pt x="51" y="137" on="0"/>
        <pt x="51" y="299" on="0"/>
        <pt x="53" y="356" on="0"/>
        <pt x="58" y="420" on="0"/>
        <pt x="71" y="450" on="0"/>
        <pt x="92" y="481" on="0"/>
        <pt x="109" y="487" on="1"/>
        <pt x="146" y="500" on="0"/>
        <pt x="204" y="500" on="1"/>
        <pt x="301" y="500" on="1"/>
      </contour>
      <contour>
        <pt x="331" y="500" on="1"/>
        <pt x="372" y="500" on="1"/>
        <pt x="485" y="500" on="0"/>
        <pt x="485" y="393" on="1"/>
        <pt x="485" y="0" on="1"/>
        <pt x="483" y="0" on="1"/>
        <pt x="375" y="0" on="0"/>
        <pt x="331" y="87" on="0"/>
        <pt x="331" y="260" on="1"/>
      </contour>
      <contour>
        <pt x="751" y="158" on="1"/>
        <pt x="751" y="107" on="1"/>
        <pt x="751" y="0" on="0"/>
        <pt x="642" y="0" on="1"/>
        <pt x="516" y="0" on="1"/>
        <pt x="516" y="75" on="1"/>
        <pt x="570" y="75" on="1"/>
        <pt x="591" y="75" on="0"/>
        <pt x="601" y="88" on="0"/>
        <pt x="601" y="105" on="1"/>
        <pt x="601" y="137" on="1"/>
        <pt x="601" y="152" on="0"/>
        <pt x="608" y="156" on="0"/>
        <pt x="610" y="157" on="0"/>
        <pt x="619" y="158" on="0"/>
        <pt x="620" y="158" on="1"/>
        <pt x="686" y="158" on="0"/>
      </contour>
      <contour>
        <pt x="516" y="500" on="1"/>
        <pt x="632" y="500" on="1"/>
        <pt x="701" y="500" on="0"/>
        <pt x="751" y="446" on="0"/>
        <pt x="751" y="393" on="1"/>
        <pt x="751" y="305" on="1"/>
        <pt x="751" y="215" on="0"/>
        <pt x="653" y="215" on="1"/>
        <pt x="506" y="215" on="1"/>
        <pt x="506" y="290" on="1"/>
        <pt x="560" y="290" on="1"/>
        <pt x="584" y="290" on="0"/>
        <pt x="601" y="302" on="0"/>
        <pt x="601" y="319" on="1"/>
        <pt x="601" y="395" on="1"/>
        <pt x="601" y="412" on="0"/>
        <pt x="591" y="425" on="0"/>
        <pt x="570" y="425" on="1"/>
        <pt x="516" y="425" on="1"/>
      </contour>
    </TTGlyph>
    <TTGlyph name="agrave" xMin="51" yMin="0" xMax="526" yMax="723">
      <contour>
        <pt x="301" y="425" on="1"/>
        <pt x="247" y="425" on="1"/>
        <pt x="216" y="425" on="0"/>
        <pt x="212" y="414" on="1"/>
        <pt x="206" y="401" on="0"/>
        <pt x="206" y="377" on="1"/>
        <pt x="206" y="123" on="1"/>
        <pt x="206" y="121" on="0"/>
        <pt x="206" y="101" on="0"/>
        <pt x="208" y="94" on="1"/>
        <pt x="212" y="75" on="0"/>
        <pt x="247" y="75" on="1"/>
        <pt x="301" y="75" on="1"/>
        <pt x="301" y="0" on="1"/>
        <pt x="204" y="0" on="1"/>
        <pt x="166" y="0" on="0"/>
        <pt x="118" y="7" on="0"/>
        <pt x="82" y="31" on="0"/>
        <pt x="64" y="60" on="0"/>
        <pt x="58" y="92" on="1"/>
        <pt x="51" y="137" on="0"/>
        <pt x="51" y="299" on="0"/>
        <pt x="53" y="356" on="0"/>
        <pt x="58" y="420" on="0"/>
        <pt x="71" y="450" on="0"/>
        <pt x="92" y="481" on="0"/>
        <pt x="109" y="487" on="1"/>
        <pt x="146" y="500" on="0"/>
        <pt x="204" y="500" on="1"/>
        <pt x="301" y="500" on="1"/>
      </contour>
      <contour>
        <pt x="526" y="7" on="1"/>
        <pt x="526" y="0" on="0"/>
        <pt x="522" y="0" on="1"/>
        <pt x="440" y="0" on="1"/>
        <pt x="384" y="0" on="0"/>
        <pt x="331" y="52" on="0"/>
        <pt x="331" y="111" on="1"/>
        <pt x="331" y="500" on="1"/>
        <pt x="372" y="500" on="1"/>
        <pt x="435" y="500" on="0"/>
        <pt x="481" y="441" on="0"/>
        <pt x="481" y="393" on="1"/>
        <pt x="481" y="113" on="1"/>
        <pt x="481" y="82" on="0"/>
        <pt x="494" y="78" on="1"/>
        <pt x="501" y="75" on="0"/>
        <pt x="513" y="75" on="1"/>
        <pt x="518" y="75" on="1"/>
        <pt x="526" y="75" on="0"/>
        <pt x="526" y="68" on="1"/>
      </contour>
      <contour>
        <pt x="268" y="723" on="1"/>
        <pt x="306" y="723" on="0"/>
        <pt x="316" y="711" on="0"/>
        <pt x="316" y="666" on="1"/>
        <pt x="316" y="530" on="1"/>
        <pt x="244" y="530" on="1"/>
        <pt x="152" y="723" on="1"/>
      </contour>
    </TTGlyph>
    <TTGlyph name="ampersand" xMin="59" yMin="0" xMax="595" yMax="723">
      <contour>
        <pt x="168" y="723" on="1"/>
        <pt x="327" y="723" on="1"/>
        <pt x="436" y="723" on="0"/>
        <pt x="436" y="616" on="1"/>
        <pt x="436" y="531" on="1"/>
        <pt x="436" y="424" on="0"/>
        <pt x="327" y="424" on="1"/>
        <pt x="286" y="424" on="1"/>
        <pt x="286" y="618" on="1"/>
        <pt x="286" y="635" on="0"/>
        <pt x="276" y="648" on="0"/>
        <pt x="255" y="648" on="1"/>
        <pt x="240" y="648" on="1"/>
        <pt x="217" y="648" on="0"/>
        <pt x="212" y="639" on="1"/>
        <pt x="209" y="630" on="0"/>
        <pt x="209" y="618" on="1"/>
        <pt x="209" y="364" on="1"/>
        <pt x="150" y="364" on="1"/>
        <pt x="63" y="371" on="0"/>
        <pt x="59" y="461" on="1"/>
        <pt x="59" y="616" on="1"/>
        <pt x="59" y="670" on="0"/>
        <pt x="85" y="696" on="1"/>
        <pt x="94" y="703" on="1"/>
        <pt x="122" y="723" on="0"/>
      </contour>
      <contour>
        <pt x="423" y="391" on="1"/>
        <pt x="499" y="391" on="1"/>
        <pt x="505" y="390" on="0"/>
        <pt x="505" y="383" on="1"/>
        <pt x="505" y="322" on="1"/>
        <pt x="505" y="315" on="0"/>
        <pt x="497" y="315" on="1"/>
        <pt x="476" y="315" on="1"/>
        <pt x="434" y="315" on="0"/>
        <pt x="434" y="278" on="1"/>
        <pt x="434" y="0" on="1"/>
        <pt x="284" y="0" on="1"/>
        <pt x="284" y="272" on="1"/>
        <pt x="284" y="337" on="0"/>
        <pt x="355" y="391" on="0"/>
      </contour>
      <contour>
        <pt x="209" y="340" on="1"/>
        <pt x="209" y="105" on="1"/>
        <pt x="209" y="75" on="0"/>
        <pt x="250" y="75" on="1"/>
        <pt x="254" y="75" on="1"/>
        <pt x="254" y="0" on="1"/>
        <pt x="168" y="0" on="1"/>
        <pt x="59" y="0" on="0"/>
        <pt x="59" y="107" on="1"/>
        <pt x="59" y="233" on="1"/>
        <pt x="59" y="340" on="0"/>
        <pt x="168" y="340" on="1"/>
      </contour>
      <contour>
        <pt x="525" y="173" on="1"/>
        <pt x="581" y="173" on="1"/>
        <pt x="595" y="173" on="0"/>
        <pt x="595" y="152" on="1"/>
        <pt x="595" y="112" on="1"/>
        <pt x="595" y="48" on="0"/>
        <pt x="561" y="0" on="0"/>
        <pt x="517" y="0" on="1"/>
        <pt x="461" y="0" on="1"/>
        <pt x="461" y="75" on="1"/>
        <pt x="489" y="75" on="1"/>
        <pt x="499" y="75" on="0"/>
        <pt x="505" y="88" on="0"/>
        <pt x="505" y="104" on="1"/>
        <pt x="505" y="152" on="1"/>
        <pt x="505" y="165" on="0"/>
        <pt x="511" y="173" on="0"/>
      </contour>
    </TTGlyph>
    <TTGlyph name="approxequal" xMin="65" yMin="43" xMax="620" yMax="480">
      <contour>
        <pt x="72" y="273" on="1"/>
        <pt x="65" y="273" on="0"/>
        <pt x="65" y="278" on="1"/>
        <pt x="65" y="389" on="1"/>
        <pt x="65" y="428" on="0"/>
        <pt x="114" y="479" on="0"/>
        <pt x="156" y="479" on="1"/>
        <pt x="169" y="479" on="0"/>
        <pt x="176" y="478" on="1"/>
        <pt x="482" y="435" on="1"/>
        <pt x="485" y="434" on="0"/>
        <pt x="490" y="434" on="1"/>
        <pt x="515" y="434" on="0"/>
        <pt x="515" y="467" on="1"/>
        <pt x="515" y="472" on="1"/>
        <pt x="515" y="480" on="0"/>
        <pt x="522" y="480" on="1"/>
        <pt x="613" y="480" on="1"/>
        <pt x="620" y="480" on="0"/>
        <pt x="620" y="476" on="1"/>
        <pt x="620" y="364" on="1"/>
        <pt x="620" y="324" on="0"/>
        <pt x="571" y="273" on="0"/>
        <pt x="529" y="273" on="1"/>
        <pt x="523" y="273" on="0"/>
        <pt x="509" y="275" on="1"/>
        <pt x="203" y="318" on="1"/>
        <pt x="195" y="319" on="1"/>
        <pt x="170" y="319" on="0"/>
        <pt x="170" y="286" on="1"/>
        <pt x="170" y="281" on="1"/>
        <pt x="170" y="273" on="0"/>
        <pt x="163" y="273" on="1"/>
      </contour>
      <contour>
        <pt x="72" y="43" on="1"/>
        <pt x="65" y="43" on="0"/>
        <pt x="65" y="48" on="1"/>
        <pt x="65" y="159" on="1"/>
        <pt x="65" y="198" on="0"/>
        <pt x="114" y="249" on="0"/>
        <pt x="156" y="249" on="1"/>
        <pt x="169" y="249" on="0"/>
        <pt x="176" y="248" on="1"/>
        <pt x="482" y="205" on="1"/>
        <pt x="485" y="204" on="0"/>
        <pt x="490" y="204" on="1"/>
        <pt x="515" y="204" on="0"/>
        <pt x="515" y="237" on="1"/>
        <pt x="515" y="242" on="1"/>
        <pt x="515" y="250" on="0"/>
        <pt x="522" y="250" on="1"/>
        <pt x="613" y="250" on="1"/>
        <pt x="620" y="250" on="0"/>
        <pt x="620" y="246" on="1"/>
        <pt x="620" y="134" on="1"/>
        <pt x="620" y="94" on="0"/>
        <pt x="571" y="43" on="0"/>
        <pt x="529" y="43" on="1"/>
        <pt x="523" y="43" on="0"/>
        <pt x="509" y="45" on="1"/>
        <pt x="203" y="88" on="1"/>
        <pt x="195" y="89" on="1"/>
        <pt x="170" y="89" on="0"/>
        <pt x="170" y="56" on="1"/>
        <pt x="170" y="51" on="1"/>
        <pt x="170" y="43" on="0"/>
        <pt x="163" y="43" on="1"/>
      </contour>
    </TTGlyph>
    <TTGlyph name="aring" xMin="51" yMin="0" xMax="526" yMax="786">
      <contour>
        <pt x="301" y="425" on="1"/>
        <pt x="247" y="425" on="1"/>
        <pt x="216" y="425" on="0"/>
        <pt x="212" y="414" on="1"/>
        <pt x="206" y="401" on="0"/>
        <pt x="206" y="377" on="1"/>
        <pt x="206" y="123" on="1"/>
        <pt x="206" y="121" on="0"/>
        <pt x="206" y="101" on="0"/>
        <pt x="208" y="94" on="1"/>
        <pt x="212" y="75" on="0"/>
        <pt x="247" y="75" on="1"/>
        <pt x="301" y="75" on="1"/>
        <pt x="301" y="0" on="1"/>
        <pt x="204" y="0" on="1"/>
        <pt x="166" y="0" on="0"/>
        <pt x="118" y="7" on="0"/>
        <pt x="82" y="31" on="0"/>
        <pt x="64" y="60" on="0"/>
        <pt x="58" y="92" on="1"/>
        <pt x="51" y="137" on="0"/>
        <pt x="51" y="299" on="0"/>
        <pt x="53" y="356" on="0"/>
        <pt x="58" y="420" on="0"/>
        <pt x="71" y="450" on="0"/>
        <pt x="92" y="481" on="0"/>
        <pt x="109" y="487" on="1"/>
        <pt x="146" y="500" on="0"/>
        <pt x="204" y="500" on="1"/>
        <pt x="301" y="500" on="1"/>
      </contour>
      <contour>
        <pt x="526" y="7" on="1"/>
        <pt x="526" y="0" on="0"/>
        <pt x="522" y="0" on="1"/>
        <pt x="440" y="0" on="1"/>
        <pt x="384" y="0" on="0"/>
        <pt x="331" y="52" on="0"/>
        <pt x="331" y="111" on="1"/>
        <pt x="331" y="500" on="1"/>
        <pt x="372" y="500" on="1"/>
        <pt x="435" y="500" on="0"/>
        <pt x="481" y="441" on="0"/>
        <pt x="481" y="393" on="1"/>
        <pt x="481" y="113" on="1"/>
        <pt x="481" y="82" on="0"/>
        <pt x="494" y="78" on="1"/>
        <pt x="501" y="75" on="0"/>
        <pt x="513" y="75" on="1"/>
        <pt x="518" y="75" on="1"/>
        <pt x="526" y="75" on="0"/>
        <pt x="526" y="68" on="1"/>
      </contour>
      <contour>
        <pt x="151" y="712" on="0"/>
        <pt x="226" y="786" on="0"/>
        <pt x="331" y="786" on="0"/>
        <pt x="405" y="712" on="0"/>
        <pt x="405" y="606" on="0"/>
        <pt x="331" y="531" on="0"/>
        <pt x="226" y="531" on="0"/>
        <pt x="151" y="606" on="0"/>
      </contour>
      <contour>
        <pt x="336" y="683" on="0"/>
        <pt x="302" y="716" on="0"/>
        <pt x="255" y="716" on="0"/>
        <pt x="222" y="683" on="0"/>
        <pt x="222" y="636" on="0"/>
        <pt x="255" y="602" on="0"/>
        <pt x="302" y="602" on="0"/>
        <pt x="336" y="636" on="0"/>
      </contour>
    </TTGlyph>
    <TTGlyph name="asciicircum" xMin="40" yMin="244" xMax="534" yMax="723">
      <contour>
        <pt x="534" y="244" on="1"/>
        <pt x="435" y="244" on="1"/>
        <pt x="288" y="532" on="1"/>
        <pt x="139" y="244" on="1"/>
        <pt x="40" y="244" on="1"/>
        <pt x="288" y="723" on="1"/>
      </contour>
    </TTGlyph>
    <TTGlyph name="asciitilde" xMin="60" yMin="223" xMax="615" yMax="430">
      <contour>
        <pt x="67" y="223" on="1"/>
        <pt x="60" y="223" on="0"/>
        <pt x="60" y="228" on="1"/>
        <pt x="60" y="339" on="1"/>
        <pt x="60" y="378" on="0"/>
        <pt x="109" y="429" on="0"/>
        <pt x="151" y="429" on="1"/>
        <pt x="164" y="429" on="0"/>
        <pt x="171" y="428" on="1"/>
        <pt x="477" y="385" on="1"/>
        <pt x="480" y="384" on="0"/>
        <pt x="485" y="384" on="1"/>
        <pt x="510" y="384" on="0"/>
        <pt x="510" y="417" on="1"/>
        <pt x="510" y="422" on="1"/>
        <pt x="510" y="430" on="0"/>
        <pt x="517" y="430" on="1"/>
        <pt x="608" y="430" on="1"/>
        <pt x="615" y="430" on="0"/>
        <pt x="615" y="426" on="1"/>
        <pt x="615" y="314" on="1"/>
        <pt x="615" y="274" on="0"/>
        <pt x="566" y="223" on="0"/>
        <pt x="524" y="223" on="1"/>
        <pt x="518" y="223" on="0"/>
        <pt x="504" y="225" on="1"/>
        <pt x="198" y="268" on="1"/>
        <pt x="190" y="269" on="1"/>
        <pt x="165" y="269" on="0"/>
        <pt x="165" y="236" on="1"/>
        <pt x="165" y="231" on="1"/>
        <pt x="165" y="223" on="0"/>
        <pt x="158" y="223" on="1"/>
      </contour>
    </TTGlyph>
    <TTGlyph name="asterisk" xMin="29" yMin="347" xMax="418" yMax="723">
      <contour>
        <pt x="381" y="618" on="1"/>
        <pt x="399" y="618" on="0"/>
        <pt x="406" y="596" on="1"/>
        <pt x="418" y="559" on="1"/>
        <pt x="280" y="508" on="1"/>
        <pt x="255" y="574" on="1"/>
        <pt x="185" y="574" on="1"/>
        <pt x="185" y="691" on="1"/>
        <pt x="185" y="723" on="0"/>
        <pt x="216" y="723" on="1"/>
        <pt x="255" y="723" on="1"/>
        <pt x="255" y="574" on="1"/>
        <pt x="365" y="615" on="1"/>
        <pt x="374" y="618" on="0"/>
      </contour>
      <contour>
        <pt x="29" y="571" on="1"/>
        <pt x="29" y="577" on="0"/>
        <pt x="31" y="577" on="0"/>
        <pt x="32" y="574" on="1"/>
        <pt x="45" y="624" on="1"/>
        <pt x="185" y="574" on="1"/>
        <pt x="162" y="507" on="1"/>
        <pt x="53" y="547" on="1"/>
        <pt x="29" y="555" on="0"/>
      </contour>
      <contour>
        <pt x="346" y="413" on="1"/>
        <pt x="353" y="402" on="0"/>
        <pt x="353" y="380" on="0"/>
        <pt x="338" y="368" on="1"/>
        <pt x="305" y="347" on="1"/>
        <pt x="222" y="469" on="1"/>
        <pt x="280" y="508" on="1"/>
      </contour>
      <contour>
        <pt x="156" y="372" on="1"/>
        <pt x="144" y="354" on="0"/>
        <pt x="126" y="354" on="0"/>
        <pt x="114" y="361" on="1"/>
        <pt x="82" y="384" on="1"/>
        <pt x="162" y="507" on="1"/>
        <pt x="221" y="470" on="1"/>
      </contour>
    </TTGlyph>
    <TTGlyph name="at" xMin="32" yMin="-159" xMax="716" yMax="550">
      <contour>
        <pt x="32" y="355" on="0"/>
        <pt x="225" y="550" on="0"/>
        <pt x="532" y="550" on="0"/>
        <pt x="716" y="374" on="0"/>
        <pt x="716" y="219" on="1"/>
        <pt x="716" y="119" on="0"/>
        <pt x="620" y="0" on="0"/>
        <pt x="546" y="0" on="1"/>
        <pt x="498" y="0" on="0"/>
        <pt x="429" y="51" on="0"/>
        <pt x="429" y="97" on="1"/>
        <pt x="429" y="391" on="1"/>
        <pt x="436" y="391" on="1"/>
        <pt x="522" y="391" on="0"/>
        <pt x="522" y="307" on="1"/>
        <pt x="522" y="92" on="1"/>
        <pt x="522" y="79" on="0"/>
        <pt x="543" y="63" on="0"/>
        <pt x="560" y="63" on="1"/>
        <pt x="600" y="63" on="0"/>
        <pt x="655" y="149" on="0"/>
        <pt x="655" y="223" on="1"/>
        <pt x="655" y="347" on="0"/>
        <pt x="506" y="487" on="0"/>
        <pt x="253" y="487" on="0"/>
        <pt x="92" y="329" on="0"/>
        <pt x="92" y="61" on="0"/>
        <pt x="252" y="-98" on="0"/>
        <pt x="386" y="-98" on="1"/>
        <pt x="479" y="-98" on="0"/>
        <pt x="559" y="-47" on="1"/>
        <pt x="585" y="-103" on="1"/>
        <pt x="504" y="-159" on="0"/>
        <pt x="384" y="-159" on="1"/>
        <pt x="221" y="-159" on="0"/>
        <pt x="32" y="29" on="0"/>
      </contour>
      <contour>
        <pt x="404" y="327" on="1"/>
        <pt x="346" y="327" on="1"/>
        <pt x="331" y="327" on="0"/>
        <pt x="316" y="308" on="0"/>
        <pt x="315" y="293" on="0"/>
        <pt x="315" y="274" on="1"/>
        <pt x="315" y="116" on="1"/>
        <pt x="315" y="114" on="0"/>
        <pt x="315" y="96" on="0"/>
        <pt x="317" y="80" on="0"/>
        <pt x="331" y="63" on="0"/>
        <pt x="346" y="63" on="1"/>
        <pt x="404" y="63" on="1"/>
        <pt x="404" y="0" on="1"/>
        <pt x="319" y="0" on="1"/>
        <pt x="258" y="0" on="0"/>
        <pt x="223" y="24" on="0"/>
        <pt x="208" y="46" on="0"/>
        <pt x="204" y="72" on="1"/>
        <pt x="198" y="110" on="0"/>
        <pt x="198" y="241" on="0"/>
        <pt x="199" y="288" on="0"/>
        <pt x="207" y="342" on="0"/>
        <pt x="221" y="364" on="0"/>
        <pt x="249" y="386" on="0"/>
        <pt x="289" y="391" on="0"/>
        <pt x="319" y="391" on="1"/>
        <pt x="404" y="391" on="1"/>
      </contour>
    </TTGlyph>
    <TTGlyph name="atilde" xMin="51" yMin="0" xMax="526" yMax="683">
      <contour>
        <pt x="301" y="425" on="1"/>
        <pt x="247" y="425" on="1"/>
        <pt x="216" y="425" on="0"/>
        <pt x="212" y="414" on="1"/>
        <pt x="206" y="401" on="0"/>
        <pt x="206" y="377" on="1"/>
        <pt x="206" y="123" on="1"/>
        <pt x="206" y="121" on="0"/>
        <pt x="206" y="101" on="0"/>
        <pt x="208" y="94" on="1"/>
        <pt x="212" y="75" on="0"/>
        <pt x="247" y="75" on="1"/>
        <pt x="301" y="75" on="1"/>
        <pt x="301" y="0" on="1"/>
        <pt x="204" y="0" on="1"/>
        <pt x="166" y="0" on="0"/>
        <pt x="118" y="7" on="0"/>
        <pt x="82" y="31" on="0"/>
        <pt x="64" y="60" on="0"/>
        <pt x="58" y="92" on="1"/>
        <pt x="51" y="137" on="0"/>
        <pt x="51" y="299" on="0"/>
        <pt x="53" y="356" on="0"/>
        <pt x="58" y="420" on="0"/>
        <pt x="71" y="450" on="0"/>
        <pt x="92" y="481" on="0"/>
        <pt x="109" y="487" on="1"/>
        <pt x="146" y="500" on="0"/>
        <pt x="204" y="500" on="1"/>
        <pt x="301" y="500" on="1"/>
      </contour>
      <contour>
        <pt x="526" y="7" on="1"/>
        <pt x="526" y="0" on="0"/>
        <pt x="522" y="0" on="1"/>
        <pt x="440" y="0" on="1"/>
        <pt x="384" y="0" on="0"/>
        <pt x="331" y="52" on="0"/>
        <pt x="331" y="111" on="1"/>
        <pt x="331" y="500" on="1"/>
        <pt x="372" y="500" on="1"/>
        <pt x="435" y="500" on="0"/>
        <pt x="481" y="441" on="0"/>
        <pt x="481" y="393" on="1"/>
        <pt x="481" y="113" on="1"/>
        <pt x="481" y="82" on="0"/>
        <pt x="494" y="78" on="1"/>
        <pt x="501" y="75" on="0"/>
        <pt x="513" y="75" on="1"/>
        <pt x="518" y="75" on="1"/>
        <pt x="526" y="75" on="0"/>
        <pt x="526" y="68" on="1"/>
      </contour>
      <contour>
        <pt x="357" y="656" on="1"/>
        <pt x="361" y="655" on="1"/>
        <pt x="375" y="655" on="0"/>
        <pt x="375" y="674" on="1"/>
        <pt x="375" y="677" on="1"/>
        <pt x="375" y="683" on="0"/>
        <pt x="385" y="683" on="1"/>
        <pt x="432" y="683" on="1"/>
        <pt x="435" y="680" on="1"/>
        <pt x="435" y="617" on="1"/>
        <pt x="435" y="593" on="0"/>
        <pt x="406" y="565" on="0"/>
        <pt x="379" y="565" on="1"/>
        <pt x="372" y="565" on="1"/>
        <pt x="200" y="590" on="1"/>
        <pt x="195" y="590" on="1"/>
        <pt x="182" y="590" on="0"/>
        <pt x="182" y="575" on="1"/>
        <pt x="182" y="571" on="1"/>
        <pt x="182" y="563" on="0"/>
        <pt x="178" y="563" on="1"/>
        <pt x="125" y="563" on="1"/>
        <pt x="122" y="569" on="1"/>
        <pt x="122" y="631" on="1"/>
        <pt x="122" y="654" on="0"/>
        <pt x="152" y="683" on="0"/>
        <pt x="177" y="683" on="1"/>
        <pt x="185" y="683" on="1"/>
      </contour>
    </TTGlyph>
    <TTGlyph name="b" xMin="57" yMin="0" xMax="487" yMax="723">
      <contour>
        <pt x="207" y="0" on="1"/>
        <pt x="146" y="0" on="1"/>
        <pt x="102" y="0" on="0"/>
        <pt x="57" y="43" on="0"/>
        <pt x="57" y="77" on="1"/>
        <pt x="57" y="646" on="1"/>
        <pt x="57" y="680" on="0"/>
        <pt x="102" y="723" on="0"/>
        <pt x="146" y="723" on="1"/>
        <pt x="207" y="723" on="1"/>
      </contour>
      <contour>
        <pt x="237" y="500" on="1"/>
        <pt x="334" y="500" on="1"/>
        <pt x="372" y="500" on="0"/>
        <pt x="420" y="493" on="0"/>
        <pt x="456" y="469" on="0"/>
        <pt x="474" y="440" on="0"/>
        <pt x="480" y="408" on="1"/>
        <pt x="487" y="363" on="0"/>
        <pt x="487" y="201" on="0"/>
        <pt x="485" y="144" on="0"/>
        <pt x="480" y="80" on="0"/>
        <pt x="467" y="50" on="0"/>
        <pt x="446" y="19" on="0"/>
        <pt x="429" y="13" on="1"/>
        <pt x="392" y="0" on="0"/>
        <pt x="334" y="0" on="1"/>
        <pt x="237" y="0" on="1"/>
        <pt x="237" y="75" on="1"/>
        <pt x="291" y="75" on="1"/>
        <pt x="317" y="75" on="0"/>
        <pt x="332" y="89" on="0"/>
        <pt x="332" y="104" on="1"/>
        <pt x="332" y="395" on="1"/>
        <pt x="332" y="411" on="0"/>
        <pt x="317" y="425" on="0"/>
        <pt x="291" y="425" on="1"/>
        <pt x="237" y="425" on="1"/>
      </contour>
    </TTGlyph>
    <TTGlyph name="backslash" xMin="17" yMin="-140" xMax="423" yMax="723">
      <contour>
        <pt x="423" y="-140" on="1"/>
        <pt x="343" y="-140" on="1"/>
        <pt x="17" y="723" on="1"/>
        <pt x="97" y="723" on="1"/>
      </contour>
    </TTGlyph>
    <TTGlyph name="bar" xMin="73" yMin="-142" xMax="153" yMax="774">
      <contour>
        <pt x="153" y="-142" on="1"/>
        <pt x="73" y="-142" on="1"/>
        <pt x="73" y="774" on="1"/>
        <pt x="153" y="774" on="1"/>
      </contour>
    </TTGlyph>
    <TTGlyph name="braceleft" xMin="37" yMin="-203" xMax="328" yMax="723">
      <contour>
        <pt x="202" y="723" on="1"/>
        <pt x="202" y="384" on="1"/>
        <pt x="202" y="332" on="0"/>
        <pt x="155" y="273" on="0"/>
        <pt x="113" y="273" on="1"/>
        <pt x="43" y="273" on="1"/>
        <pt x="37" y="273" on="0"/>
        <pt x="37" y="280" on="1"/>
        <pt x="37" y="331" on="1"/>
        <pt x="37" y="338" on="0"/>
        <pt x="45" y="338" on="1"/>
        <pt x="50" y="338" on="1"/>
        <pt x="74" y="338" on="0"/>
        <pt x="78" y="348" on="1"/>
        <pt x="82" y="360" on="0"/>
        <pt x="82" y="376" on="1"/>
        <pt x="82" y="616" on="1"/>
        <pt x="82" y="673" on="0"/>
        <pt x="123" y="723" on="0"/>
        <pt x="171" y="723" on="1"/>
      </contour>
      <contour>
        <pt x="228" y="-106" on="1"/>
        <pt x="273" y="-106" on="1"/>
        <pt x="298" y="-106" on="0"/>
        <pt x="328" y="-136" on="0"/>
        <pt x="328" y="-160" on="1"/>
        <pt x="328" y="-202" on="1"/>
        <pt x="228" y="-202" on="1"/>
      </contour>
      <contour>
        <pt x="37" y="240" on="1"/>
        <pt x="37" y="247" on="0"/>
        <pt x="42" y="247" on="1"/>
        <pt x="113" y="247" on="1"/>
        <pt x="155" y="247" on="0"/>
        <pt x="202" y="188" on="0"/>
        <pt x="202" y="136" on="1"/>
        <pt x="202" y="-203" on="1"/>
        <pt x="171" y="-203" on="1"/>
        <pt x="123" y="-203" on="0"/>
        <pt x="82" y="-153" on="0"/>
        <pt x="82" y="-96" on="1"/>
        <pt x="82" y="144" on="1"/>
        <pt x="82" y="175" on="0"/>
        <pt x="69" y="180" on="1"/>
        <pt x="62" y="182" on="0"/>
        <pt x="50" y="182" on="1"/>
        <pt x="45" y="182" on="1"/>
        <pt x="37" y="182" on="0"/>
        <pt x="37" y="189" on="1"/>
      </contour>
      <contour>
        <pt x="328" y="723" on="1"/>
        <pt x="328" y="681" on="1"/>
        <pt x="328" y="657" on="0"/>
        <pt x="298" y="627" on="0"/>
        <pt x="273" y="627" on="1"/>
        <pt x="228" y="627" on="1"/>
        <pt x="228" y="723" on="1"/>
      </contour>
    </TTGlyph>
    <TTGlyph name="braceright" xMin="19" yMin="-203" xMax="310" yMax="723">
      <contour>
        <pt x="310" y="280" on="1"/>
        <pt x="310" y="273" on="0"/>
        <pt x="306" y="273" on="1"/>
        <pt x="234" y="273" on="1"/>
        <pt x="192" y="273" on="0"/>
        <pt x="145" y="332" on="0"/>
        <pt x="145" y="384" on="1"/>
        <pt x="145" y="723" on="1"/>
        <pt x="176" y="723" on="1"/>
        <pt x="224" y="723" on="0"/>
        <pt x="265" y="673" on="0"/>
        <pt x="265" y="616" on="1"/>
        <pt x="265" y="376" on="1"/>
        <pt x="265" y="345" on="0"/>
        <pt x="278" y="340" on="1"/>
        <pt x="285" y="338" on="0"/>
        <pt x="297" y="338" on="1"/>
        <pt x="302" y="338" on="1"/>
        <pt x="310" y="338" on="0"/>
        <pt x="310" y="331" on="1"/>
      </contour>
      <contour>
        <pt x="119" y="-202" on="1"/>
        <pt x="19" y="-202" on="1"/>
        <pt x="19" y="-160" on="1"/>
        <pt x="19" y="-136" on="0"/>
        <pt x="49" y="-106" on="0"/>
        <pt x="74" y="-106" on="1"/>
        <pt x="119" y="-106" on="1"/>
      </contour>
      <contour>
        <pt x="234" y="247" on="1"/>
        <pt x="304" y="247" on="1"/>
        <pt x="310" y="247" on="0"/>
        <pt x="310" y="240" on="1"/>
        <pt x="310" y="189" on="1"/>
        <pt x="310" y="182" on="0"/>
        <pt x="302" y="182" on="1"/>
        <pt x="297" y="182" on="1"/>
        <pt x="273" y="182" on="0"/>
        <pt x="269" y="172" on="1"/>
        <pt x="265" y="160" on="0"/>
        <pt x="265" y="144" on="1"/>
        <pt x="265" y="-96" on="1"/>
        <pt x="265" y="-153" on="0"/>
        <pt x="224" y="-203" on="0"/>
        <pt x="176" y="-203" on="1"/>
        <pt x="145" y="-203" on="1"/>
        <pt x="145" y="136" on="1"/>
        <pt x="145" y="188" on="0"/>
        <pt x="192" y="247" on="0"/>
      </contour>
      <contour>
        <pt x="119" y="627" on="1"/>
        <pt x="74" y="627" on="1"/>
        <pt x="49" y="627" on="0"/>
        <pt x="19" y="657" on="0"/>
        <pt x="19" y="681" on="1"/>
        <pt x="19" y="723" on="1"/>
        <pt x="119" y="723" on="1"/>
      </contour>
    </TTGlyph>
    <TTGlyph name="bracketleft" xMin="72" yMin="-134" xMax="363" yMax="843">
      <contour>
        <pt x="192" y="-134" on="1"/>
        <pt x="127" y="-134" on="1"/>
        <pt x="87" y="-134" on="0"/>
        <pt x="72" y="-120" on="0"/>
        <pt x="72" y="-80" on="1"/>
        <pt x="72" y="789" on="1"/>
        <pt x="72" y="829" on="0"/>
        <pt x="87" y="843" on="0"/>
        <pt x="127" y="843" on="1"/>
        <pt x="192" y="843" on="1"/>
      </contour>
      <contour>
        <pt x="363" y="-38" on="1"/>
        <pt x="363" y="-80" on="1"/>
        <pt x="363" y="-120" on="0"/>
        <pt x="348" y="-134" on="0"/>
        <pt x="308" y="-134" on="1"/>
        <pt x="223" y="-134" on="1"/>
        <pt x="223" y="-38" on="1"/>
      </contour>
      <contour>
        <pt x="223" y="843" on="1"/>
        <pt x="308" y="843" on="1"/>
        <pt x="348" y="843" on="0"/>
        <pt x="363" y="829" on="0"/>
        <pt x="363" y="789" on="1"/>
        <pt x="363" y="747" on="1"/>
        <pt x="223" y="747" on="1"/>
      </contour>
    </TTGlyph>
    <TTGlyph name="bracketright" xMin="20" yMin="-134" xMax="311" yMax="843">
      <contour>
        <pt x="191" y="843" on="1"/>
        <pt x="256" y="843" on="1"/>
        <pt x="296" y="843" on="0"/>
        <pt x="311" y="829" on="0"/>
        <pt x="311" y="789" on="1"/>
        <pt x="311" y="-80" on="1"/>
        <pt x="311" y="-120" on="0"/>
        <pt x="296" y="-134" on="0"/>
        <pt x="256" y="-134" on="1"/>
        <pt x="191" y="-134" on="1"/>
      </contour>
      <contour>
        <pt x="160" y="-134" on="1"/>
        <pt x="75" y="-134" on="1"/>
        <pt x="35" y="-134" on="0"/>
        <pt x="20" y="-120" on="0"/>
        <pt x="20" y="-80" on="1"/>
        <pt x="20" y="-38" on="1"/>
        <pt x="160" y="-38" on="1"/>
      </contour>
      <contour>
        <pt x="160" y="747" on="1"/>
        <pt x="20" y="747" on="1"/>
        <pt x="20" y="789" on="1"/>
        <pt x="20" y="829" on="0"/>
        <pt x="35" y="843" on="0"/>
        <pt x="75" y="843" on="1"/>
        <pt x="160" y="843" on="1"/>
      </contour>
    </TTGlyph>
    <TTGlyph name="breve" xMin="40" yMin="754" xMax="294" yMax="891">
      <contour>
        <pt x="293" y="834" on="0"/>
        <pt x="230" y="754" on="0"/>
        <pt x="104" y="754" on="0"/>
        <pt x="40" y="833" on="0"/>
        <pt x="40" y="891" on="1"/>
        <pt x="111" y="891" on="1"/>
        <pt x="111" y="864" on="0"/>
        <pt x="139" y="825" on="0"/>
        <pt x="195" y="825" on="0"/>
        <pt x="224" y="865" on="0"/>
        <pt x="225" y="891" on="1"/>
        <pt x="294" y="891" on="1"/>
      </contour>
    </TTGlyph>
    <TTGlyph name="brokenbar" xMin="72" yMin="-223" xMax="152" yMax="774">
      <contour>
        <pt x="152" y="351" on="1"/>
        <pt x="72" y="351" on="1"/>
        <pt x="72" y="774" on="1"/>
        <pt x="152" y="774" on="1"/>
      </contour>
      <contour>
        <pt x="152" y="-223" on="1"/>
        <pt x="72" y="-223" on="1"/>
        <pt x="72" y="200" on="1"/>
        <pt x="152" y="200" on="1"/>
      </contour>
    </TTGlyph>
    <TTGlyph name="bullet" xMin="84" yMin="221" xMax="236" yMax="374">
      <contour>
        <pt x="236" y="233" on="1"/>
        <pt x="236" y="221" on="0"/>
        <pt x="222" y="221" on="1"/>
        <pt x="160" y="221" on="0"/>
        <pt x="89" y="221" on="0"/>
        <pt x="85" y="225" on="0"/>
        <pt x="84" y="233" on="1"/>
        <pt x="84" y="362" on="1"/>
        <pt x="85" y="370" on="0"/>
        <pt x="89" y="374" on="0"/>
        <pt x="97" y="374" on="1"/>
        <pt x="160" y="374" on="0"/>
        <pt x="222" y="374" on="1"/>
        <pt x="236" y="374" on="0"/>
        <pt x="236" y="362" on="1"/>
      </contour>
    </TTGlyph>
    <TTGlyph name="c" xMin="51" yMin="0" xMax="472" yMax="500">
      <contour>
        <pt x="206" y="0" on="1"/>
        <pt x="204" y="0" on="1"/>
        <pt x="105" y="0" on="0"/>
        <pt x="82" y="34" on="1"/>
        <pt x="71" y="50" on="0"/>
        <pt x="58" y="80" on="0"/>
        <pt x="56" y="112" on="1"/>
        <pt x="51" y="170" on="0"/>
        <pt x="51" y="312" on="0"/>
        <pt x="53" y="375" on="0"/>
        <pt x="64" y="440" on="0"/>
        <pt x="82" y="469" on="0"/>
        <pt x="118" y="493" on="0"/>
        <pt x="166" y="500" on="0"/>
        <pt x="204" y="500" on="1"/>
        <pt x="206" y="500" on="1"/>
      </contour>
      <contour>
        <pt x="322" y="158" on="1"/>
        <pt x="389" y="158" on="0"/>
        <pt x="459" y="158" on="0"/>
        <pt x="461" y="157" on="0"/>
        <pt x="466" y="156" on="0"/>
        <pt x="468" y="154" on="0"/>
        <pt x="470" y="151" on="0"/>
        <pt x="470" y="148" on="1"/>
        <pt x="472" y="141" on="0"/>
        <pt x="472" y="137" on="1"/>
        <pt x="472" y="107" on="1"/>
        <pt x="472" y="0" on="0"/>
        <pt x="363" y="0" on="1"/>
        <pt x="237" y="0" on="1"/>
        <pt x="237" y="75" on="1"/>
        <pt x="291" y="75" on="1"/>
        <pt x="312" y="75" on="0"/>
        <pt x="322" y="88" on="0"/>
        <pt x="322" y="105" on="1"/>
      </contour>
      <contour>
        <pt x="237" y="500" on="1"/>
        <pt x="363" y="500" on="1"/>
        <pt x="472" y="500" on="0"/>
        <pt x="472" y="393" on="1"/>
        <pt x="472" y="325" on="1"/>
        <pt x="405" y="325" on="0"/>
        <pt x="335" y="325" on="0"/>
        <pt x="333" y="326" on="0"/>
        <pt x="328" y="327" on="0"/>
        <pt x="326" y="329" on="0"/>
        <pt x="324" y="332" on="0"/>
        <pt x="324" y="334" on="1"/>
        <pt x="322" y="342" on="0"/>
        <pt x="322" y="346" on="1"/>
        <pt x="322" y="395" on="1"/>
        <pt x="322" y="412" on="0"/>
        <pt x="312" y="425" on="0"/>
        <pt x="291" y="425" on="1"/>
        <pt x="237" y="425" on="1"/>
      </contour>
    </TTGlyph>
    <TTGlyph name="caron" xMin="40" yMin="743" xMax="408" yMax="906">
      <contour>
        <pt x="264" y="743" on="1"/>
        <pt x="194" y="743" on="1"/>
        <pt x="173" y="743" on="0"/>
        <pt x="150" y="755" on="0"/>
        <pt x="136" y="775" on="1"/>
        <pt x="40" y="906" on="1"/>
        <pt x="162" y="906" on="1"/>
        <pt x="229" y="799" on="1"/>
        <pt x="296" y="906" on="1"/>
        <pt x="408" y="906" on="1"/>
        <pt x="333" y="790" on="1"/>
        <pt x="310" y="754" on="0"/>
        <pt x="293" y="743" on="0"/>
      </contour>
    </TTGlyph>
    <TTGlyph name="ccedilla" xMin="51" yMin="-183" xMax="472" yMax="500">
      <contour>
        <pt x="206" y="0" on="1"/>
        <pt x="204" y="0" on="1"/>
        <pt x="105" y="0" on="0"/>
        <pt x="82" y="34" on="1"/>
        <pt x="71" y="50" on="0"/>
        <pt x="58" y="80" on="0"/>
        <pt x="56" y="112" on="1"/>
        <pt x="51" y="170" on="0"/>
        <pt x="51" y="312" on="0"/>
        <pt x="53" y="375" on="0"/>
        <pt x="64" y="440" on="0"/>
        <pt x="82" y="469" on="0"/>
        <pt x="118" y="493" on="0"/>
        <pt x="166" y="500" on="0"/>
        <pt x="204" y="500" on="1"/>
        <pt x="206" y="500" on="1"/>
      </contour>
      <contour>
        <pt x="322" y="158" on="1"/>
        <pt x="389" y="158" on="0"/>
        <pt x="459" y="158" on="0"/>
        <pt x="461" y="157" on="0"/>
        <pt x="466" y="156" on="0"/>
        <pt x="468" y="154" on="0"/>
        <pt x="470" y="151" on="0"/>
        <pt x="470" y="148" on="1"/>
        <pt x="472" y="141" on="0"/>
        <pt x="472" y="137" on="1"/>
        <pt x="472" y="107" on="1"/>
        <pt x="472" y="0" on="0"/>
        <pt x="363" y="0" on="1"/>
        <pt x="237" y="0" on="1"/>
        <pt x="237" y="75" on="1"/>
        <pt x="291" y="75" on="1"/>
        <pt x="312" y="75" on="0"/>
        <pt x="322" y="88" on="0"/>
        <pt x="322" y="105" on="1"/>
      </contour>
      <contour>
        <pt x="237" y="500" on="1"/>
        <pt x="363" y="500" on="1"/>
        <pt x="472" y="500" on="0"/>
        <pt x="472" y="393" on="1"/>
        <pt x="472" y="325" on="1"/>
        <pt x="405" y="325" on="0"/>
        <pt x="335" y="325" on="0"/>
        <pt x="333" y="326" on="0"/>
        <pt x="328" y="327" on="0"/>
        <pt x="326" y="329" on="0"/>
        <pt x="324" y="332" on="0"/>
        <pt x="324" y="334" on="1"/>
        <pt x="322" y="342" on="0"/>
        <pt x="322" y="346" on="1"/>
        <pt x="322" y="395" on="1"/>
        <pt x="322" y="412" on="0"/>
        <pt x="312" y="425" on="0"/>
        <pt x="291" y="425" on="1"/>
        <pt x="237" y="425" on="1"/>
      </contour>
      <contour>
        <pt x="195" y="-79" on="1"/>
        <pt x="236" y="-80" on="1"/>
        <pt x="249" y="-80" on="0"/>
        <pt x="254" y="-79" on="1"/>
        <pt x="265" y="-76" on="0"/>
        <pt x="265" y="-51" on="1"/>
        <pt x="265" y="33" on="1"/>
        <pt x="340" y="33" on="1"/>
        <pt x="340" y="-103" on="1"/>
        <pt x="340" y="-151" on="0"/>
        <pt x="305" y="-183" on="0"/>
        <pt x="244" y="-183" on="1"/>
        <pt x="184" y="-183" on="1"/>
        <pt x="184" y="-89" on="1"/>
        <pt x="184" y="-82" on="0"/>
        <pt x="187" y="-79" on="0"/>
      </contour>
    </TTGlyph>
    <TTGlyph name="cedilla" xMin="140" yMin="-183" xMax="296" yMax="33">
      <contour>
        <pt x="151" y="-79" on="1"/>
        <pt x="192" y="-80" on="1"/>
        <pt x="205" y="-80" on="0"/>
        <pt x="210" y="-79" on="1"/>
        <pt x="221" y="-76" on="0"/>
        <pt x="221" y="-51" on="1"/>
        <pt x="221" y="33" on="1"/>
        <pt x="296" y="33" on="1"/>
        <pt x="296" y="-103" on="1"/>
        <pt x="296" y="-151" on="0"/>
        <pt x="261" y="-183" on="0"/>
        <pt x="200" y="-183" on="1"/>
        <pt x="140" y="-183" on="1"/>
        <pt x="140" y="-89" on="1"/>
        <pt x="140" y="-82" on="0"/>
        <pt x="143" y="-79" on="0"/>
      </contour>
    </TTGlyph>
    <TTGlyph name="cent" xMin="30" yMin="-223" xMax="451" yMax="832">
      <contour>
        <pt x="185" y="75" on="1"/>
        <pt x="183" y="75" on="1"/>
        <pt x="84" y="75" on="0"/>
        <pt x="60" y="110" on="1"/>
        <pt x="50" y="125" on="0"/>
        <pt x="37" y="155" on="0"/>
        <pt x="34" y="187" on="1"/>
        <pt x="30" y="245" on="0"/>
        <pt x="30" y="387" on="0"/>
        <pt x="32" y="450" on="0"/>
        <pt x="43" y="515" on="0"/>
        <pt x="61" y="544" on="0"/>
        <pt x="97" y="568" on="0"/>
        <pt x="145" y="575" on="0"/>
        <pt x="183" y="575" on="1"/>
        <pt x="185" y="575" on="1"/>
      </contour>
      <contour>
        <pt x="301" y="233" on="1"/>
        <pt x="368" y="233" on="0"/>
        <pt x="438" y="233" on="0"/>
        <pt x="440" y="232" on="0"/>
        <pt x="445" y="231" on="0"/>
        <pt x="447" y="229" on="0"/>
        <pt x="449" y="226" on="0"/>
        <pt x="450" y="224" on="1"/>
        <pt x="451" y="216" on="0"/>
        <pt x="451" y="212" on="1"/>
        <pt x="451" y="182" on="1"/>
        <pt x="451" y="75" on="0"/>
        <pt x="342" y="75" on="1"/>
        <pt x="296" y="75" on="1"/>
        <pt x="296" y="-223" on="1"/>
        <pt x="216" y="-223" on="1"/>
        <pt x="216" y="150" on="1"/>
        <pt x="270" y="150" on="1"/>
        <pt x="291" y="150" on="0"/>
        <pt x="301" y="163" on="0"/>
        <pt x="301" y="180" on="1"/>
      </contour>
      <contour>
        <pt x="296" y="576" on="1"/>
        <pt x="342" y="576" on="1"/>
        <pt x="451" y="576" on="0"/>
        <pt x="451" y="469" on="1"/>
        <pt x="451" y="401" on="1"/>
        <pt x="384" y="401" on="0"/>
        <pt x="314" y="401" on="0"/>
        <pt x="312" y="402" on="0"/>
        <pt x="307" y="403" on="0"/>
        <pt x="305" y="405" on="0"/>
        <pt x="303" y="408" on="0"/>
        <pt x="302" y="410" on="1"/>
        <pt x="301" y="418" on="0"/>
        <pt x="301" y="422" on="1"/>
        <pt x="301" y="471" on="1"/>
        <pt x="301" y="497" on="0"/>
        <pt x="283" y="500" on="1"/>
        <pt x="216" y="500" on="1"/>
        <pt x="216" y="832" on="1"/>
        <pt x="296" y="832" on="1"/>
      </contour>
    </TTGlyph>
    <TTGlyph name="circumflex" xMin="40" yMin="763" xMax="377" yMax="936">
      <contour>
        <pt x="153" y="936" on="1"/>
        <pt x="261" y="936" on="1"/>
        <pt x="271" y="936" on="0"/>
        <pt x="281" y="934" on="0"/>
        <pt x="289" y="933" on="0"/>
        <pt x="296" y="924" on="0"/>
        <pt x="299" y="918" on="0"/>
        <pt x="309" y="897" on="0"/>
        <pt x="313" y="889" on="1"/>
        <pt x="377" y="763" on="1"/>
        <pt x="266" y="763" on="1"/>
        <pt x="209" y="883" on="1"/>
        <pt x="152" y="763" on="1"/>
        <pt x="40" y="763" on="1"/>
        <pt x="116" y="904" on="1"/>
        <pt x="130" y="931" on="0"/>
        <pt x="135" y="933" on="1"/>
        <pt x="141" y="936" on="0"/>
      </contour>
    </TTGlyph>
    <TTGlyph name="colon" xMin="59" yMin="0" xMax="211" yMax="501">
      <contour>
        <pt x="211" y="360" on="1"/>
        <pt x="211" y="348" on="0"/>
        <pt x="197" y="348" on="1"/>
        <pt x="134" y="348" on="0"/>
        <pt x="64" y="348" on="0"/>
        <pt x="60" y="352" on="0"/>
        <pt x="59" y="360" on="1"/>
        <pt x="59" y="489" on="1"/>
        <pt x="60" y="497" on="0"/>
        <pt x="64" y="501" on="0"/>
        <pt x="72" y="501" on="1"/>
        <pt x="134" y="501" on="0"/>
        <pt x="197" y="501" on="1"/>
        <pt x="211" y="501" on="0"/>
        <pt x="211" y="489" on="1"/>
      </contour>
      <contour>
        <pt x="211" y="12" on="1"/>
        <pt x="211" y="0" on="0"/>
        <pt x="197" y="0" on="1"/>
        <pt x="134" y="0" on="0"/>
        <pt x="64" y="0" on="0"/>
        <pt x="60" y="4" on="0"/>
        <pt x="59" y="12" on="1"/>
        <pt x="59" y="141" on="1"/>
        <pt x="60" y="149" on="0"/>
        <pt x="64" y="153" on="0"/>
        <pt x="72" y="153" on="1"/>
        <pt x="134" y="153" on="0"/>
        <pt x="197" y="153" on="1"/>
        <pt x="211" y="153" on="0"/>
        <pt x="211" y="141" on="1"/>
      </contour>
    </TTGlyph>
    <TTGlyph name="comma" xMin="53" yMin="-162" xMax="232" yMax="151">
      <contour>
        <pt x="232" y="-150" on="1"/>
        <pt x="232" y="-162" on="0"/>
        <pt x="218" y="-162" on="1"/>
        <pt x="180" y="-162" on="0"/>
        <pt x="142" y="-162" on="1"/>
        <pt x="120" y="-2" on="1"/>
        <pt x="66" y="-2" on="1"/>
        <pt x="58" y="-2" on="0"/>
        <pt x="54" y="2" on="0"/>
        <pt x="53" y="10" on="1"/>
        <pt x="53" y="139" on="1"/>
        <pt x="54" y="147" on="0"/>
        <pt x="58" y="151" on="0"/>
        <pt x="66" y="151" on="1"/>
        <pt x="142" y="151" on="0"/>
        <pt x="218" y="151" on="1"/>
        <pt x="232" y="151" on="0"/>
        <pt x="232" y="139" on="1"/>
      </contour>
    </TTGlyph>
    <TTGlyph name="copyright" xMin="30" yMin="-52" xMax="811" yMax="728">
      <contour>
        <pt x="30" y="500" on="0"/>
        <pt x="259" y="728" on="0"/>
        <pt x="583" y="728" on="0"/>
        <pt x="811" y="499" on="0"/>
        <pt x="811" y="177" on="0"/>
        <pt x="582" y="-52" on="0"/>
        <pt x="260" y="-52" on="0"/>
        <pt x="30" y="176" on="0"/>
      </contour>
      <contour>
        <pt x="372" y="138" on="1"/>
        <pt x="370" y="138" on="1"/>
        <pt x="325" y="138" on="0"/>
        <pt x="292" y="148" on="1"/>
        <pt x="272" y="155" on="0"/>
        <pt x="256" y="192" on="1"/>
        <pt x="247" y="212" on="0"/>
        <pt x="245" y="302" on="0"/>
        <pt x="245" y="395" on="0"/>
        <pt x="246" y="445" on="0"/>
        <pt x="255" y="501" on="0"/>
        <pt x="269" y="523" on="0"/>
        <pt x="299" y="544" on="0"/>
        <pt x="339" y="549" on="0"/>
        <pt x="370" y="549" on="1"/>
        <pt x="372" y="549" on="1"/>
      </contour>
      <contour>
        <pt x="468" y="267" on="1"/>
        <pt x="576" y="267" on="1"/>
        <pt x="584" y="267" on="0"/>
        <pt x="591" y="261" on="0"/>
        <pt x="591" y="251" on="1"/>
        <pt x="591" y="227" on="1"/>
        <pt x="591" y="138" on="0"/>
        <pt x="501" y="138" on="1"/>
        <pt x="398" y="138" on="1"/>
        <pt x="398" y="200" on="1"/>
        <pt x="441" y="200" on="1"/>
        <pt x="459" y="200" on="0"/>
        <pt x="468" y="211" on="0"/>
        <pt x="468" y="224" on="1"/>
      </contour>
      <contour>
        <pt x="743" y="471" on="0"/>
        <pt x="554" y="661" on="0"/>
        <pt x="288" y="661" on="0"/>
        <pt x="98" y="471" on="0"/>
        <pt x="98" y="204" on="0"/>
        <pt x="288" y="15" on="0"/>
        <pt x="554" y="15" on="0"/>
        <pt x="743" y="204" on="0"/>
      </contour>
      <contour>
        <pt x="398" y="549" on="1"/>
        <pt x="501" y="549" on="1"/>
        <pt x="591" y="549" on="0"/>
        <pt x="591" y="461" on="1"/>
        <pt x="591" y="404" on="1"/>
        <pt x="484" y="404" on="1"/>
        <pt x="475" y="404" on="0"/>
        <pt x="468" y="410" on="0"/>
        <pt x="468" y="421" on="1"/>
        <pt x="468" y="462" on="1"/>
        <pt x="468" y="476" on="0"/>
        <pt x="459" y="487" on="0"/>
        <pt x="441" y="487" on="1"/>
        <pt x="398" y="487" on="1"/>
      </contour>
    </TTGlyph>
    <TTGlyph name="currency" xMin="35" yMin="18" xMax="633" yMax="661">
      <contour>
        <pt x="211" y="540" on="1"/>
        <pt x="266" y="573" on="0"/>
        <pt x="398" y="573" on="0"/>
        <pt x="454" y="537" on="1"/>
        <pt x="577" y="661" on="1"/>
        <pt x="633" y="604" on="1"/>
        <pt x="514" y="484" on="1"/>
        <pt x="565" y="420" on="0"/>
        <pt x="565" y="259" on="0"/>
        <pt x="515" y="194" on="1"/>
        <pt x="633" y="75" on="1"/>
        <pt x="577" y="18" on="1"/>
        <pt x="456" y="139" on="1"/>
        <pt x="398" y="102" on="0"/>
        <pt x="263" y="102" on="0"/>
        <pt x="209" y="136" on="1"/>
        <pt x="91" y="18" on="1"/>
        <pt x="35" y="75" on="1"/>
        <pt x="149" y="190" on="1"/>
        <pt x="97" y="257" on="0"/>
        <pt x="97" y="422" on="0"/>
        <pt x="150" y="488" on="1"/>
        <pt x="35" y="604" on="1"/>
        <pt x="91" y="661" on="1"/>
      </contour>
      <contour>
        <pt x="495" y="406" on="0"/>
        <pt x="399" y="500" on="0"/>
        <pt x="264" y="500" on="0"/>
        <pt x="170" y="406" on="0"/>
        <pt x="170" y="271" on="0"/>
        <pt x="264" y="176" on="0"/>
        <pt x="399" y="176" on="0"/>
        <pt x="495" y="271" on="0"/>
      </contour>
    </TTGlyph>
    <TTGlyph name="d" xMin="51" yMin="0" xMax="481" yMax="723">
      <contour>
        <pt x="301" y="425" on="1"/>
        <pt x="247" y="425" on="1"/>
        <pt x="221" y="425" on="0"/>
        <pt x="206" y="411" on="0"/>
        <pt x="206" y="395" on="1"/>
        <pt x="206" y="104" on="1"/>
        <pt x="206" y="89" on="0"/>
        <pt x="221" y="75" on="0"/>
        <pt x="247" y="75" on="1"/>
        <pt x="301" y="75" on="1"/>
        <pt x="301" y="0" on="1"/>
        <pt x="204" y="0" on="1"/>
        <pt x="105" y="0" on="0"/>
        <pt x="82" y="34" on="1"/>
        <pt x="71" y="50" on="0"/>
        <pt x="58" y="80" on="0"/>
        <pt x="56" y="112" on="1"/>
        <pt x="51" y="170" on="0"/>
        <pt x="51" y="312" on="0"/>
        <pt x="53" y="375" on="0"/>
        <pt x="64" y="440" on="0"/>
        <pt x="82" y="469" on="0"/>
        <pt x="118" y="493" on="0"/>
        <pt x="166" y="500" on="0"/>
        <pt x="204" y="500" on="1"/>
        <pt x="301" y="500" on="1"/>
      </contour>
      <contour>
        <pt x="331" y="723" on="1"/>
        <pt x="392" y="723" on="1"/>
        <pt x="436" y="723" on="0"/>
        <pt x="481" y="680" on="0"/>
        <pt x="481" y="646" on="1"/>
        <pt x="481" y="77" on="1"/>
        <pt x="481" y="43" on="0"/>
        <pt x="436" y="0" on="0"/>
        <pt x="392" y="0" on="1"/>
        <pt x="331" y="0" on="1"/>
      </contour>
    </TTGlyph>
    <TTGlyph name="dagger" xMin="22" yMin="-140" xMax="458" yMax="723">
      <contour>
        <pt x="51" y="385" on="1"/>
        <pt x="43" y="384" on="1"/>
        <pt x="28" y="384" on="0"/>
        <pt x="22" y="402" on="0"/>
        <pt x="22" y="416" on="1"/>
        <pt x="22" y="482" on="1"/>
        <pt x="181" y="482" on="1"/>
        <pt x="181" y="723" on="1"/>
        <pt x="265" y="723" on="1"/>
        <pt x="281" y="723" on="0"/>
        <pt x="301" y="701" on="0"/>
        <pt x="301" y="683" on="1"/>
        <pt x="301" y="490" on="1"/>
        <pt x="458" y="490" on="1"/>
        <pt x="458" y="412" on="1"/>
        <pt x="458" y="391" on="0"/>
        <pt x="445" y="384" on="0"/>
        <pt x="437" y="384" on="1"/>
        <pt x="301" y="400" on="1"/>
        <pt x="301" y="-140" on="1"/>
        <pt x="236" y="-140" on="1"/>
        <pt x="202" y="-140" on="0"/>
        <pt x="181" y="-118" on="0"/>
        <pt x="181" y="-83" on="1"/>
        <pt x="181" y="400" on="1"/>
      </contour>
    </TTGlyph>
    <TTGlyph name="daggerdbl" xMin="34" yMin="-140" xMax="470" yMax="723">
      <contour>
        <pt x="63" y="385" on="1"/>
        <pt x="55" y="384" on="1"/>
        <pt x="40" y="384" on="0"/>
        <pt x="34" y="402" on="0"/>
        <pt x="34" y="416" on="1"/>
        <pt x="34" y="482" on="1"/>
        <pt x="193" y="482" on="1"/>
        <pt x="193" y="723" on="1"/>
        <pt x="277" y="723" on="1"/>
        <pt x="293" y="723" on="0"/>
        <pt x="313" y="701" on="0"/>
        <pt x="313" y="683" on="1"/>
        <pt x="313" y="490" on="1"/>
        <pt x="470" y="490" on="1"/>
        <pt x="470" y="412" on="1"/>
        <pt x="470" y="391" on="0"/>
        <pt x="457" y="384" on="0"/>
        <pt x="449" y="384" on="1"/>
        <pt x="313" y="400" on="1"/>
        <pt x="313" y="215" on="1"/>
        <pt x="470" y="215" on="1"/>
        <pt x="470" y="136" on="1"/>
        <pt x="470" y="116" on="0"/>
        <pt x="457" y="109" on="0"/>
        <pt x="449" y="109" on="1"/>
        <pt x="313" y="125" on="1"/>
        <pt x="313" y="-140" on="1"/>
        <pt x="248" y="-140" on="1"/>
        <pt x="214" y="-140" on="0"/>
        <pt x="193" y="-118" on="0"/>
        <pt x="193" y="-83" on="1"/>
        <pt x="193" y="125" on="1"/>
        <pt x="63" y="110" on="1"/>
        <pt x="55" y="109" on="1"/>
        <pt x="40" y="109" on="0"/>
        <pt x="34" y="127" on="0"/>
        <pt x="34" y="142" on="1"/>
        <pt x="34" y="207" on="1"/>
        <pt x="193" y="207" on="1"/>
        <pt x="193" y="400" on="1"/>
      </contour>
    </TTGlyph>
    <TTGlyph name="degree" xMin="33" yMin="450" xMax="335" yMax="756">
      <contour>
        <pt x="33" y="667" on="0"/>
        <pt x="119" y="756" on="0"/>
        <pt x="245" y="756" on="0"/>
        <pt x="335" y="668" on="0"/>
        <pt x="335" y="540" on="0"/>
        <pt x="244" y="450" on="0"/>
        <pt x="120" y="450" on="0"/>
        <pt x="33" y="541" on="0"/>
      </contour>
      <contour>
        <pt x="270" y="640" on="0"/>
        <pt x="218" y="689" on="0"/>
        <pt x="146" y="689" on="0"/>
        <pt x="98" y="639" on="0"/>
        <pt x="98" y="566" on="0"/>
        <pt x="146" y="517" on="0"/>
        <pt x="218" y="517" on="0"/>
        <pt x="270" y="565" on="0"/>
      </contour>
    </TTGlyph>
    <TTGlyph name="dieresis" xMin="40" yMin="784" xMax="418" yMax="922">
      <contour>
        <pt x="289" y="922" on="1"/>
        <pt x="406" y="922" on="1"/>
        <pt x="417" y="920" on="0"/>
        <pt x="417" y="904" on="1"/>
        <pt x="417" y="901" on="0"/>
        <pt x="417" y="900" on="1"/>
        <pt x="417" y="795" on="1"/>
        <pt x="417" y="789" on="0"/>
        <pt x="413" y="785" on="0"/>
        <pt x="406" y="784" on="1"/>
        <pt x="289" y="784" on="1"/>
        <pt x="282" y="785" on="0"/>
        <pt x="278" y="789" on="0"/>
        <pt x="278" y="795" on="1"/>
        <pt x="278" y="913" on="1"/>
        <pt x="278" y="915" on="0"/>
        <pt x="280" y="917" on="0"/>
        <pt x="281" y="918" on="1"/>
        <pt x="283" y="922" on="0"/>
      </contour>
      <contour>
        <pt x="179" y="900" on="1"/>
        <pt x="179" y="809" on="1"/>
        <pt x="179" y="806" on="0"/>
        <pt x="179" y="794" on="0"/>
        <pt x="178" y="791" on="1"/>
        <pt x="177" y="784" on="0"/>
        <pt x="168" y="784" on="1"/>
        <pt x="50" y="784" on="1"/>
        <pt x="40" y="785" on="0"/>
        <pt x="40" y="795" on="1"/>
        <pt x="40" y="909" on="1"/>
        <pt x="40" y="920" on="0"/>
        <pt x="50" y="922" on="1"/>
        <pt x="168" y="922" on="1"/>
        <pt x="179" y="920" on="0"/>
        <pt x="179" y="903" on="1"/>
        <pt x="179" y="901" on="0"/>
      </contour>
    </TTGlyph>
    <TTGlyph name="divide" xMin="38" yMin="31" xMax="597" yMax="486">
      <contour>
        <pt x="597" y="207" on="1"/>
        <pt x="38" y="207" on="1"/>
        <pt x="38" y="307" on="1"/>
        <pt x="597" y="307" on="1"/>
      </contour>
      <contour>
        <pt x="369" y="476" on="1"/>
        <pt x="369" y="358" on="1"/>
        <pt x="367" y="347" on="0"/>
        <pt x="349" y="347" on="1"/>
        <pt x="347" y="347" on="0"/>
        <pt x="346" y="347" on="1"/>
        <pt x="242" y="347" on="1"/>
        <pt x="235" y="347" on="0"/>
        <pt x="232" y="350" on="0"/>
        <pt x="231" y="358" on="1"/>
        <pt x="231" y="476" on="1"/>
        <pt x="232" y="483" on="0"/>
        <pt x="235" y="486" on="0"/>
        <pt x="242" y="486" on="1"/>
        <pt x="346" y="486" on="1"/>
        <pt x="353" y="486" on="0"/>
        <pt x="367" y="486" on="0"/>
      </contour>
      <contour>
        <pt x="356" y="170" on="1"/>
        <pt x="369" y="170" on="0"/>
        <pt x="369" y="159" on="1"/>
        <pt x="369" y="42" on="1"/>
        <pt x="368" y="34" on="0"/>
        <pt x="361" y="31" on="0"/>
        <pt x="354" y="31" on="1"/>
        <pt x="242" y="31" on="1"/>
        <pt x="235" y="31" on="0"/>
        <pt x="232" y="35" on="0"/>
        <pt x="231" y="42" on="1"/>
        <pt x="231" y="159" on="1"/>
        <pt x="232" y="166" on="0"/>
        <pt x="235" y="170" on="0"/>
        <pt x="242" y="170" on="1"/>
        <pt x="299" y="170" on="0"/>
      </contour>
    </TTGlyph>
    <TTGlyph name="dollar" xMin="38" yMin="-223" xMax="557" yMax="911">
      <contour>
        <pt x="218" y="723" on="1"/>
        <pt x="218" y="436" on="1"/>
        <pt x="218" y="420" on="0"/>
        <pt x="233" y="406" on="0"/>
        <pt x="259" y="406" on="1"/>
        <pt x="333" y="406" on="1"/>
        <pt x="333" y="311" on="1"/>
        <pt x="206" y="311" on="1"/>
        <pt x="149" y="311" on="0"/>
        <pt x="80" y="335" on="0"/>
        <pt x="47" y="396" on="0"/>
        <pt x="38" y="466" on="0"/>
        <pt x="38" y="585" on="0"/>
        <pt x="47" y="647" on="0"/>
        <pt x="80" y="701" on="0"/>
        <pt x="149" y="723" on="0"/>
        <pt x="206" y="723" on="1"/>
      </contour>
      <contour>
        <pt x="56" y="223" on="1"/>
        <pt x="182" y="223" on="1"/>
        <pt x="196" y="223" on="0"/>
        <pt x="202" y="215" on="0"/>
        <pt x="202" y="202" on="1"/>
        <pt x="202" y="124" on="1"/>
        <pt x="202" y="108" on="0"/>
        <pt x="211" y="95" on="0"/>
        <pt x="229" y="95" on="1"/>
        <pt x="258" y="95" on="1"/>
        <pt x="258" y="180" on="1"/>
        <pt x="338" y="180" on="1"/>
        <pt x="338" y="-223" on="1"/>
        <pt x="258" y="-223" on="1"/>
        <pt x="258" y="0" on="1"/>
        <pt x="190" y="0" on="1"/>
        <pt x="117" y="0" on="0"/>
        <pt x="42" y="50" on="0"/>
        <pt x="42" y="112" on="1"/>
        <pt x="42" y="202" on="1"/>
        <pt x="42" y="223" on="0"/>
      </contour>
      <contour>
        <pt x="338" y="911" on="1"/>
        <pt x="338" y="723" on="1"/>
        <pt x="385" y="723" on="1"/>
        <pt x="458" y="723" on="0"/>
        <pt x="533" y="673" on="0"/>
        <pt x="533" y="611" on="1"/>
        <pt x="533" y="521" on="1"/>
        <pt x="533" y="500" on="0"/>
        <pt x="519" y="500" on="1"/>
        <pt x="393" y="500" on="1"/>
        <pt x="379" y="500" on="0"/>
        <pt x="373" y="508" on="0"/>
        <pt x="373" y="521" on="1"/>
        <pt x="373" y="599" on="1"/>
        <pt x="373" y="615" on="0"/>
        <pt x="364" y="628" on="0"/>
        <pt x="346" y="628" on="1"/>
        <pt x="338" y="628" on="1"/>
        <pt x="338" y="498" on="1"/>
        <pt x="258" y="498" on="1"/>
        <pt x="258" y="911" on="1"/>
      </contour>
      <contour>
        <pt x="389" y="405" on="1"/>
        <pt x="432" y="405" on="0"/>
        <pt x="479" y="402" on="0"/>
        <pt x="523" y="387" on="0"/>
        <pt x="540" y="367" on="0"/>
        <pt x="555" y="318" on="0"/>
        <pt x="557" y="262" on="0"/>
        <pt x="557" y="158" on="0"/>
        <pt x="555" y="97" on="0"/>
        <pt x="540" y="42" on="0"/>
        <pt x="523" y="20" on="0"/>
        <pt x="479" y="3" on="0"/>
        <pt x="432" y="0" on="0"/>
        <pt x="389" y="0" on="1"/>
        <pt x="378" y="0" on="1"/>
        <pt x="377" y="405" on="1"/>
      </contour>
    </TTGlyph>
    <TTGlyph name="dotaccent" xMin="36" yMin="764" xMax="176" yMax="902">
      <contour>
        <pt x="47" y="902" on="1"/>
        <pt x="164" y="902" on="1"/>
        <pt x="175" y="900" on="0"/>
        <pt x="175" y="884" on="1"/>
        <pt x="175" y="881" on="0"/>
        <pt x="175" y="880" on="1"/>
        <pt x="175" y="775" on="1"/>
        <pt x="175" y="769" on="0"/>
        <pt x="171" y="765" on="0"/>
        <pt x="164" y="764" on="1"/>
        <pt x="47" y="764" on="1"/>
        <pt x="40" y="765" on="0"/>
        <pt x="36" y="769" on="0"/>
        <pt x="36" y="775" on="1"/>
        <pt x="36" y="893" on="1"/>
        <pt x="36" y="895" on="0"/>
        <pt x="38" y="897" on="0"/>
        <pt x="39" y="898" on="1"/>
        <pt x="41" y="902" on="0"/>
      </contour>
    </TTGlyph>
    <TTGlyph name="dotlessi" xMin="58" yMin="0" xMax="208" yMax="499">
      <contour>
        <pt x="58" y="499" on="1"/>
        <pt x="119" y="499" on="1"/>
        <pt x="163" y="499" on="0"/>
        <pt x="208" y="456" on="0"/>
        <pt x="208" y="422" on="1"/>
        <pt x="208" y="0" on="1"/>
        <pt x="94" y="0" on="1"/>
        <pt x="78" y="0" on="0"/>
        <pt x="58" y="22" on="0"/>
        <pt x="58" y="40" on="1"/>
      </contour>
    </TTGlyph>
</ttFont>
